<svg version="1.1" viewBox="0.0 0.0 960.0 960.0" fill="none" stroke="none" stroke-linecap="square" stroke-miterlimit="10" xmlns:xlink="http://www.w3.org/1999/xlink" xmlns="http://www.w3.org/2000/svg"><clipPath id="p.0"><path d="m0 0l960.0 0l0 960.0l-960.0 0l0 -960.0z" clip-rule="nonzero"/></clipPath><g clip-path="url(#p.0)"><path fill="#000000" fill-opacity="0.0" d="m0 0l960.0 0l0 960.0l-960.0 0z" fill-rule="evenodd"/><path fill="#111122" d="m3.5695539 661.0696l0 0c0 40.923462 213.30988 74.09845 476.44095 74.09845c263.13104 0 476.44092 -33.174988 476.44092 -74.09845l0 223.04718c0 40.923462 -213.30988 74.09845 -476.44092 74.09845c-263.13107 0 -476.44095 -33.174988 -476.44095 -74.09845z" fill-rule="evenodd"/><path fill="#70707a" d="m3.5695539 661.0696l0 0c0 -40.923462 213.30988 -74.09845 476.44095 -74.09845c263.13104 0 476.44092 33.174988 476.44092 74.09845l0 0c0 40.923462 -213.30988 74.09845 -476.44092 74.09845c-263.13107 0 -476.44095 -33.174988 -476.44095 -74.09845z" fill-rule="evenodd"/><path fill="#000000" fill-opacity="0.0" d="m956.4514 661.0696l0 0c0 40.923462 -213.30988 74.09845 -476.44092 74.09845c-263.13107 0 -476.44095 -33.174988 -476.44095 -74.09845l0 0c0 -40.923462 213.30988 -74.09845 476.44095 -74.09845c263.13104 0 476.44092 33.174988 476.44092 74.09845l0 223.04718c0 40.923462 -213.30988 74.09845 -476.44092 74.09845c-263.13107 0 -476.44095 -33.174988 -476.44095 -74.09845l0 -223.04718" fill-rule="evenodd"/><path stroke="#111122" stroke-width="8.0" stroke-linejoin="round" stroke-linecap="butt" d="m956.4514 661.0696l0 0c0 40.923462 -213.30988 74.09845 -476.44092 74.09845c-263.13107 0 -476.44095 -33.174988 -476.44095 -74.09845l0 0c0 -40.923462 213.30988 -74.09845 476.44095 -74.09845c263.13104 0 476.44092 33.174988 476.44092 74.09845l0 223.04718c0 40.923462 -213.30988 74.09845 -476.44092 74.09845c-263.13107 0 -476.44095 -33.174988 -476.44095 -74.09845l0 -223.04718" fill-rule="evenodd"/><path fill="#222233" d="m3.5695539 369.5604l0 0c0 40.923462 213.30988 74.09848 476.44095 74.09848c263.13104 0 476.44092 -33.17502 476.44092 -74.09848l0 223.04715c0 40.923462 -213.30988 74.09851 -476.44092 74.09851c-263.13107 0 -476.44095 -33.17505 -476.44095 -74.09851z" fill-rule="evenodd"/><path fill="#7a7a84" d="m3.5695539 369.5604l0 0c0 -40.92343 213.30988 -74.09845 476.44095 -74.09845c263.13104 0 476.44092 33.17502 476.44092 74.09845l0 0c0 40.923462 -213.30988 74.09848 -476.44092 74.09848c-263.13107 0 -476.44095 -33.17502 -476.44095 -74.09848z" fill-rule="evenodd"/><path fill="#000000" fill-opacity="0.0" d="m956.4514 369.5604l0 0c0 40.923462 -213.30988 74.09848 -476.44092 74.09848c-263.13107 0 -476.44095 -33.17502 -476.44095 -74.09848l0 0c0 -40.92343 213.30988 -74.09845 476.44095 -74.09845c263.13104 0 476.44092 33.17502 476.44092 74.09845l0 223.04715c0 40.923462 -213.30988 74.09851 -476.44092 74.09851c-263.13107 0 -476.44095 -33.17505 -476.44095 -74.09851l0 -223.04715" fill-rule="evenodd"/><path stroke="#222233" stroke-width="8.0" stroke-linejoin="round" stroke-linecap="butt" d="m956.4514 369.5604l0 0c0 40.923462 -213.30988 74.09848 -476.44092 74.09848c-263.13107 0 -476.44095 -33.17502 -476.44095 -74.09848l0 0c0 -40.92343 213.30988 -74.09845 476.44095 -74.09845c263.13104 0 476.44092 33.17502 476.44092 74.09845l0 223.04715c0 40.923462 -213.30988 74.09851 -476.44092 74.09851c-263.13107 0 -476.44095 -33.17505 -476.44095 -74.09851l0 -223.04715" fill-rule="evenodd"/><path fill="#333344" d="m3.5695539 78.851746l0 0c0 40.923454 213.30988 74.098465 476.44095 74.098465c263.13104 0 476.44092 -33.17501 476.44092 -74.098465l0 223.04715c0 40.923462 -213.30988 74.09848 -476.44092 74.09848c-263.13107 0 -476.44095 -33.17502 -476.44095 -74.09848z" fill-rule="evenodd"/><path fill="#84848e" d="m3.5695539 78.851746l0 0c0 -40.92345 213.30988 -74.098465 476.44095 -74.098465c263.13104 0 476.44092 33.175014 476.44092 74.098465l0 0c0 40.923454 -213.30988 74.098465 -476.44092 74.098465c-263.13107 0 -476.44095 -33.17501 -476.44095 -74.098465z" fill-rule="evenodd"/><path fill="#000000" fill-opacity="0.0" d="m956.4514 78.851746l0 0c0 40.923454 -213.30988 74.098465 -476.44092 74.098465c-263.13107 0 -476.44095 -33.17501 -476.44095 -74.098465l0 0c0 -40.92345 213.30988 -74.098465 476.44095 -74.098465c263.13104 0 476.44092 33.175014 476.44092 74.098465l0 223.04715c0 40.923462 -213.30988 74.09848 -476.44092 74.09848c-263.13107 0 -476.44095 -33.17502 -476.44095 -74.09848l0 -223.04715" fill-rule="evenodd"/><path stroke="#333344" stroke-width="8.0" stroke-linejoin="round" stroke-linecap="butt" d="m956.4514 78.851746l0 0c0 40.923454 -213.30988 74.098465 -476.44092 74.098465c-263.13107 0 -476.44095 -33.17501 -476.44095 -74.098465l0 0c0 -40.92345 213.30988 -74.098465 476.44095 -74.098465c263.13104 0 476.44092 33.175014 476.44092 74.098465l0 223.04715c0 40.923462 -213.30988 74.09848 -476.44092 74.09848c-263.13107 0 -476.44095 -33.17502 -476.44095 -74.09848l0 -223.04715" fill-rule="evenodd"/><path fill="#fff2cc" d="m761.98346 309.62375l0 0c-29.189331 7.8212585 -37.001038 73.31827 -17.447876 146.29166c19.553162 72.97339 59.066772 125.78961 88.2561 117.96832l0 0c29.189392 -7.821228 68.703 44.994995 88.256165 117.96838c19.553162 72.97333 11.741455 138.47034 -17.447876 146.29163l-422.81598 113.29321c29.189331 -7.821289 37.001038 -73.3183 17.447845 -146.29169c-19.553131 -72.97333 -59.066742 -125.78961 -88.2561 -117.96832c-29.189362 7.821289 -68.70297 -44.994934 -88.256134 -117.96832c-19.553162 -72.97339 -11.741486 -138.4704 17.447876 -146.29166z" fill-rule="evenodd"/><path stroke="#ffd966" stroke-width="8.0" stroke-linejoin="round" stroke-linecap="butt" d="m761.98346 309.62375l0 0c-29.189331 7.8212585 -37.001038 73.31827 -17.447876 146.29166c19.553162 72.97339 59.066772 125.78961 88.2561 117.96832l0 0c29.189392 -7.821228 68.703 44.994995 88.256165 117.96838c19.553162 72.97333 11.741455 138.47034 -17.447876 146.29163l-422.81598 113.29321c29.189331 -7.821289 37.001038 -73.3183 17.447845 -146.29169c-19.553131 -72.97333 -59.066742 -125.78961 -88.2561 -117.96832c-29.189362 7.821289 -68.70297 -44.994934 -88.256134 -117.96832c-19.553162 -72.97339 -11.741486 -138.4704 17.447876 -146.29166z" fill-rule="evenodd"/><path fill="#000000" fill-opacity="0.0" d="m351.4882 469.3832l348.53543 -93.38583" fill-rule="evenodd"/><path stroke="#000000" stroke-width="8.0" stroke-linejoin="round" stroke-linecap="butt" d="m351.4882 469.3832l348.53543 -93.38583" fill-rule="evenodd"/><path fill="#000000" fill-opacity="0.0" d="m361.70602 528.17584l348.53543 -93.3858" fill-rule="evenodd"/><path stroke="#000000" stroke-width="8.0" stroke-linejoin="round" stroke-linecap="butt" d="m361.70602 528.17584l348.53543 -93.3858" fill-rule="evenodd"/><path fill="#000000" fill-opacity="0.0" d="m531.3438 834.2992l348.53546 -93.3858" fill-rule="evenodd"/><path stroke="#000000" stroke-width="8.0" stroke-linejoin="round" stroke-linecap="butt" d="m531.3438 834.2992l348.53546 -93.3858" fill-rule="evenodd"/><path fill="#000000" fill-opacity="0.0" d="m541.5617 893.09186l348.5354 -93.3858" fill-rule="evenodd"/><path stroke="#000000" stroke-width="8.0" stroke-linejoin="round" stroke-linecap="butt" d="m541.5617 893.09186l348.5354 -93.3858" fill-rule="evenodd"/><path fill="#000000" fill-opacity="0.0" d="m389.03192 456.81628l271.87402 -72.81891l17.574768 65.543335l-271.874 72.81891z" fill-rule="evenodd"/><path fill="#000000" d="m478.522 481.91797l-14.767944 -25.694702l3.7581482 -1.0065918l9.075134 17.012573q1.4399719 2.655365 2.6796875 5.348175q-0.13323975 -4.7199707 -0.119140625 -5.45166l0.25759888 -20.094574l4.4071655 -1.1804199l7.724823 12.942078q2.8752441 4.8105164 4.769562 9.220581q-0.17590332 -2.7674866 -0.24121094 -6.3895264l-0.42025757 -18.942474l3.6826782 -0.98635864l-0.17410278 29.696777l-3.5317688 0.94595337l-11.475128 -19.507843q-1.4477539 -2.4429932 -1.7303467 -3.0143433q0.07217407 2.0188293 0.055023193 3.4630432l-0.22192383 22.640808l-3.7279968 0.99850464zm24.846558 -32.11554l-1.0481262 -3.9088135l3.395935 -0.9095459l1.0480957 3.908783l-3.3959045 0.9095764zm6.369568 23.754608l-5.3740845 -20.042023l3.395935 -0.9095764l5.374054 20.042023l-3.3959045 0.9095764zm5.608185 -7.907715l3.2089844 -1.4256592q0.8250122 1.9304199 2.399231 2.6734314q1.5853271 0.72384644 3.909668 0.10131836q2.3394165 -0.6265869 3.2164307 -1.8805847q0.87701416 -1.2539673 0.53308105 -2.5367737q-0.31158447 -1.1620789 -1.4817505 -1.54422q-0.8156738 -0.2668152 -3.78302 -0.2322998q-3.9939575 0.06686401 -5.625 -0.22421265q-1.6199341 -0.31018066 -2.7023926 -1.3305054q-1.0673218 -1.024353 -1.4598999 -2.4882507q-0.36010742 -1.3431702 -0.044799805 -2.640808q0.31121826 -1.3127441 1.1654053 -2.3503113q0.62701416 -0.7987976 1.8760986 -1.5700989q1.2642212 -0.7753296 2.8339233 -1.1957703q2.3544922 -0.63061523 4.317566 -0.4284973q1.9781494 0.19805908 3.1349487 1.1337585q1.1567993 0.93569946 1.9957886 2.797638l-3.1990356 1.3421326q-0.6431885 -1.4938354 -1.9605713 -2.0630188q-1.3063354 -0.58828735 -3.298584 -0.0546875q-2.3394165 0.6265869 -3.125122 1.6781616q-0.7897339 1.036499 -0.5105591 2.0778503q0.17401123 0.6489258 0.72320557 1.0679932q0.57232666 0.44522095 1.5558472 0.553833q0.5507202 0.06277466 3.2231445 0.07489014q3.866211 -2.746582E-4 5.4508667 0.23849487q1.5957031 0.21963501 2.7113037 1.1825562q1.1265869 0.9437866 1.59198 2.6793518q0.45324707 1.6902771 -0.13824463 3.466278q-0.5803833 1.7568665 -2.22937 3.0881653q-1.6378784 1.3121948 -4.0075073 1.9468689q-3.893982 1.0429688 -6.3796387 -0.022064209q-2.489685 -1.0801392 -3.9019775 -4.1149597zm22.279907 0.43814087l-7.4176636 -27.663391l3.395874 -0.9095764l2.6627808 9.93045q1.6290283 -3.3964844 5.251343 -4.366699q2.2337646 -0.5982971 4.1026 -0.14447021q1.8798218 0.43469238 3.0060425 1.7991638q1.1221313 1.3493652 1.9112549 4.2922974l3.4033203 12.692261l-3.395935 0.9095764l-3.4033203 -12.692261q-0.6838989 -2.550537 -2.09729 -3.417511q-1.4133911 -0.8669739 -3.435852 -0.32528687q-1.5092773 0.40426636 -2.6270752 1.5447998q-1.1177368 1.1405029 -1.3311157 2.6372986q-0.20233154 1.4776611 0.43304443 3.8470764l2.9379272 10.956696l-3.395935 0.9095764zm21.413208 -5.735321l-7.4177246 -27.663391l3.395935 -0.9095764l7.4176636 27.663391l-3.395874 0.9095764zm2.3051147 -26.078033l-1.0480957 -3.9088135l3.395935 -0.9095764l1.0480957 3.9088135l-3.395935 0.9095764zm6.369568 23.754578l-5.3740845 -20.041992l3.395935 -0.9095764l5.3740845 20.042023l-3.395935 0.9095459zm5.6081543 -7.9076843l3.2090454 -1.4256592q0.8249512 1.9304199 2.399231 2.6734314q1.5853271 0.72384644 3.909668 0.10131836q2.3393555 -0.62661743 3.2164307 -1.8805847q0.87701416 -1.2539673 0.53302 -2.5367737q-0.31158447 -1.1620789 -1.4817505 -1.54422q-0.8156738 -0.2668152 -3.782959 -0.2322998q-3.9939575 0.06686401 -5.625 -0.22421265q-1.6199951 -0.31018066 -2.7023926 -1.3305054q-1.0673828 -1.024353 -1.4598999 -2.4882507q-0.36016846 -1.3431702 -0.04486084 -2.640808q0.3112793 -1.3127441 1.1654663 -2.3503113q0.62701416 -0.7987976 1.8760986 -1.5700989q1.2642212 -0.7753296 2.8338623 -1.1957703q2.3544922 -0.63061523 4.317566 -0.4284973q1.9782104 0.19805908 3.1350098 1.1337585q1.1567993 0.93569946 1.9957886 2.797638l-3.1990356 1.3421326q-0.6432495 -1.4938354 -1.9605713 -2.0630188q-1.3063354 -0.5883179 -3.298584 -0.0546875q-2.3394165 0.6265869 -3.125183 1.6781616q-0.7897339 1.036499 -0.51049805 2.0778503q0.17401123 0.6489258 0.72314453 1.0679932q0.57232666 0.44522095 1.5559082 0.553833q0.5506592 0.06277466 3.2231445 0.07489014q3.866211 -2.746582E-4 5.4508667 0.23849487q1.5957031 0.21963501 2.7112427 1.1825562q1.126648 0.9437866 1.592041 2.6793518q0.45318604 1.6902771 -0.13824463 3.466278q-0.58044434 1.7568359 -2.22937 3.0881653q-1.6379395 1.3121948 -4.0075073 1.9468689q-3.894043 1.0429688 -6.3796387 -0.022064209q-2.489746 -1.0801392 -3.9020386 -4.1149597zm28.877197 -4.5802l1.2993164 2.8547668q-1.3488159 0.70098877 -2.480835 1.0041809q-1.8564453 0.4972229 -3.0405884 0.18353271q-1.1690063 -0.31774902 -1.8465576 -1.1553345q-0.6624756 -0.8416443 -1.4839478 -3.905304l-3.0917358 -11.530182l-2.4903564 0.6670227l-0.7081909 -2.6410828l2.4903564 -0.6670227l-1.3273315 -4.9501343l2.8345337 -2.9429016l1.8736572 6.9875183l3.4110107 -0.91360474l0.7081909 2.6410828l-3.4110107 0.91360474l3.144287 11.726379q0.38848877 1.448822 0.68292236 1.822876q0.29040527 0.35897827 0.7475586 0.4953308q0.472229 0.13232422 1.2268677 -0.0697937q0.57354736 -0.15362549 1.461853 -0.52093506z" fill-rule="nonzero"/><path fill="#000000" fill-opacity="0.0" d="m568.8876 819.5486l271.87402 -72.81891l17.574768 65.543335l-271.87402 72.81885z" fill-rule="evenodd"/><path fill="#000000" d="m631.54004 860.0719l-7.433899 -27.723755l3.0940552 -0.82873535l0.7001343 2.6109009q0.6779785 -1.8153076 1.8450317 -2.9528809q1.18219 -1.1416016 3.144287 -1.6671143q2.565796 -0.68725586 4.883972 0.11529541q2.314148 0.7874756 3.9577637 2.9353638q1.6395874 2.1328125 2.4084473 5.000305q0.8255615 3.0787354 0.38336182 5.8338013q-0.44213867 2.755066 -2.203125 4.634033q-1.7458496 1.8748779 -4.0550537 2.4934082q-1.7055054 0.4567871 -3.2540894 0.11126709q-1.5375366 -0.36462402 -2.6932373 -1.2359009l2.618225 9.764465l-3.395874 0.9095459zm-1.635498 -18.406677q1.0359497 3.8635254 3.0883179 5.303406q2.0633545 1.4208374 4.297119 0.82250977q2.263916 -0.6063843 3.3498535 -2.951538q1.1010132 -2.3492432 0.024597168 -6.3636475q-1.0278931 -3.833374 -3.1074219 -5.314514q-2.0795898 -1.4811401 -4.2680664 -0.8949585q-2.1734009 0.5820923 -3.3064575 3.0531616q-1.117981 2.46698 -0.077941895 6.345581zm20.988892 4.989624l-7.4176636 -27.663391l3.395874 -0.90960693l7.4177246 27.663391l-3.395935 0.90960693zm5.6987305 -7.931946l3.2089844 -1.4256592q0.8250122 1.9304199 2.399292 2.6734009q1.5852661 0.72387695 3.909607 0.10131836q2.3394165 -0.6265869 3.2164307 -1.8805542q0.8770752 -1.2539673 0.53308105 -2.5368042q-0.31158447 -1.1620483 -1.4817505 -1.5441895q-0.8156738 -0.2668457 -3.782959 -0.2322998q-3.9940186 0.066833496 -5.625 -0.22424316q-1.6199951 -0.31018066 -2.7024536 -1.3305054q-1.0673218 -1.024353 -1.4598389 -2.4882812q-0.36016846 -1.3431396 -0.04486084 -2.640808q0.31121826 -1.3126831 1.1654053 -2.3502808q0.62701416 -0.7987671 1.8761597 -1.5700684q1.2641602 -0.7753906 2.8338623 -1.1958008q2.3544922 -0.63061523 4.317566 -0.42852783q1.9781494 0.19812012 3.1350098 1.1337891q1.1567993 0.93566895 1.9957886 2.7976685l-3.1990967 1.342102q-0.6431885 -1.4938354 -1.9605713 -2.0629883q-1.3062744 -0.5883179 -3.298584 -0.0546875q-2.3394165 0.6265869 -3.125122 1.6781616q-0.7897339 1.036499 -0.51049805 2.0778198q0.17401123 0.6489258 0.72314453 1.0679932q0.57232666 0.44525146 1.5559082 0.553833q0.5506592 0.062805176 3.2230835 0.07489014q3.866211 -2.4414062E-4 5.4508667 0.23852539q1.5957031 0.21960449 2.7113037 1.1825562q1.126648 0.9437256 1.59198 2.6793213q0.45324707 1.6903076 -0.1381836 3.4662476q-0.58044434 1.756897 -2.2294312 3.0881958q-1.6378784 1.3121948 -4.0075073 1.9468994q-3.893982 1.0429688 -6.3796387 -0.022094727q-2.489685 -1.0801392 -3.9019775 -4.114929zm36.712585 -3.4275513l-11.501831 -18.400757l3.501587 -0.9378662l6.288452 10.722534l2.3457031 3.9818115q-0.01361084 -0.3522339 -0.06738281 -4.4141235l0.036254883 -12.594421l3.4864502 -0.9338379l6.119507 10.816284l2.0239868 3.5665283l0.1262207 -4.1748047l0.3182373 -12.508179l3.305359 -0.88531494l-0.88952637 21.719604l-3.5317993 0.9459839l-6.4017334 -11.145081l-1.6843262 -3.2045898l0.07171631 16.496216l-3.546875 0.9500122zm24.160095 -6.4710693l-5.3740234 -20.041992l3.0638428 -0.8206177l0.81744385 3.048523q0.5875244 -2.4542847 1.4015503 -3.4002686q0.8140869 -0.94592285 1.991333 -1.2612305q1.720581 -0.46081543 3.796997 0.16381836l-0.33154297 3.4695435q-1.4359131 -0.40802002 -2.6885986 -0.072509766q-1.1168823 0.29919434 -1.8252563 1.2167969q-0.69732666 0.89849854 -0.7590332 2.1767578q-0.08795166 1.9646606 0.4907837 4.1228027l2.812439 10.488831l-3.395935 0.9095459zm6.557617 -27.21698l-1.0480957 -3.9088135l3.395935 -0.90960693l1.0480957 3.9088135l-3.395935 0.90960693zm6.369568 23.754578l-5.3740845 -20.041992l3.395935 -0.90960693l5.3740845 20.042053l-3.395935 0.9095459zm15.166321 -7.3134766l1.2993164 2.8547974q-1.348877 0.70092773 -2.480835 1.0041504q-1.8564453 0.49719238 -3.0405884 0.18353271q-1.1690674 -0.31774902 -1.8466187 -1.1553345q-0.66241455 -0.84161377 -1.4838867 -3.9052734l-3.0917358 -11.530212l-2.4903564 0.6669922l-0.7081909 -2.6410522l2.4903564 -0.6669922l-1.3273315 -4.9501343l2.8345337 -2.9429321l1.8736572 6.987549l3.4110107 -0.91363525l0.7081909 2.6410522l-3.4110107 0.91363525l3.144287 11.726379q0.38848877 1.4487915 0.68292236 1.822876q0.29034424 0.35894775 0.7475586 0.49536133q0.472229 0.13232422 1.2268677 -0.06982422q0.57354736 -0.15362549 1.461853 -0.52093506zm16.125183 -7.990906l3.6188965 -0.5001831q-0.0045776367 3.3010864 -1.7961426 5.6088257q-1.7805176 2.2885742 -5.2821045 3.2264404q-4.39209 1.1763306 -7.6973267 -0.83380127q-3.2942505 -2.0292969 -4.6053467 -6.9190674q-1.3557129 -5.055786 0.49163818 -8.543091q1.8624878 -3.491394 6.0130615 -4.6030884q4.0147095 -1.0752563 7.301941 0.98828125q3.2832031 2.0484009 4.614563 7.013672q0.08093262 0.30181885 0.21258545 0.9135742l-14.942017 4.002075q1.0783691 3.2374878 3.2271729 4.5545044q2.1447144 1.3019409 4.665283 0.62683105q1.8564453 -0.49719238 2.9064941 -1.829895q1.0651245 -1.336731 1.2713013 -3.7050781zm-12.622742 -2.4909058l11.18396 -2.9954834q-0.90625 -2.4747925 -2.3027344 -3.4595337q-2.1409912 -1.529419 -4.7369995 -0.83410645q-2.3394165 0.6265869 -3.5184326 2.6246338q-1.1638794 1.9940186 -0.62579346 4.6644897zm24.085938 6.343811l-1.0359497 -3.8634644l3.8637695 -1.0349121l1.0360107 3.8635254l-3.8638306 1.0348511zm12.889404 -3.4522705l-1.0359497 -3.8635254l3.8638306 -1.0349121l1.0359497 3.8635254l-3.8638306 1.0349121zm12.859253 -3.4442139l-1.0359497 -3.8635254l3.893982 -1.0429688l1.0359497 3.8635254l-3.893982 1.0429688z" fill-rule="nonzero"/><path fill="#000000" fill-opacity="0.0" d="m433.95056 562.09186l271.87402 -72.81888l17.574768 65.543304l-271.874 72.81891z" fill-rule="evenodd"/><path fill="#000000" d="m512.7397 590.0597l-7.417633 -27.663391l3.6524963 -0.9782715l7.4176636 27.663391l-3.6525269 0.9782715zm20.782227 -13.427734l3.4488525 -0.4708252q0.38336182 3.6015625 -1.3544922 6.169922q-1.7268066 2.5491333 -5.002014 3.4263916q-4.1203613 1.1035767 -7.3461304 -0.9116821q-3.2106934 -2.0193481 -4.5582275 -7.044922q-0.87005615 -3.244751 -0.4500122 -5.961609q0.43518066 -2.7208252 2.2958984 -4.529419q1.8757935 -1.8126831 4.456665 -2.5039062q3.2601318 -0.87323 5.7730103 0.23309326q2.5239258 1.0870972 3.9259644 3.9629517l-3.1677856 1.3984375q-1.0101929 -1.8970337 -2.4887085 -2.5847778q-1.4675293 -0.7069092 -3.157959 -0.25408936q-2.565796 0.6871948 -3.6870728 2.9609375q-1.1061401 2.2697144 -0.037841797 6.2539673q1.0805054 4.029541 3.1137085 5.458435q2.0442505 1.409729 4.534546 0.7427368q2.0073853 -0.5376587 3.0078125 -2.1158447q1.0114136 -1.5973511 0.6937866 -4.2297974zm20.202759 -4.4729004l3.6189575 -0.50024414q-0.0045776367 3.3010864 -1.7962036 5.6088257q-1.7805176 2.2885742 -5.2821045 3.2264404q-4.392029 1.1763916 -7.6973267 -0.83380127q-3.2941895 -2.0292969 -4.6053467 -6.9190674q-1.3556519 -5.055786 0.49169922 -8.543091q1.8624268 -3.491333 6.0130005 -4.6030273q4.0147705 -1.0753174 7.302002 0.9882202q3.283142 2.0484009 4.614502 7.013672q0.08093262 0.30181885 0.21264648 0.9135742l-14.942078 4.002075q1.0783691 3.2374878 3.2271729 4.5545044q2.1447754 1.3019409 4.665283 0.6268921q1.8564453 -0.49725342 2.9064941 -1.829956q1.0651245 -1.3366699 1.2713013 -3.705017zm-12.622681 -2.4909668l11.183899 -2.9954834q-0.90625 -2.4747925 -2.3026733 -3.4595337q-2.1410522 -1.529419 -4.7369995 -0.83410645q-2.3394165 0.6265869 -3.5184326 2.6246948q-1.1639404 1.9940186 -0.62579346 4.6644287zm29.897827 -1.6184082l3.2089844 -1.4256592q0.8250122 1.9304199 2.399292 2.6734009q1.5853271 0.72387695 3.909607 0.10131836q2.3394165 -0.6265869 3.2164917 -1.8805542q0.87701416 -1.2539673 0.53302 -2.5368042q-0.31158447 -1.1620483 -1.4817505 -1.5441895q-0.8156738 -0.26678467 -3.782959 -0.2322998q-3.9939575 0.066833496 -5.625 -0.22418213q-1.6199951 -0.3102417 -2.7024536 -1.3305054q-1.0673218 -1.0244141 -1.4598389 -2.4882812q-0.36016846 -1.3432007 -0.04486084 -2.640808q0.3112793 -1.3127441 1.1654053 -2.3503418q0.62701416 -0.7987671 1.8761597 -1.5700684q1.2641602 -0.7753296 2.8338623 -1.1958008q2.3544922 -0.63061523 4.317566 -0.4284668q1.9782104 0.19805908 3.1350098 1.133728q1.1567993 0.93573 1.9957886 2.7976685l-3.1990967 1.342102q-0.6431885 -1.4938354 -1.9605713 -2.0629883q-1.3062744 -0.5883179 -3.298584 -0.0546875q-2.3394165 0.6265869 -3.125122 1.6781616q-0.7897339 1.036499 -0.51049805 2.0778198q0.17401123 0.6489868 0.72314453 1.0680542q0.57232666 0.44519043 1.5559082 0.553772q0.5506592 0.062805176 3.2231445 0.07495117q3.866211 -3.0517578E-4 5.4508667 0.23846436q1.5957031 0.21960449 2.7112427 1.1825562q1.126648 0.9437866 1.592041 2.6793213q0.45318604 1.6903076 -0.13824463 3.4663086q-0.58044434 1.7568359 -2.22937 3.0881958q-1.6379395 1.3121338 -4.0075684 1.9468384q-3.893982 1.0429688 -6.3796387 -0.022094727q-2.489685 -1.0801392 -3.9019775 -4.114929zm18.325073 -9.243286q-1.4932251 -5.5689087 0.8845215 -9.068909q1.9819946 -2.9248657 5.709961 -3.9233398q4.1204224 -1.1036377 7.4750366 0.90948486q3.350525 1.9980469 4.6292725 6.76709q1.0400391 3.878601 0.4727173 6.408386q-0.57128906 2.5147095 -2.45813 4.3464966q-1.8909302 1.8167114 -4.502014 2.5160522q-4.2109375 1.1278687 -7.531311 -0.8782959q-3.3203735 -2.0061035 -4.6800537 -7.0769653zm3.4865112 -0.9338379q1.0319214 3.8484497 3.2211304 5.316345q2.2043457 1.4639282 4.755066 0.7807617q2.5205688 -0.67510986 3.6819458 -3.0405273q1.1724243 -2.3845215 0.11621094 -6.3234863q-0.9995117 -3.7276611 -3.199829 -5.1765137q-2.2043457 -1.4638672 -4.709778 -0.7928467q-2.5507202 0.68322754 -3.7312622 3.0375366q-1.1654053 2.3502808 -0.13348389 6.1987305zm35.08789 1.3427124l-0.78912354 -2.9429321q-1.428894 4.022278 -5.4436035 5.097595q-1.7810059 0.47705078 -3.5025635 0.21020508q-1.7216187 -0.26678467 -2.7363281 -1.0949707q-1.0147095 -0.828125 -1.7172241 -2.241394q-0.47839355 -0.9394531 -1.0610962 -3.112671l-3.3305054 -12.420593l3.395935 -0.90960693l2.982483 11.122742q0.71221924 2.656128 1.1703491 3.5201416q0.677124 1.2583008 1.9098511 1.7531128q1.2437134 0.47564697 2.7832031 0.06329346q1.5244141 -0.40826416 2.6421509 -1.5488281q1.1328735 -1.1445312 1.3311157 -2.637268q0.19830322 -1.4927979 -0.48962402 -4.0584106l-2.8812866 -10.745361l3.395935 -0.90960693l5.3740234 20.041992l-3.0336914 0.81256104zm10.4175415 5.4432373l-7.433838 -27.723755l3.0940552 -0.82873535l0.70007324 2.6109009q0.6779785 -1.8153687 1.8450928 -2.9528809q1.1821289 -1.1416016 3.144226 -1.6671753q2.565796 -0.6871948 4.884033 0.115356445q2.314148 0.7874756 3.9577637 2.9353638q1.6395874 2.1328125 2.4084473 5.000244q0.8255615 3.0787354 0.38336182 5.8338013q-0.44213867 2.755127 -2.203125 4.634033q-1.7458496 1.874939 -4.0550537 2.4934082q-1.7055054 0.45684814 -3.2540894 0.111328125q-1.5375366 -0.36462402 -2.6932373 -1.2359009l2.618225 9.764465l-3.395935 0.9095459zm-1.635437 -18.406738q1.0359497 3.8635254 3.0882568 5.303467q2.0634155 1.4207764 4.297119 0.82250977q2.263977 -0.6063843 3.3499146 -2.951538q1.1010132 -2.3492432 0.024597168 -6.3637085q-1.0278931 -3.833313 -3.107483 -5.314453q-2.0795288 -1.4811401 -4.2680054 -0.89501953q-2.1734009 0.5821533 -3.3064575 3.0531616q-1.117981 2.46698 -0.077941895 6.345581z" fill-rule="nonzero"/><path fill="#000000" fill-opacity="0.0" d="m480.51462 629.49115l271.87405 -72.81891l17.574768 65.543335l-271.874 72.81891z" fill-rule="evenodd"/><path fill="#000000" d="m543.229 652.23694l3.3753662 -1.2276001q0.7999878 2.0180054 2.0465698 3.107605q1.2616577 1.0855103 3.3708496 1.4102783q2.1051636 0.30963135 4.459717 -0.3209839q2.0979004 -0.5619507 3.5318604 -1.6091919q1.4298706 -1.0623779 1.9233398 -2.359192q0.49346924 -1.296814 0.1494751 -2.5796509q-0.34796143 -1.2979126 -1.3616333 -2.0616455q-1.0177002 -0.7788696 -2.9273682 -0.9628906q-1.2342529 -0.1385498 -5.2955933 -0.02130127q-4.050293 0.09814453 -5.793213 -0.3085327q-2.2564087 -0.5117798 -3.6502075 -1.7883911q-1.3787231 -1.2806396 -1.8886108 -3.182251q-0.5625 -2.0977173 0.14422607 -4.2281494q0.70269775 -2.1454468 2.730835 -3.6915894q2.024109 -1.5611572 4.816345 -2.309021q3.0789185 -0.82470703 5.685425 -0.4552002q2.6175537 0.35028076 4.4033813 1.9425049q1.7817383 1.5770874 2.527832 3.9977417l-3.447876 1.1984253q-0.97576904 -2.5532227 -2.9770508 -3.4406738q-1.9901733 -0.9065552 -5.1748047 -0.053588867q-3.3204346 0.88934326 -4.51709 2.5200806q-1.1855469 1.6116333 -0.7241821 3.3320923q0.40057373 1.4940796 1.7271729 2.157837q1.3154907 0.68292236 6.0390625 0.5015259q4.7386475 -0.1854248 6.6011963 0.12451172q2.7143555 0.4699707 4.3187256 1.868103q1.6193848 1.394104 2.2142944 3.6126099q0.59484863 2.2185059 -0.15093994 4.504944q-0.7457886 2.286438 -2.8239746 4.0077515q-2.0631714 1.7172241 -5.036499 2.5136108q-3.743042 1.0025024 -6.585144 0.5991211q-2.8310547 -0.42260742 -4.8667603 -2.2228394q-2.0246582 -1.8193359 -2.8447266 -4.57605zm40.07373 -9.067261l3.4488525 -0.4708252q0.38336182 3.6015625 -1.3545532 6.169922q-1.7268066 2.5491333 -5.002014 3.4263916q-4.1203613 1.1035767 -7.3461304 -0.9116821q-3.2106323 -2.0193481 -4.5582275 -7.044922q-0.87005615 -3.244751 -0.44995117 -5.961609q0.43518066 -2.7208252 2.2958374 -4.529419q1.8757935 -1.8126831 4.456726 -2.5039062q3.2600708 -0.87323 5.772949 0.23309326q2.5239258 1.0870972 3.9259644 3.9629517l-3.1677856 1.3984375q-1.0101318 -1.8970337 -2.4887085 -2.5847778q-1.4675293 -0.70684814 -3.157959 -0.25408936q-2.565796 0.6871948 -3.6870728 2.9609375q-1.1061401 2.2697144 -0.03778076 6.2539673q1.0804443 4.029541 3.1136475 5.458435q2.0442505 1.409729 4.534607 0.7427368q2.0073242 -0.5376587 3.0077515 -2.1158447q1.0114136 -1.5973511 0.69384766 -4.2297974zm4.260315 -4.0203857q-1.4932251 -5.5689087 0.8845825 -9.068848q1.9819946 -2.9248657 5.709961 -3.9234009q4.1203613 -1.1035767 7.4749756 0.9095459q3.350525 1.9980469 4.6293335 6.76709q1.039978 3.878601 0.4727173 6.408386q-0.5713501 2.5146484 -2.458191 4.3464355q-1.8908691 1.8167114 -4.501953 2.5160522q-4.2109985 1.1278687 -7.531311 -0.87823486q-3.3203735 -2.0061646 -4.6801147 -7.0770264zm3.4865112 -0.9338379q1.0319214 3.8484497 3.2211914 5.3164062q2.2043457 1.4638672 4.755066 0.7807007q2.5205078 -0.67510986 3.6818848 -3.0404663q1.1724243 -2.3845215 0.11627197 -6.3234863q-0.99957275 -3.7277222 -3.1998901 -5.1765137q-2.2043457 -1.4639282 -4.709778 -0.7928467q-2.5507202 0.6831665 -3.7312622 3.0375366q-1.1654053 2.3502808 -0.13348389 6.1986694zm21.88153 4.879944l-7.4176636 -27.663391l3.395935 -0.9095459l7.4176636 27.663391l-3.395935 0.9095459zm2.3051758 -26.078003l-1.0480957 -3.9088135l3.395874 -0.90960693l1.0481567 3.9088135l-3.395935 0.90960693zm6.369568 23.754578l-5.3740845 -20.041992l3.395935 -0.90960693l5.3740845 20.042053l-3.395935 0.9095459zm10.628845 5.3865967l-7.433899 -27.723755l3.0940552 -0.82873535l0.7001343 2.6109009q0.6779785 -1.8153076 1.8450317 -2.9528809q1.18219 -1.1416016 3.144287 -1.6671143q2.565796 -0.68725586 4.883972 0.115356445q2.314148 0.78741455 3.9577637 2.9353027q1.6395874 2.1328125 2.4085083 5.000305q0.8255005 3.0787354 0.38336182 5.8338013q-0.4421997 2.755066 -2.203125 4.634033q-1.7459106 1.8748779 -4.0551147 2.4934082q-1.7055054 0.4567871 -3.2540894 0.111328125q-1.5375366 -0.36462402 -2.6932373 -1.2359619l2.6182861 9.764465l-3.395935 0.9095459zm-1.635498 -18.406677q1.0359497 3.8635254 3.0883179 5.303406q2.0633545 1.4208374 4.297119 0.82250977q2.263916 -0.6063843 3.3498535 -2.951538q1.1010132 -2.3492432 0.024597168 -6.3636475q-1.0278931 -3.833313 -3.1074219 -5.314514q-2.0795898 -1.4811401 -4.2680664 -0.8949585q-2.1734009 0.5820923 -3.3064575 3.0531616q-1.117981 2.46698 -0.077941895 6.345581zm33.05188 -5.164551l3.6189575 -0.50024414q-0.0045776367 3.3010864 -1.7962036 5.6088257q-1.7805176 2.2885742 -5.2821045 3.2264404q-4.392029 1.1763916 -7.6973267 -0.83380127q-3.2941895 -2.0292969 -4.6053467 -6.9190674q-1.3556519 -5.055786 0.49169922 -8.543091q1.8624268 -3.491333 6.0130005 -4.6030273q4.0147705 -1.0753174 7.301941 0.9882202q3.2832031 2.048462 4.614563 7.013672q0.08093262 0.30181885 0.21264648 0.9135742l-14.942078 4.002075q1.0783691 3.2374878 3.2271729 4.5545044q2.1447754 1.3019409 4.665283 0.6268921q1.8564453 -0.49725342 2.9064941 -1.829956q1.0651245 -1.3366699 1.2713013 -3.705017zm-12.622681 -2.4909668l11.183899 -2.9954834q-0.90625 -2.4747925 -2.3026733 -3.4595337q-2.1410522 -1.529419 -4.7370605 -0.83410645q-2.3393555 0.6265869 -3.5183716 2.6246948q-1.1639404 1.9940186 -0.62579346 4.6644287zm35.118896 3.388794l-0.6798706 -2.5354614q-1.1004639 3.4975586 -4.798218 4.487976q-2.3998413 0.64276123 -4.7592773 -0.13256836q-2.3634644 -0.7904663 -4.100586 -2.864746q-1.7371216 -2.0743408 -2.562683 -5.153076q-0.8012085 -2.9882202 -0.46063232 -5.69989q0.34051514 -2.71167 1.9848022 -4.543213q1.6552734 -1.850647 4.130554 -2.5136108q1.8111572 -0.48510742 3.4212036 -0.09136963q1.6251221 0.38970947 2.8433838 1.3736572l-2.6627808 -9.930481l3.3808594 -0.9055176l7.4176636 27.663391l-3.154419 0.84490967zm-13.414124 -7.131714q1.0319214 3.8484497 3.1608276 5.3325806q2.1398926 1.4649658 4.343506 0.87475586q2.2337646 -0.5982666 3.3027344 -2.8256836q1.0648804 -2.2424927 0.061340332 -5.9852905q-1.100769 -4.1049805 -3.199463 -5.597168q-2.1027222 -1.5073242 -4.427063 -0.8847656q-2.263916 0.6063843 -3.2905884 2.8709717q-1.015564 2.2454834 0.048706055 6.2145996zm33.895203 -5.2772217l3.6189575 -0.5001831q-0.0045776367 3.3010864 -1.7961426 5.6088257q-1.7805176 2.2885742 -5.2821045 3.2264404q-4.39209 1.1763306 -7.6973267 -0.83380127q-3.2942505 -2.029358 -4.6054077 -6.9190674q-1.3556519 -5.055786 0.49169922 -8.543091q1.8624268 -3.491394 6.0130005 -4.6030884q4.0147705 -1.0753174 7.302002 0.9882202q3.283142 2.048462 4.614563 7.013672q0.08093262 0.30187988 0.21258545 0.91363525l-14.942078 4.002075q1.0784302 3.2374878 3.227234 4.5545044q2.1447144 1.3019409 4.665222 0.62683105q1.8564453 -0.49719238 2.9064941 -1.829895q1.0651855 -1.336731 1.2713013 -3.7050781zm-12.622681 -2.4909058l11.183899 -2.9954834q-0.90625 -2.4747925 -2.3026733 -3.4595337q-2.1409912 -1.529419 -4.7369995 -0.83410645q-2.3394165 0.6265869 -3.5184326 2.6246338q-1.1638794 1.9940186 -0.62579346 4.6644897z" fill-rule="nonzero"/><path fill="#000000" fill-opacity="0.0" d="m531.34424 700.45276l271.87402 -72.81891l17.57483 65.543335l-271.87402 72.81891z" fill-rule="evenodd"/><path fill="#000000" d="m574.44226 737.98016l-7.4176636 -27.663452l9.523682 -2.5507812q3.2298584 -0.8651123 5.029541 -0.9104004q2.5303955 -0.09539795 4.590149 0.8895874q2.68219 1.2550659 4.541809 3.8465576q1.8596191 2.5914917 2.8510742 6.2890015q0.84173584 3.1390991 0.75775146 5.7820435q-0.088012695 2.6278687 -0.80615234 4.534851q-0.72216797 1.8918457 -1.8487549 3.180359q-1.1306763 1.2733765 -2.9331055 2.2737427q-1.8064575 0.9852905 -4.3118896 1.6563721l-9.97644 2.6721191zm2.7783813 -4.238159l5.901367 -1.5806274q2.7469482 -0.7357178 4.1639404 -1.6652222q1.4169922 -0.9295044 2.0908203 -2.0967407q0.9499512 -1.6455078 1.0836182 -4.0429688q0.14868164 -2.4014893 -0.68896484 -5.5255127q-1.1654663 -4.3464966 -3.2224731 -6.286621q-2.0419922 -1.9440918 -4.2940063 -2.1982422q-1.6288452 -0.16223145 -4.888916 0.7109375l-5.810791 1.5563965l5.6654053 21.128601zm18.332642 -26.876892l-1.0481567 -3.9088135l3.395935 -0.9095459l1.0480957 3.9088135l-3.395874 0.9095459zm6.369568 23.754578l-5.3740845 -20.041992l3.395935 -0.9095459l5.3740234 20.041992l-3.395874 0.9095459zm8.395325 -0.46923828l3.4238281 -0.38323975q0.62005615 1.4676514 1.757019 1.9072266q1.5076904 0.6152344 3.696167 0.029052734q2.369629 -0.63464355 3.397583 -1.9290771q1.0319824 -1.2792969 1.0275269 -3.105957q-0.022644043 -1.1100464 -0.92803955 -4.4262085q-1.5296631 3.2242432 -4.8500977 4.1136475q-4.1203613 1.1035767 -7.1815186 -1.2631226q-3.0652466 -2.381836 -4.182129 -6.54718q-0.76885986 -2.8674316 -0.394104 -5.5721436q0.38989258 -2.7087402 1.999939 -4.547241q1.6210938 -1.857666 4.2925415 -2.5731812q3.546814 -0.9500122 6.6098633 1.3029785l-0.64746094 -2.4146729l3.1393433 -0.8408203l4.64563 17.32544q1.2545166 4.678467 0.8105469 6.884033q-0.42474365 2.2166138 -2.1889648 3.9023438q-1.7491455 1.6817017 -4.767761 2.4901733q-3.592163 0.9621582 -6.2286987 -0.0625q-2.6365967 -1.0245972 -3.4312134 -4.289551zm-0.42199707 -12.795227q1.0602417 3.9540405 3.1004639 5.348694q2.0552979 1.390625 4.4248657 0.7559204q2.3394165 -0.6265869 3.442627 -2.8469849q1.0991821 -2.2354736 0.06726074 -6.0839233q-0.98742676 -3.682373 -3.13031 -5.0980835q-2.131836 -1.4347534 -4.4259644 -0.8203125q-2.263977 0.6063843 -3.3550415 2.8720703q-1.0950928 2.2505493 -0.12390137 5.8726196zm15.729858 -18.5448l-1.0480957 -3.9088135l3.395935 -0.9095459l1.0480957 3.9087524l-3.395935 0.90960693zm6.369568 23.754578l-5.3740234 -20.041992l3.395874 -0.90960693l5.3740845 20.042053l-3.395935 0.9095459zm15.166321 -7.3134766l1.2993164 2.8547974q-1.3488159 0.70092773 -2.480774 1.0041504q-1.8564453 0.49719238 -3.0405884 0.18353271q-1.1690674 -0.31774902 -1.8466187 -1.1553345q-0.6624756 -0.84161377 -1.4839478 -3.9052734l-3.0917358 -11.530212l-2.4902954 0.6669922l-0.7081909 -2.6410522l2.4903564 -0.6669922l-1.3273315 -4.9501343l2.8344727 -2.9429321l1.8736572 6.987549l3.4110107 -0.91363525l0.7081909 2.6410522l-3.4110107 0.91363525l3.144287 11.726379q0.38848877 1.4488525 0.68292236 1.822876q0.29040527 0.3590088 0.7475586 0.49536133q0.472229 0.13232422 1.2269287 -0.06982422q0.5734863 -0.15362549 1.461792 -0.52093506zm16.544495 -3.8327637q-1.4576416 2.1050415 -3.0303955 3.237976q-1.5576172 1.1289673 -3.5650024 1.666626q-3.2902832 0.8812256 -5.5042114 -0.25653076q-2.1989136 -1.1419067 -2.8706665 -3.6471558q-0.39660645 -1.4790039 -0.05621338 -2.8641968q0.3363037 -1.4003296 1.2287598 -2.4157715q0.8883667 -1.0305786 2.1455688 -1.7717285q0.92333984 -0.53845215 2.8810425 -1.3215942q3.9868164 -1.6016235 5.7366333 -2.7982178q-0.15594482 -0.70233154 -0.20452881 -0.88342285q-0.55841064 -2.0827026 -1.7509766 -2.6691284q-1.6055908 -0.7993164 -4.1713867 -0.11206055q-2.3997803 0.64276123 -3.3202515 1.795105q-0.9093628 1.1332397 -0.8972168 3.4107666l-3.4418945 0.4366455q-0.11779785 -2.2492676 0.5715332 -3.8411865q0.6893921 -1.591919 2.4612427 -2.8267822q1.7719116 -1.2348022 4.352844 -1.9260864q2.565796 -0.68725586 4.3275146 -0.51208496q1.7767944 0.17114258 2.7783203 0.8895874q1.0015259 0.71850586 1.6756592 2.026123q0.40075684 0.8308716 1.0077515 3.0946045l1.2139893 4.527588q1.2666626 4.723755 1.8178711 5.9348755q0.5623169 1.1919556 1.5037231 2.1691895l-3.546814 0.9500122q-0.81152344 -0.914978 -1.3428955 -2.2931519zm-2.3181763 -7.4993286q-1.6390381 1.2477417 -5.1951904 2.7664185q-2.0169678 0.8637085 -2.7911987 1.4754639q-0.7591553 0.60772705 -1.0327759 1.4574585q-0.2736206 0.84973145 -0.03491211 1.7401733q0.3642578 1.3582764 1.6333618 1.9888916q1.269104 0.63061523 3.2462769 0.10101318q1.9620972 -0.5255127 3.2558594 -1.7940063q1.3088379 -1.272583 1.6175537 -2.956665q0.23577881 -1.2925415 -0.3671875 -3.5411987l-0.3317871 -1.2375488zm11.324524 7.739868l-7.4176636 -27.663391l3.395935 -0.90960693l7.4176636 27.663452l-3.395935 0.9095459zm22.518738 -6.031433l-3.1393433 0.8408203l-7.4176636 -27.663391l3.395935 -0.9095459l2.6465454 9.870056q1.4188843 -3.2754517 4.7543945 -4.1688843q1.8564453 -0.49719238 3.7039185 -0.18322754q1.8585205 0.2947998 3.2792358 1.3701172q1.4317627 1.0561523 2.5454102 2.7960205q1.1135864 1.7398682 1.6962891 3.913086q1.3799438 5.1463623 -0.41400146 8.651672q-1.7980347 3.4902954 -5.3599854 4.444336q-3.546875 0.9500122 -6.362488 -1.4663086l0.6717529 2.505249zm-2.7576904 -10.163818q0.9672241 3.6069336 2.3771973 4.9439087q2.304016 2.1974487 5.0358276 1.4657593q2.2337646 -0.5982666 3.3307495 -2.9625854q1.1120605 -2.3683472 0.08416748 -6.20166q-1.052124 -3.9238892 -3.1085205 -5.3789062q-2.0563965 -1.4550171 -4.2750244 -0.8607788q-2.218689 0.5942383 -3.3267212 2.9777222q-1.0969849 2.3642578 -0.11767578 6.0165405zm34.25305 1.7280884l-0.78912354 -2.9429321q-1.428894 4.022278 -5.4436646 5.097595q-1.7809448 0.47698975 -3.5025635 0.21020508q-1.7215576 -0.26678467 -2.7363281 -1.0949707q-1.0147095 -0.828125 -1.7172241 -2.241394q-0.47839355 -0.9394531 -1.0610962 -3.112671l-3.3304443 -12.420654l3.395874 -0.9095459l2.982483 11.122681q0.71221924 2.656189 1.1703491 3.5202026q0.677124 1.2583008 1.9098511 1.7530518q1.2437744 0.475708 2.7832031 0.06335449q1.5244141 -0.4083252 2.6421509 -1.5488281q1.1328735 -1.1445312 1.3311768 -2.637329q0.19824219 -1.4927368 -0.48968506 -4.0583496l-2.8812866 -10.745422l3.395935 -0.9095459l5.3740845 20.041992l-3.0336914 0.81256104zm9.1727295 -2.4568481l-4.6658936 -17.40094l-3.003479 0.8045044l-0.7081909 -2.6411133l3.00354 -0.80444336l-0.5706177 -2.1279907q-0.5422363 -2.0222778 -0.45812988 -3.0962524q0.1459961 -1.4463501 1.1651001 -2.5928345q1.0150146 -1.161499 3.2337036 -1.7557983q1.4338379 -0.3840332 3.2625732 -0.50177l0.2800293 3.095459q-1.1091309 0.08673096 -2.0448608 0.33740234q-1.5546265 0.41638184 -2.0255737 1.2542114q-0.45581055 0.8338623 0.029785156 2.6448975l0.49371338 1.8411865l3.9090576 -1.0469971l0.7081909 2.6410522l-3.9090576 1.0469971l4.6658936 17.40094l-3.3657837 0.90148926zm10.036865 -2.6882935l-4.6658936 -17.400879l-3.003479 0.80444336l-0.7081909 -2.6411133l3.003479 -0.80444336l-0.57055664 -2.1279297q-0.54229736 -2.0223389 -0.45819092 -3.0962524q0.1459961 -1.4464111 1.1651001 -2.5928345q1.0150757 -1.16156 3.2337646 -1.7557983q1.4338379 -0.3840332 3.2625732 -0.50183105l0.2800293 3.095459q-1.1091309 0.08679199 -2.0449219 0.33740234q-1.5545654 0.41638184 -2.0255127 1.2542725q-0.45581055 0.83380127 0.029785156 2.6448364l0.49371338 1.8411865l3.9090576 -1.0469971l0.7081909 2.6410522l-3.9091187 1.0470581l4.6658936 17.40094l-3.3657227 0.9014282zm21.90741 -12.790894l3.6189575 -0.5001831q-0.0045776367 3.3010864 -1.7962036 5.6087646q-1.7805176 2.2885742 -5.2821045 3.2264404q-4.392029 1.1763916 -7.6973267 -0.83380127q-3.2941895 -2.0292969 -4.6053467 -6.9190674q-1.3556519 -5.055786 0.49169922 -8.543091q1.8624268 -3.491333 6.0130005 -4.6030273q4.0147705 -1.0753174 7.301941 0.9882202q3.2832031 2.048462 4.614563 7.013672q0.08093262 0.30181885 0.21264648 0.9135742l-14.942078 4.002136q1.0783691 3.2374878 3.2271729 4.5545044q2.1447754 1.3019409 4.665283 0.62683105q1.8564453 -0.49725342 2.9064941 -1.829895q1.0651245 -1.336731 1.2713013 -3.7050781zm-12.622681 -2.4909058l11.183899 -2.9955444q-0.90625 -2.4747925 -2.3026733 -3.4595337q-2.1410522 -1.5293579 -4.7370605 -0.8340454q-2.3394165 0.6265869 -3.5183716 2.6246338q-1.1639404 1.9940186 -0.62579346 4.6644897zm22.078552 6.8814697l-5.3740845 -20.041992l3.0638428 -0.8206177l0.81744385 3.048523q0.5875244 -2.4542847 1.4016113 -3.4002686q0.8140259 -0.94592285 1.991272 -1.2612305q1.720581 -0.46087646 3.796997 0.16381836l-0.33148193 3.4695435q-1.4359131 -0.40802002 -2.6886597 -0.072509766q-1.1168823 0.2991333 -1.8252563 1.2167969q-0.69732666 0.89849854 -0.7590332 2.1767578q-0.087890625 1.9645996 0.4907837 4.1227417l2.812439 10.488892l-3.395874 0.9095459z" fill-rule="nonzero"/><path fill="#000000" fill-opacity="0.0" d="m482.58047 570.7126l192.189 -18.48816" fill-rule="evenodd"/><path stroke="#000000" stroke-width="8.0" stroke-linejoin="round" stroke-linecap="butt" d="m482.58047 570.7126l192.189 -18.48816" fill-rule="evenodd"/><path fill="#000000" fill-opacity="0.0" d="m541.5621 646.69556l178.11023 -45.88977" fill-rule="evenodd"/><path stroke="#000000" stroke-width="8.0" stroke-linejoin="round" stroke-linecap="butt" d="m541.5621 646.69556l178.11023 -45.88977" fill-rule="evenodd"/><path fill="#000000" fill-opacity="0.0" d="m563.10443 723.75757l239.30707 -51.4646" fill-rule="evenodd"/><path stroke="#000000" stroke-width="8.0" stroke-linejoin="round" stroke-linecap="butt" d="m563.10443 723.75757l239.30707 -51.4646" fill-rule="evenodd"/></g></svg>