<svg version="1.1" viewBox="0.0 0.0 960.0 960.0" fill="none" stroke="none" stroke-linecap="square" stroke-miterlimit="10" xmlns:xlink="http://www.w3.org/1999/xlink" xmlns="http://www.w3.org/2000/svg"><clipPath id="p.0"><path d="m0 0l960.0 0l0 960.0l-960.0 0l0 -960.0z" clip-rule="nonzero"/></clipPath><g clip-path="url(#p.0)"><path fill="#000000" fill-opacity="0.0" d="m0 0l960.0 0l0 960.0l-960.0 0z" fill-rule="evenodd"/><path fill="#111122" d="m213.93625 554.18677l0 0c-8.454117 26.21643 121.34787 91.54254 289.9208 145.90997c168.573 54.36743 312.0818 77.188354 320.5359 50.971924l-46.07788 142.88873c-8.454102 26.21643 -151.96289 3.3955078 -320.53586 -50.971924c-168.57297 -54.36743 -298.37494 -119.69354 -289.92084 -145.90997z" fill-rule="evenodd"/><path fill="#70707a" d="m213.93625 554.18677l0 0c8.454102 -26.21643 151.96289 -3.3955078 320.53586 50.971924c168.57294 54.36743 298.37494 119.69354 289.92084 145.90997l0 0c-8.454102 26.21643 -151.96289 3.3955078 -320.5359 -50.971924c-168.57294 -54.36743 -298.37494 -119.69354 -289.9208 -145.90997z" fill-rule="evenodd"/><path fill="#000000" fill-opacity="0.0" d="m824.39294 751.06866l0 0c-8.454102 26.21643 -151.96289 3.3955078 -320.5359 -50.971924c-168.57294 -54.36743 -298.37494 -119.69354 -289.9208 -145.90997l0 0c8.454102 -26.21643 151.96289 -3.3955078 320.53586 50.971924c168.57294 54.36743 298.37494 119.69354 289.92084 145.90997l-46.07788 142.88873c-8.454102 26.21643 -151.96289 3.3955078 -320.53586 -50.971924c-168.57297 -54.36743 -298.37494 -119.69354 -289.92084 -145.90997l46.07788 -142.88873" fill-rule="evenodd"/><path stroke="#111122" stroke-width="5.3858267716535435" stroke-linejoin="round" stroke-linecap="butt" d="m824.39294 751.06866l0 0c-8.454102 26.21643 -151.96289 3.3955078 -320.5359 -50.971924c-168.57294 -54.36743 -298.37494 -119.69354 -289.9208 -145.90997l0 0c8.454102 -26.21643 151.96289 -3.3955078 320.53586 50.971924c168.57294 54.36743 298.37494 119.69354 289.92084 145.90997l-46.07788 142.88873c-8.454102 26.21643 -151.96289 3.3955078 -320.53586 -50.971924c-168.57297 -54.36743 -298.37494 -119.69354 -289.92084 -145.90997l46.07788 -142.88873" fill-rule="evenodd"/><path fill="#222233" d="m274.16922 367.43246l0 0c-8.454102 26.21643 121.34787 91.54257 289.9208 145.91c168.573 54.36743 312.0818 77.18829 320.5359 50.971924l-46.07788 142.88867c-8.454102 26.21643 -151.96289 3.3955078 -320.53583 -50.971924c-168.573 -54.36743 -298.37494 -119.69354 -289.92084 -145.90997z" fill-rule="evenodd"/><path fill="#7a7a84" d="m274.16922 367.43246l0 0c8.454132 -26.2164 151.96292 -3.3955078 320.53586 50.971924c168.573 54.36743 298.37494 119.69357 289.92084 145.91l0 0c-8.454102 26.21637 -151.96289 3.3955078 -320.5359 -50.971924c-168.57294 -54.36743 -298.3749 -119.69357 -289.9208 -145.91z" fill-rule="evenodd"/><path fill="#000000" fill-opacity="0.0" d="m884.6259 564.3144l0 0c-8.454102 26.21637 -151.96289 3.3955078 -320.5359 -50.971924c-168.57294 -54.36743 -298.3749 -119.69357 -289.9208 -145.91l0 0c8.454132 -26.2164 151.96292 -3.3955078 320.53586 50.971924c168.573 54.36743 298.37494 119.69357 289.92084 145.91l-46.07788 142.88867c-8.454102 26.21643 -151.96289 3.3955078 -320.53583 -50.971924c-168.573 -54.36743 -298.37494 -119.69354 -289.92084 -145.90997l46.077866 -142.8887" fill-rule="evenodd"/><path stroke="#222233" stroke-width="5.3858267716535435" stroke-linejoin="round" stroke-linecap="butt" d="m884.6259 564.3144l0 0c-8.454102 26.21637 -151.96289 3.3955078 -320.5359 -50.971924c-168.57294 -54.36743 -298.3749 -119.69357 -289.9208 -145.91l0 0c8.454132 -26.2164 151.96292 -3.3955078 320.53586 50.971924c168.573 54.36743 298.37494 119.69357 289.92084 145.91l-46.07788 142.88867c-8.454102 26.21643 -151.96289 3.3955078 -320.53583 -50.971924c-168.573 -54.36743 -298.37494 -119.69354 -289.92084 -145.90997l46.077866 -142.8887" fill-rule="evenodd"/><path fill="#333344" d="m334.23682 181.19102l0 0c-8.454132 26.216415 121.34784 91.54256 289.92084 145.90999c168.57294 54.36743 312.08173 77.188324 320.53583 50.971893l-46.07788 142.8887c-8.454102 26.21643 -151.96289 3.3955078 -320.53583 -50.971893c-168.57297 -54.36743 -298.37494 -119.69357 -289.92084 -145.91z" fill-rule="evenodd"/><path fill="#84848e" d="m334.23682 181.19102l0 0c8.454102 -26.21643 151.96289 -3.395523 320.53583 50.97191c168.573 54.36743 298.37494 119.69354 289.92084 145.90997l0 0c-8.454102 26.21643 -151.96289 3.3955383 -320.53583 -50.971893c-168.573 -54.36743 -298.37497 -119.69357 -289.92084 -145.90999z" fill-rule="evenodd"/><path fill="#000000" fill-opacity="0.0" d="m944.6935 378.0729l0 0c-8.454102 26.21643 -151.96289 3.3955383 -320.53583 -50.971893c-168.573 -54.36743 -298.37497 -119.69357 -289.92084 -145.90999l0 0c8.454102 -26.21643 151.96289 -3.395523 320.53583 50.97191c168.573 54.36743 298.37494 119.69354 289.92084 145.90997l-46.07788 142.8887c-8.454102 26.21643 -151.96289 3.3955078 -320.53583 -50.971893c-168.57297 -54.36743 -298.37494 -119.69357 -289.92084 -145.91l46.07788 -142.88869" fill-rule="evenodd"/><path stroke="#333344" stroke-width="5.3858267716535435" stroke-linejoin="round" stroke-linecap="butt" d="m944.6935 378.0729l0 0c-8.454102 26.21643 -151.96289 3.3955383 -320.53583 -50.971893c-168.573 -54.36743 -298.37497 -119.69357 -289.92084 -145.90999l0 0c8.454102 -26.21643 151.96289 -3.395523 320.53583 50.97191c168.573 54.36743 298.37494 119.69354 289.92084 145.90997l-46.07788 142.8887c-8.454102 26.21643 -151.96289 3.3955078 -320.53583 -50.971893c-168.57297 -54.36743 -298.37494 -119.69357 -289.92084 -145.91l46.07788 -142.88869" fill-rule="evenodd"/><path fill="#ff0000" d="m579.3236 369.58105l-169.31705 7.1795044l45.327026 -47.251465c-163.827 -120.4288 -328.04034 -152.13185 -399.9134 -77.20732l68.31006 -71.210266l0 0c71.87304 -74.92454 236.0864 -43.221497 399.91336 77.20732l45.327026 -47.251465z" fill-rule="evenodd"/><path fill="#cb0000" d="m97.38023 224.18346l0 0c-38.979076 107.78316 43.974243 290.71173 199.46779 439.86615l-68.310074 71.210266l0 0c-100.45944 -96.36395 -173.73247 -210.21606 -199.22737 -309.56094c-25.494904 -99.34485 -0.4598465 -173.45941 68.06966 -201.51549z" fill-rule="evenodd"/><path fill="#000000" fill-opacity="0.0" d="m97.38023 224.18346l0 0c-38.979076 107.78316 43.974243 290.71173 199.46779 439.86615l-68.310074 71.210266l0 0c-183.04543 -175.58307 -260.5529 -391.8108 -173.11775 -482.95813l68.31006 -71.210266l0 0c71.87304 -74.92454 236.0864 -43.221497 399.91336 77.20732l45.327026 -47.251465l10.352966 158.53369l-169.31705 7.1795044l45.327026 -47.251465c-163.827 -120.4288 -328.04034 -152.13185 -399.9134 -77.20732" fill-rule="evenodd"/><path stroke="#980000" stroke-width="8.0" stroke-linejoin="round" stroke-linecap="butt" d="m97.38023 224.18346l0 0c-38.979076 107.78316 43.974243 290.71173 199.46779 439.86615l-68.310074 71.210266l0 0c-183.04543 -175.58307 -260.5529 -391.8108 -173.11775 -482.95813l68.31006 -71.210266l0 0c71.87304 -74.92454 236.0864 -43.221497 399.91336 77.20732l45.327026 -47.251465l10.352966 158.53369l-169.31705 7.1795044l45.327026 -47.251465c-163.827 -120.4288 -328.04034 -152.13185 -399.9134 -77.20732" fill-rule="evenodd"/><path fill="#111122" d="m201.23245 585.65607l95.18112 30.677185l-36.503937 113.322815l-95.18112 -30.677124z" fill-rule="evenodd"/><path fill="#111122" d="m227.94637 615.2283l95.18111 30.677185l-36.503937 113.322815l-95.18111 -30.677185z" fill-rule="evenodd"/><path fill="#111122" d="m205.50838 571.5144l21.858261 7.055176l-32.629913 101.322815l-21.858276 -7.0551147z" fill-rule="evenodd"/><path fill="#111122" d="m220.90714 579.3832l23.779526 7.6850586l-32.629913 101.322815l-23.779541 -7.6849976z" fill-rule="evenodd"/><path fill="#111122" d="m209.80008 558.0339l5.448807 1.763794l-32.629913 101.322815l-5.448822 -1.763794z" fill-rule="evenodd"/><path fill="#111122" d="m212.24626 564.09424l5.448822 1.763794l-32.629913 101.322815l-5.448822 -1.763794z" fill-rule="evenodd"/><path fill="#111122" d="m214.996 568.43066l9.259842 2.9921265l-32.629913 101.322815l-9.259842 -2.9921265z" fill-rule="evenodd"/></g></svg>