<svg id="Layer_1" data-name="Layer 1" xmlns="http://www.w3.org/2000/svg" viewBox="0 0 245.33 112.59"><defs><style>.cls-1{fill:#003869;}.cls-2{fill:#fff;}</style></defs><path class="cls-1" d="M9.83,92.66c.34-.87.47-1,.65-1s.38.37.66,1c.5,1.12,4.9,12.07,6.58,16.1,1,2.37,1.75,2.71,2.34,2.9a3.75,3.75,0,0,0,1.1.16c.15,0,.34.06.34.21s-.31.22-.63.22-2.43,0-4.33-.06c-.53,0-1,0-1-.19s.06-.12.19-.18a.51.51,0,0,0,.37-.62.54.54,0,0,0-.1-.2l-2.46-6c-.06-.12-.09-.15-.25-.15H7a.29.29,0,0,0-.28.22l-1.56,4.24A5.57,5.57,0,0,0,4.71,111c0,.53.47.72.94.72H5.9c.21,0,.28.09.28.21s-.16.22-.41.22c-.65,0-2.15-.09-2.46-.09s-1.66.09-2.78.09c-.34,0-.53-.06-.53-.22a.23.23,0,0,1,.25-.21h0a5.54,5.54,0,0,0,.81-.07c1.25-.15,1.78-1.09,2.31-2.43Zm3.06,11c.12,0,.12-.07.09-.19L10.27,96.2c-.16-.41-.32-.41-.47,0l-2.56,7.27c0,.12,0,.19.09.19Z" transform="translate(0 0)"/><path class="cls-1" d="M27.83,108.57c.06,2.19.31,2.84,1.06,3a6.33,6.33,0,0,0,1.37.16.21.21,0,0,1,.22.2h0c0,.16-.18.22-.5.22-1.56,0-2.65-.09-2.9-.09s-1.4.09-2.65.09c-.28,0-.44,0-.44-.22a.21.21,0,0,1,.21-.21h0a3.84,3.84,0,0,0,1.12-.16c.69-.19.78-.9.78-3.31V93.1c0-1.06.16-1.35.38-1.35s.78.54,1.06.82c.44.43,4.43,4.68,8.67,9.05,2.72,2.8,5.65,6,6.49,6.83l-.28-13.29c0-1.72-.18-2.31-1-2.47a10,10,0,0,0-1.34-.12.22.22,0,0,1-.22-.22v0c0-.16.22-.19.53-.19,1.25,0,2.56.06,2.88.06s1.21-.06,2.34-.06c.28,0,.49,0,.49.19a.31.31,0,0,1-.31.25,3.49,3.49,0,0,0-.65.06c-.91.19-1,.72-1,2.31l-.06,15.54c0,1.74,0,1.9-.22,1.9s-.56-.22-2.09-1.62c-.28-.25-4.25-4.15-7.15-7.18-3.18-3.34-6.27-6.58-7.11-7.52Z" transform="translate(0 0)"/><path class="cls-1" d="M60.22,104.49c0,2.55,0,4.64.12,5.74.09.78.22,1.28,1.06,1.4a10.38,10.38,0,0,0,1.25.13c.19,0,.22.12.22.21s-.13.22-.44.22c-1.5,0-3.24-.09-3.4-.09s-2,.09-2.84.09c-.31,0-.44-.06-.44-.22s.07-.18.22-.18a3.19,3.19,0,0,0,.81-.13c.57-.12.72-.65.81-1.43.13-1.1.13-3.19.13-5.74V93.35l-4,.06c-1.72,0-2.37.22-2.78.84a5.6,5.6,0,0,0-.44.84c-.06.22-.15.25-.28.25a.21.21,0,0,1-.19-.22c0-.28.53-2.65.6-2.87s.18-.5.28-.5a10.43,10.43,0,0,0,1.22.32c.78.09,1.84.12,2.15.12h10.4a13.34,13.34,0,0,0,2-.12c.41-.07.66-.13.78-.13s.13.16.13.31c0,.82-.09,2.72-.09,3s-.13.34-.25.34-.19-.09-.22-.46v-.28c-.1-.82-.69-1.41-3.31-1.47l-3.43-.06Z" transform="translate(0 0)"/><path class="cls-1" d="M91.58,104.49a53,53,0,0,0,.16,5.74c.09.78.16,1.28,1,1.4a9.89,9.89,0,0,0,1.22.13.21.21,0,0,1,.24.18v0c0,.13-.15.22-.46.22-1.5,0-3.25-.09-3.41-.09s-1.9.09-2.71.09c-.31,0-.44-.06-.44-.22a.21.21,0,0,1,.21-.21h0a3.7,3.7,0,0,0,.81-.13c.57-.12.66-.65.75-1.43.13-1.1.13-3.09.13-5.65V101.9c0-.13-.07-.16-.16-.16H77.48c-.09,0-.16,0-.16.16v2.65c0,2.56,0,4.58.13,5.68.09.78.18,1.28,1,1.4.41.06.82.11,1.24.13a.21.21,0,0,1,.22.2h0c0,.13-.12.22-.43.22-1.53,0-3.28-.09-3.4-.09s-1.91.09-2.75.09c-.28,0-.44-.06-.44-.22a.21.21,0,0,1,.21-.21h0a4,4,0,0,0,.84-.13c.53-.12.6-.62.72-1.4a52.4,52.4,0,0,0,.16-5.74V99.8c0-4.11,0-4.86-.07-5.71s-.21-1.34-1.12-1.46a7.26,7.26,0,0,0-.93-.06.28.28,0,0,1-.22-.22c0-.16.12-.22.43-.22,1.25,0,3,.06,3.16.06s1.87-.06,2.71-.06c.31,0,.44.06.44.22a.28.28,0,0,1-.22.22,3.22,3.22,0,0,0-.69.06c-.75.15-.9.53-1,1.46s0,1.66,0,5.78v.56c0,.15.07.15.16.15H88.93c.09,0,.16,0,.16-.15v-.56c0-4.12,0-4.93-.07-5.78s-.18-1.34-1.09-1.46a7.26,7.26,0,0,0-.93-.06.24.24,0,0,1-.22-.22c0-.16.12-.22.43-.22,1.22,0,3,.06,3.12.06s1.91-.06,2.72-.06c.31,0,.47.06.47.22a.29.29,0,0,1-.25.22,4,4,0,0,0-.69.06c-.72.15-.87.53-.93,1.46s-.07,1.6-.07,5.71Z" transform="translate(0 0)"/><path class="cls-1" d="M102.19,99.8c0-4.11,0-4.86-.07-5.71s-.21-1.34-1.12-1.46a7.42,7.42,0,0,0-.94-.06.27.27,0,0,1-.21-.22c0-.16.12-.22.43-.22,1.25,0,3.09.06,3.25.06s2.59-.06,3.43-.06a9.07,9.07,0,0,1,5.12,1.15A4.61,4.61,0,0,1,114,96.9c0,2-.81,3.87-3.37,6.06,2.25,2.81,4.15,5.21,5.74,6.86s2.38,1.75,3.06,1.84a4.78,4.78,0,0,0,1,.1.24.24,0,0,1,.25.21c0,.16-.16.22-.66.22h-1.71a5.52,5.52,0,0,1-2.94-.53c-1.18-.62-2.18-1.9-3.74-3.9-1.16-1.43-2.37-3.15-3-3.87a.41.41,0,0,0-.37-.15l-3.49-.07c-.13,0-.19.07-.19.22v.63c0,2.56,0,4.61.12,5.71.1.78.25,1.28,1.1,1.4a9.73,9.73,0,0,0,1.21.13c.19,0,.22.12.22.21s-.12.22-.44.22c-1.49,0-3.24-.09-3.37-.09s-1.87.09-2.71.09c-.28,0-.44-.06-.44-.22a.21.21,0,0,1,.21-.21h0a4,4,0,0,0,.84-.13c.53-.12.6-.62.72-1.4a52.4,52.4,0,0,0,.16-5.74Zm2.37,2.25a.41.41,0,0,0,.19.35,9.53,9.53,0,0,0,3,.4,3.53,3.53,0,0,0,2.06-.47,4.64,4.64,0,0,0,1.66-4c0-3.31-1.81-5.21-4.75-5.21a13.36,13.36,0,0,0-2,.15.33.33,0,0,0-.22.31Z" transform="translate(0 0)"/><path class="cls-1" d="M132.93,91.75c6.18,0,10.86,3.78,10.86,10a10.62,10.62,0,0,1-10.42,10.83,5.61,5.61,0,0,1-.58,0c-7.52,0-10.73-5.65-10.73-10.43a10.5,10.5,0,0,1,10.59-10.41Zm.62,19.69c2.47,0,7.43-1.31,7.43-9,0-6.37-3.87-9.71-8.21-9.71-4.59,0-7.89,2.87-7.89,8.65,0,6.2,3.71,10.06,8.67,10.06Z" transform="translate(0 0)"/><path class="cls-1" d="M151.09,99.8c0-4.11,0-4.86-.07-5.71s-.21-1.34-1.12-1.46a7.42,7.42,0,0,0-.94-.06.27.27,0,0,1-.21-.22c0-.16.12-.22.43-.22,1.25,0,3,.06,3.19.06.59,0,2.65-.06,3.9-.06,3.52,0,4.77,1.09,5.24,1.5a4.44,4.44,0,0,1,1.37,3.18c0,3.81-2.87,6.33-7.08,6.33a5.08,5.08,0,0,1-.78,0,.29.29,0,0,1-.28-.25c0-.22.15-.28.72-.28,3,0,5.08-1.87,5.08-4.27a5.39,5.39,0,0,0-1.56-4A4.7,4.7,0,0,0,155.27,93a9.84,9.84,0,0,0-1.53.19c-.16,0-.22.22-.22.5v10.8c0,2.55,0,4.64.13,5.74.09.78.24,1.28,1.09,1.4a9.89,9.89,0,0,0,1.22.13.2.2,0,0,1,.21.19v0c0,.13-.12.22-.43.22-1.5,0-3.31-.09-3.44-.09s-1.87.09-2.71.09c-.28,0-.44-.06-.44-.22a.21.21,0,0,1,.21-.21h0a4,4,0,0,0,.84-.13c.53-.12.6-.62.72-1.4a52.4,52.4,0,0,0,.16-5.74Z" transform="translate(0 0)"/><path class="cls-1" d="M170.5,99.8c0-4.11,0-4.86-.07-5.71s-.21-1.34-1.12-1.46a7.26,7.26,0,0,0-.93-.06.28.28,0,0,1-.22-.22c0-.16.12-.22.43-.22,1.25,0,3,.06,3.19.06h6.55a6.83,6.83,0,0,0,1.25-.15,1.63,1.63,0,0,1,.37-.13c.09,0,.13.13.13.25-.09.41-.17.83-.22,1.25,0,.25-.1,1.43-.16,1.75a.3.3,0,0,1-.25.28c-.13,0-.22-.13-.22-.35a2.92,2.92,0,0,0-.15-.93c-.19-.44-.47-.63-2-.81-.47-.07-3.65-.1-4-.1-.13,0-.16.1-.16.28v7.21c0,.19,0,.28.16.28.34,0,4,0,4.59-.06a2.14,2.14,0,0,0,1.34-.38c.28-.29.31-.34.4-.34s.16.06.16.22c-.1.49-.17,1-.22,1.47s-.12,1.53-.12,1.71-.07.5-.25.5-.19-.09-.19-.25a2.33,2.33,0,0,0-.13-.87c-.09-.38-.34-.69-1.4-.81-.75-.1-3.68-.13-4.15-.13a.17.17,0,0,0-.19.15V109c.07,1.78.56,2.12,3.28,2.12a9.1,9.1,0,0,0,2.75-.28,2,2,0,0,0,1.24-1.84c.07-.31.13-.41.28-.41s.19.22.19.41a24.66,24.66,0,0,1-.37,2.56c-.19.69-.47.69-1.53.69-2.06,0-3.65-.07-4.78-.1s-1.87-.06-2.27-.06h-1.19c-.59,0-1.15.06-1.59.06-.28,0-.44-.06-.44-.22a.21.21,0,0,1,.21-.21h0a8.13,8.13,0,0,0,.84-.13c.53-.09.6-.62.72-1.4a52.4,52.4,0,0,0,.16-5.74Z" transform="translate(0 0)"/><path class="cls-1" d="M189.25,99.8c0-4.11,0-4.86-.07-5.71s-.21-1.34-1.12-1.46a7.42,7.42,0,0,0-.94-.06.27.27,0,0,1-.21-.22c0-.16.12-.22.43-.22,1.25,0,3,.06,3.19.06s2.05-.06,3.68-.06c2.74,0,7.77-.25,11,3a9.24,9.24,0,0,1,2.69,6.74,10.61,10.61,0,0,1-3,7.45c-1.18,1.22-3.65,3.06-8.33,3.06-1.19,0-2.65-.09-3.84-.15s-2.12-.16-2.24-.16h-1.13c-.56,0-1.21.06-1.65.06-.28,0-.44-.06-.44-.22a.21.21,0,0,1,.21-.21h0a4,4,0,0,0,.84-.13c.53-.12.6-.62.72-1.4a52.4,52.4,0,0,0,.16-5.74Zm2.49,2.88v5.77a5.13,5.13,0,0,0,.32,1.9c.34.5,1.31,1.06,4.55,1.06A9.19,9.19,0,0,0,203,109c1.44-1.34,2.15-3.87,2.15-6.3a9.15,9.15,0,0,0-2.59-6.65c-2.59-2.62-5.61-3-8.89-3a7.65,7.65,0,0,0-1.65.18.47.47,0,0,0-.35.53Z" transform="translate(0 0)"/><path class="cls-1" d="M218.27,104.49c0,2.55,0,4.64.13,5.74.09.78.18,1.28,1,1.4.41.06.82.11,1.24.13a.21.21,0,0,1,.22.2h0c0,.13-.12.22-.43.22-1.53,0-3.31-.09-3.44-.09s-1.87.09-2.71.09c-.28,0-.44-.06-.44-.22a.21.21,0,0,1,.21-.21h0a4,4,0,0,0,.84-.13c.53-.12.63-.62.72-1.4.13-1.1.16-3.19.16-5.74V99.8c0-4.11,0-4.86-.07-5.71s-.28-1.31-.87-1.43a6,6,0,0,0-.84-.09.24.24,0,0,1-.22-.22c0-.16.12-.22.44-.22.9,0,2.62.06,2.77.06s1.91-.06,2.75-.06c.31,0,.44.06.44.22a.28.28,0,0,1-.22.22,3.22,3.22,0,0,0-.69.06c-.75.15-.9.53-1,1.46s0,1.6,0,5.71Z" transform="translate(0 0)"/><path class="cls-1" d="M233.66,92.66c.34-.87.46-1,.65-1s.37.37.66,1c.49,1.12,4.89,12.07,6.58,16.1,1,2.37,1.75,2.71,2.34,2.9a3.64,3.64,0,0,0,1.09.16c.16,0,.35.06.35.21s-.32.22-.63.22-2.43,0-4.34-.06c-.53,0-1,0-1-.19s.06-.12.18-.18a.5.5,0,0,0,.29-.65l0-.07-2.42-6.1c-.06-.12-.1-.15-.25-.15h-6.34c-.12,0-.21.06-.28.22l-1.56,4.24a5.48,5.48,0,0,0-.4,1.78c0,.53.47.72.93.72h.25c.22,0,.28.09.28.21s-.15.22-.4.22c-.66,0-2.15-.09-2.47-.09s-1.65.09-2.77.09c-.35,0-.53-.06-.53-.22a.23.23,0,0,1,.25-.21h0a5.54,5.54,0,0,0,.81-.07c1.24-.15,1.78-1.09,2.31-2.43Zm3.05,11c.13,0,.13-.07.1-.19l-2.72-7.27c-.15-.41-.31-.41-.47,0l-2.55,7.27c0,.12,0,.19.09.19Z" transform="translate(0 0)"/><path class="cls-1" d="M32.58,85.32C38,39.9,76.44,4.44,123.33,4.44a92.12,92.12,0,0,1,91.23,80.84Z" transform="translate(0 0)"/><path class="cls-1" d="M9.22,88.19H235.15v1H9.22Z" transform="translate(0 0)"/><path class="cls-2" d="M74,53.76a11.77,11.77,0,0,0-7.91-1.9c-3.35.24-8.91,2.51-13.23,8.74a29,29,0,0,0-5.07,12.14A43.23,43.23,0,0,0,46.9,81a10,10,0,0,1,4.55-2.57c5.64-1.54,9.36-2.8,13-5.28s7.48-3.88,9.28-9.74S75.07,54.58,74,53.76Z" transform="translate(0 0)"/><path class="cls-2" d="M119.74,46.66c-.6-8.34,6.19-13.87,6.19-13.87s4.38-4.62,18.12-7S161,25.44,161,25.44s-4.47,2.31-10.31,8.92S145.34,51.44,136,54.83C125.27,58.7,120.34,55,119.74,46.66Z" transform="translate(0 0)"/><path class="cls-2" d="M134.27,85.89c-1.25-5.47-6.87-21-10.6-25.06-3.44-3.71-7.87-11-24.63-12.31S72.9,54.11,72.9,54.11v2.24s8.62-6.94,24-5.59,19.1,9,22.59,12.31S127.8,80.61,122,85.86Z" transform="translate(0 0)"/><path class="cls-2" d="M175.15,53.25s-48.56-13-49.84,27.53L134,85.33C122.14,38.8,175.15,55,175.15,55Z" transform="translate(0 0)"/><path class="cls-2" d="M158.62,48.82c-5.44-3-3.1-10-3.1-10s.85-5.67,13.52-9,14.28-5,14.28-5-3.19,13.45-7.52,19.37S164.06,51.86,158.62,48.82Z" transform="translate(0 0)"/><path class="cls-2" d="M115,43.55c-6.06,6.06-15.08.71-15.08.71s-7.68-3-8.21-20.5S89.39,3.6,89.39,3.6s17.84,8.58,24.71,16.15S121,37.51,115,43.55Z" transform="translate(0 0)"/><path class="cls-2" d="M149.11,57.82s-1.73,2.26-.76,6.27c1.19,5.26,6.71,7.34,12.28,9.27S178,78.2,178,78.2a57,57,0,0,0-2.82-10.33c-2.07-5.39-7.68-10-7.68-10s-4.83-4.24-10.61-3.73A12.91,12.91,0,0,0,149.11,57.82Z" transform="translate(0 0)"/><path class="cls-2" d="M174,54.78s-2.06-1.4,5-3.93,11.63-.22,15.11,1.9S199.68,56.82,203,61a27,27,0,0,1,4.26,7.15s-3.45,1.41-13.61,1.54S179.13,64.9,177,61.2A32.35,32.35,0,0,1,174,54.78Z" transform="translate(0 0)"/><path class="cls-2" d="M106.69,55.81A21.52,21.52,0,0,1,98.3,71.58c-5,4-7.88,5-13.64,5.68a25.42,25.42,0,0,0-9.35,2.86s-1.83-2.86.38-11.35,8.69-11.67,16.22-13A43.66,43.66,0,0,1,106.69,55.81Z" transform="translate(0 0)"/><path class="cls-2" d="M51.62,25s12-1.75,18.78-.84c4.88.67,10.53,4,12.08,6.31s3.55,9.2,1.71,12S73.83,48.18,67.73,45.4c-6.09-2.45-10.06-8.09-12-12C54.12,29.56,51.62,25,51.62,25Z" transform="translate(0 0)"/><path class="cls-2" d="M110.11,46.48c.6.48,1.42,4.1,1.3,4.68-.37,1.78,4.6,3.54,3.18,1.42-.67-1-2.74-6.55-2.09-7.39S109.51,46,110.11,46.48Z" transform="translate(0 0)"/><path class="cls-2" d="M138.41,56.65s5.36-1.29,8,.09a6,6,0,0,1,2.72,3c0,.95.85-2,.85-2a10.19,10.19,0,0,0-2.44-2.42,6.79,6.79,0,0,0-3.61-.86C142.37,54.47,138.41,56.65,138.41,56.65Z" transform="translate(0 0)"/><path class="cls-2" d="M86.76,46.66c1.82,1.17,3.49,2,3.49,2l5.13.07s-6.65-3.07-8.47-4.25a12.41,12.41,0,0,1-3.34-2.91L82.1,43.4S84.94,45.49,86.76,46.66Z" transform="translate(0 0)"/><path class="cls-2" d="M159.62,46.26A8.66,8.66,0,0,1,155,51c-3.45,1.33,1.79,1.09,1.79,1.09l4.59-4.38Z" transform="translate(0 0)"/><path class="cls-2" d="M104.51,56.33,110,53.59s8.29,2.53,3.52,1.61a8.88,8.88,0,0,0-8,2.42Z" transform="translate(0 0)"/><path class="cls-2" d="M123.28,52.46s-3.68,2.42-3.52,6.61,1.68,1.77,1.68,1.77a5.76,5.76,0,0,1,.84-4.51c1.5-2.42,2.34-1.77,2.34-1.77Z" transform="translate(0 0)"/><path class="cls-1" d="M58,25.67A95.69,95.69,0,0,0,27.53,88.46l1,.08a95.12,95.12,0,0,1,189.63,0l1-.07A96.09,96.09,0,0,0,58,25.67Z" transform="translate(0 0)"/><path class="cls-1" d="M222.83,85.8V82.24H221.5v-.48h3.2v.48h-1.33V85.8Z" transform="translate(0 0)"/><path class="cls-1" d="M225.23,85.8v-4H226l1,2.86c.09.27.16.47.2.6a2.9,2.9,0,0,1,.21-.65l1-2.81h.72v4h-.52V82.42L227.4,85.8h-.48l-1.17-3.44V85.8Z" transform="translate(0 0)"/></svg>