<svg version="1.1" viewBox="0.0 0.0 960.0 720.0" fill="none" stroke="none" stroke-linecap="square" stroke-miterlimit="10" xmlns:xlink="http://www.w3.org/1999/xlink" xmlns="http://www.w3.org/2000/svg"><clipPath id="p.0"><path d="m0 0l960.0 0l0 720.0l-960.0 0l0 -720.0z" clip-rule="nonzero"/></clipPath><g clip-path="url(#p.0)"><path fill="#000000" fill-opacity="0.0" d="m0 0l960.0 0l0 720.0l-960.0 0z" fill-rule="evenodd"/><path fill="#ffffff" d="m80.267715 543.13776l806.86615 0l0 144.75592l-806.86615 0z" fill-rule="evenodd"/><path stroke="#000000" stroke-width="8.0" stroke-linejoin="round" stroke-linecap="butt" d="m80.267715 543.13776l806.86615 0l0 144.75592l-806.86615 0z" fill-rule="evenodd"/><path fill="#fff2cc" d="m67.580055 270.6299l0 0c0 -139.58453 113.15562 -252.74014 252.74017 -252.74014l0 0c67.03085 0 131.31628 26.627907 178.71426 74.02588c47.39795 47.397972 74.02588 111.68342 74.02588 178.71426l0 0c0 139.58453 -113.15561 252.74014 -252.74014 252.74014l0 0c-139.58455 0 -252.74017 -113.15561 -252.74017 -252.74014z" fill-rule="evenodd"/><path stroke="#000000" stroke-width="8.0" stroke-linejoin="round" stroke-linecap="butt" d="m67.580055 270.6299l0 0c0 -139.58453 113.15562 -252.74014 252.74017 -252.74014l0 0c67.03085 0 131.31628 26.627907 178.71426 74.02588c47.39795 47.397972 74.02588 111.68342 74.02588 178.71426l0 0c0 139.58453 -113.15561 252.74014 -252.74014 252.74014l0 0c-139.58455 0 -252.74017 -113.15561 -252.74017 -252.74014z" fill-rule="evenodd"/><path fill="#fff2cc" d="m386.937 270.6299l0 0c0 -139.58453 113.15561 -252.74014 252.74017 -252.74014l0 0c67.03082 0 131.31628 26.627907 178.71423 74.02588c47.39801 47.397972 74.02588 111.68342 74.02588 178.71426l0 0c0 139.58453 -113.15558 252.74014 -252.74011 252.74014l0 0c-139.58456 0 -252.74017 -113.15561 -252.74017 -252.74014z" fill-rule="evenodd"/><path stroke="#000000" stroke-width="8.0" stroke-linejoin="round" stroke-linecap="butt" d="m386.937 270.6299l0 0c0 -139.58453 113.15561 -252.74014 252.74017 -252.74014l0 0c67.03082 0 131.31628 26.627907 178.71423 74.02588c47.39801 47.397972 74.02588 111.68342 74.02588 178.71426l0 0c0 139.58453 -113.15558 252.74014 -252.74011 252.74014l0 0c-139.58456 0 -252.74017 -113.15561 -252.74017 -252.74014z" fill-rule="evenodd"/><path fill="#000000" fill-opacity="0.0" d="m67.580055 270.6299l0 0c0 -139.58453 113.15562 -252.74014 252.74017 -252.74014l0 0c67.03085 0 131.31628 26.627907 178.71426 74.02588c47.39795 47.397972 74.02588 111.68342 74.02588 178.71426l0 0c0 139.58453 -113.15561 252.74014 -252.74014 252.74014l0 0c-139.58455 0 -252.74017 -113.15561 -252.74017 -252.74014z" fill-rule="evenodd"/><path stroke="#000000" stroke-width="8.0" stroke-linejoin="round" stroke-linecap="butt" d="m67.580055 270.6299l0 0c0 -139.58453 113.15562 -252.74014 252.74017 -252.74014l0 0c67.03085 0 131.31628 26.627907 178.71426 74.02588c47.39795 47.397972 74.02588 111.68342 74.02588 178.71426l0 0c0 139.58453 -113.15561 252.74014 -252.74014 252.74014l0 0c-139.58455 0 -252.74017 -113.15561 -252.74017 -252.74014z" fill-rule="evenodd"/><path fill="#000000" fill-opacity="0.0" d="m283.18634 26.15748l74.26773 0l0 100.18898l-74.26773 0z" fill-rule="evenodd"/><path fill="#000000" d="m334.30582 55.111347l-3.359375 36.718746q-0.265625 2.5625 -0.265625 3.375q0 1.296875 0.5 1.984375q0.609375 0.953125 1.671875 1.40625q1.0625 0.453125 3.5625 0.453125l-0.359375 1.203125l-17.375 0l0.359375 -1.203125l0.75 0q2.109375 0 3.4375 -0.90625q0.953125 -0.625 1.46875 -2.0625q0.359375 -1.0 0.6875 -4.75l0.515625 -5.59375l-12.625 0l-4.5 6.09375q-1.515625 2.046875 -1.90625 2.9375q-0.390625 0.890625 -0.390625 1.671875q0 1.046875 0.84375 1.796875q0.84375 0.75 2.796875 0.8125l-0.359375 1.203125l-13.046875 0l0.359375 -1.203125q2.40625 -0.09375 4.234375 -1.609375q1.84375 -1.515625 5.484375 -6.46875l26.375 -35.85937l1.140625 0zm-6.453125 10.843746l-12.78125 17.40625l11.09375 0l1.6875 -17.40625z" fill-rule="nonzero"/><path fill="#000000" fill-opacity="0.0" d="m602.54333 26.15748l74.2677 0l0 100.18898l-74.2677 0z" fill-rule="evenodd"/><path fill="#000000" d="m629.1784 57.330097l0.453125 -1.21875l15.75 0q3.984375 0 7.078125 1.25q3.109375 1.234375 4.65625 3.453125q1.546875 2.203125 1.546875 4.671871q0 3.8125 -2.75 6.890625q-2.75 3.078125 -8.96875 4.53125q4.015625 1.5 5.890625 3.984375q1.890625 2.46875 1.890625 5.421875q0 3.296875 -1.6875 6.296875q-1.6875 2.984375 -4.34375 4.65625q-2.65625 1.65625 -6.390625 2.4375q-2.671875 0.546875 -8.34375 0.546875l-16.171875 0l0.421875 -1.203125q2.546875 -0.0625 3.453125 -0.484375q1.296875 -0.5625 1.859375 -1.46875q0.78125 -1.234375 2.078125 -5.65625l7.90625 -26.734375q1.015625 -3.3749962 1.015625 -4.749996q0 -1.203125 -0.90625 -1.890625q-0.890625 -0.703125 -3.390625 -0.703125q-0.5625 0 -1.046875 -0.03125zm6.609375 18.312496q2.109375 0.0625 3.0625 0.0625q6.765625 0 10.0625 -2.9375q3.3125 -2.953125 3.3125 -7.375q0 -3.3437462 -2.015625 -5.218746q-2.015625 -1.875 -6.453125 -1.875q-1.171875 0 -2.984375 0.390625l-4.984375 16.953121zm-6.40625 21.75q3.515625 0.453125 5.5 0.453125q5.078125 0 9.0 -3.0625q3.921875 -3.0625 3.921875 -8.296875q0 -4.0 -2.4375 -6.25q-2.421875 -2.25 -7.828125 -2.25q-1.03125 0 -2.53125 0.09375l-5.625 19.3125z" fill-rule="nonzero"/><path fill="#000000" fill-opacity="0.0" d="m364.56805 220.53543l238.26776 0l0 100.188965l-238.26776 0z" fill-rule="evenodd"/><path fill="#000000" d="m459.33978 253.72055l-2.671875 29.359375q-0.21875 2.0625 -0.21875 2.71875q0 1.03125 0.390625 1.578125q0.5 0.765625 1.34375 1.125q0.84375 0.359375 2.84375 0.359375l-0.28125 0.96875l-13.90625 0l0.296875 -0.96875l0.59375 0q1.6875 0 2.765625 -0.71875q0.75 -0.5 1.171875 -1.640625q0.28125 -0.8125 0.546875 -3.8125l0.40625 -4.46875l-10.09375 0l-3.59375 4.859375q-1.234375 1.640625 -1.546875 2.359375q-0.3125 0.71875 -0.3125 1.34375q0 0.828125 0.671875 1.4375q0.6875 0.59375 2.25 0.640625l-0.28125 0.96875l-10.453125 0l0.296875 -0.96875q1.921875 -0.078125 3.390625 -1.28125q1.46875 -1.21875 4.390625 -5.171875l21.09375 -28.6875l0.90625 0zm-5.15625 8.671875l-10.234375 13.921875l8.890625 0l1.34375 -13.921875zm18.121826 27.4375l-2.859375 0l0 -14.578125q0 -6.46875 0.15625 -8.1875q0.3125 -3.09375 1.140625 -5.0625q0.84375 -1.984375 2.65625 -3.890625q1.828125 -1.921875 4.515625 -3.109375q2.703125 -1.203125 5.71875 -1.203125q2.921875 0 5.578125 1.140625q2.65625 1.140625 4.609375 3.109375q1.953125 1.96875 2.78125 4.1875q0.828125 2.203125 1.09375 5.515625q0.109375 1.296875 0.109375 7.5l0 14.578125l-2.84375 0l0 -14.734375q0 -5.6875 -0.15625 -7.328125q-0.28125 -2.890625 -0.953125 -4.59375q-0.65625 -1.703125 -2.078125 -3.1875q-1.421875 -1.5 -3.625 -2.46875q-2.1875 -0.96875 -4.53125 -0.96875q-1.9375 0 -3.75 0.671875q-1.796875 0.65625 -3.09375 1.640625q-1.28125 0.96875 -2.078125 2.0q-0.796875 1.03125 -1.15625 1.9375q-0.65625 1.5625 -0.953125 3.8125q-0.28125 2.25 -0.28125 8.484375l0 14.734375zm38.54312 -34.34375l0.359375 -0.96875l12.6094055 0q3.171875 0 5.65625 1.0q2.484375 0.984375 3.71875 2.765625q1.25 1.765625 1.25 3.734375q0 3.046875 -2.203125 5.515625q-2.203125 2.453125 -7.171875 3.625q3.203125 1.203125 4.703125 3.1875q1.515625 1.96875 1.515625 4.34375q0 2.625 -1.359375 5.03125q-1.34375 2.390625 -3.46875 3.71875q-2.125 1.328125 -5.109375 1.953125q-2.140625 0.4375 -6.671875 0.4375l-12.9375305 0l0.328125 -0.96875q2.03125 -0.046875 2.765625 -0.390625q1.046875 -0.4375 1.484375 -1.171875q0.625 -0.984375 1.671875 -4.53125l6.3281555 -21.375q0.796875 -2.703125 0.796875 -3.796875q0 -0.96875 -0.71875 -1.515625q-0.703125 -0.5625 -2.7187805 -0.5625q-0.4375 0 -0.828125 -0.03125zm5.2812805 14.65625q1.703125 0.046875 2.453125 0.046875q5.421875 0 8.0625 -2.34375q2.640625 -2.359375 2.640625 -5.90625q0 -2.671875 -1.625 -4.171875q-1.609375 -1.5 -5.140625 -1.5q-0.9375 0 -2.40625 0.3125l-3.984375 13.5625zm-5.1250305 17.390625q2.8125305 0.375 4.4062805 0.375q4.0625 0 7.1875 -2.453125q3.140625 -2.453125 3.140625 -6.640625q0 -3.203125 -1.9375 -5.0q-1.9375 -1.796875 -6.265625 -1.796875q-0.828125 0 -2.03125 0.078125l-4.5000305 15.4375z" fill-rule="nonzero"/><path fill="#0000ff" d="m121.1811 248.05774l0 0c0 -20.508453 16.625404 -37.13385 37.133858 -37.13385l0 0c9.848511 0 19.293655 3.9123077 26.257614 10.876251c6.9639435 6.9639435 10.876251 16.409088 10.876251 26.257599l0 0c0 20.508453 -16.625397 37.13385 -37.133865 37.13385l0 0c-20.508453 0 -37.133858 -16.625397 -37.133858 -37.13385z" fill-rule="evenodd"/><path fill="#ff0000" d="m275.38058 348.98557c15.472443 -43.322845 75.81494 0 0 55.700775c-75.81497 -55.700775 -15.472443 -99.02362 0 -55.700775z" fill-rule="evenodd"/><path fill="#ff00ff" d="m660.61865 216.69284l25.032166 0l0 -25.032211l23.564453 0l0 25.032211l25.032227 0l0 23.564453l-25.032227 0l0 25.032196l-23.564453 0l0 -25.032196l-25.032166 0z" fill-rule="evenodd"/><path fill="#9900ff" d="m599.1312 368.01312l36.033997 -14.060455l14.060486 -36.034027l14.060486 36.034027l36.033997 14.060455l-36.033997 14.060455l-14.060486 36.034027l-14.060486 -36.034027z" fill-rule="evenodd"/><path fill="#ff9900" d="m771.95276 359.14172l37.13385 -64.22046l37.13385 64.22046z" fill-rule="evenodd"/><path fill="#00ffff" d="m293.23358 151.76115l64.22049 0l0 64.220474l-64.22049 0z" fill-rule="evenodd"/><path fill="#000000" fill-opacity="0.0" d="m173.31233 530.5486l294.01575 0l0 100.188965l-294.01575 0z" fill-rule="evenodd"/><path fill="#000000" d="m202.9217 567.9493l-2.015625 22.03125q-0.15625 1.546875 -0.15625 2.03125q0 0.78125 0.296875 1.1875q0.375 0.578125 1.0 0.859375q0.640625 0.265625 2.140625 0.265625l-0.21875 0.71875l-10.421875 0l0.21875 -0.71875l0.4375 0q1.28125 0 2.078125 -0.546875q0.5625 -0.375 0.875 -1.234375q0.21875 -0.609375 0.40625 -2.859375l0.3125 -3.359375l-7.578125 0l-2.6875 3.65625q-0.921875 1.234375 -1.15625 1.78125q-0.234375 0.53125 -0.234375 1.0q0 0.625 0.5 1.078125q0.515625 0.4375 1.6875 0.484375l-0.21875 0.71875l-7.828125 0l0.21875 -0.71875q1.4375 -0.0625 2.546875 -0.96875q1.109375 -0.90625 3.296875 -3.875l15.8125 -21.53125l0.6875 0zm-3.875 6.5l-7.671875 10.453125l6.65625 0l1.015625 -10.453125z" fill-rule="nonzero"/><path fill="#000000" d="m217.46468 577.793l21.078125 0l0 1.609375l-21.078125 0l0 -1.609375zm0 6.375l21.078125 0l0 1.59375l-21.078125 0l0 -1.59375zm48.261734 18.828125l0 0.6875q-3.25 -0.453125 -5.296875 -2.65625q-2.046875 -2.1875 -2.046875 -4.875q0 -1.40625 0.453125 -3.265625q0.453125 -1.875 0.453125 -2.90625q0 -1.40625 -1.1875 -2.625q-1.171875 -1.21875 -3.2656403 -1.5l0 -0.796875q2.0937653 -0.265625 3.2656403 -1.46875q1.1875 -1.21875 1.1875 -2.65625q0 -1.03125 -0.453125 -2.875q-0.453125 -1.859375 -0.453125 -3.296875q0 -2.65625 2.046875 -4.859375q2.046875 -2.203125 5.296875 -2.640625l0 0.6875q-2.28125 0.546875 -3.34375 1.796875q-1.0625 1.234375 -1.0625 2.71875q0 1.15625 0.4375 3.046875q0.4375 1.875 0.4375 3.203125q0 1.96875 -1.453125 3.828125q-1.4375 1.859375 -4.3125 2.875q2.8125 1.03125 4.28125 2.921875q1.484375 1.890625 1.484375 3.875q0 1.328125 -0.4375 3.203125q-0.4375 1.890625 -0.4375 3.046875q0 1.484375 1.0625 2.71875q1.0625 1.25 3.34375 1.8125zm146.23047 -35.046875l0 -0.6875q3.265625 0.4375 5.296875 2.640625q2.046875 2.1875 2.046875 4.890625q0 1.40625 -0.453125 3.265625q-0.4375 1.84375 -0.4375 2.875q0 1.40625 1.171875 2.640625q1.1875 1.21875 3.28125 1.484375l0 0.796875q-2.09375 0.28125 -3.28125 1.5q-1.171875 1.21875 -1.171875 2.625q0 1.03125 0.4375 2.90625q0.453125 1.859375 0.453125 3.265625q0 2.65625 -2.046875 4.859375q-2.03125 2.21875 -5.296875 2.671875l0 -0.6875q2.296875 -0.5625 3.359375 -1.796875q1.0625 -1.234375 1.0625 -2.734375q0 -1.15625 -0.453125 -3.046875q-0.453125 -1.875 -0.453125 -3.1875q0 -2.0 1.453125 -3.84375q1.46875 -1.859375 4.328125 -2.875q-2.8125 -1.03125 -4.296875 -2.921875q-1.484375 -1.90625 -1.484375 -3.875q0 -1.328125 0.453125 -3.203125q0.453125 -1.890625 0.453125 -3.046875q0 -1.484375 -1.0625 -2.71875q-1.0625 -1.25 -3.359375 -1.796875z" fill-rule="nonzero"/><path fill="#0000ff" d="m278.0783 585.67914l0 0c0 -9.488892 7.6922607 -17.181152 17.181122 -17.181152l0 0c4.5567017 0 8.926788 1.8101807 12.148865 5.0322266c3.2220764 3.222107 5.0322266 7.592163 5.0322266 12.148926l0 0c0 9.488831 -7.69223 17.181091 -17.181091 17.181091l0 0c-9.488861 0 -17.181122 -7.6922607 -17.181122 -17.181091z" fill-rule="evenodd"/><path fill="#00ffff" d="m320.60587 568.49866l34.362213 0l0 34.362244l-34.362213 0z" fill-rule="evenodd"/><path fill="#ff0000" d="m382.9856 576.00464c7.1588135 -19.658813 35.078094 0 0 25.275574c-35.078064 -25.275574 -7.158783 -44.934387 0 -25.275574z" fill-rule="evenodd"/><path fill="#000000" fill-opacity="0.0" d="m512.80914 535.5853l294.01575 0l0 100.188965l-294.01575 0z" fill-rule="evenodd"/><path fill="#000000" d="m527.731 574.31415l0.265625 -0.71875l9.453125 0q2.390625 0 4.25 0.75q1.875 0.734375 2.796875 2.0625q0.921875 1.328125 0.921875 2.8125q0 2.28125 -1.65625 4.125q-1.640625 1.84375 -5.375 2.734375q2.40625 0.890625 3.53125 2.375q1.140625 1.484375 1.140625 3.265625q0 1.96875 -1.015625 3.765625q-1.015625 1.796875 -2.609375 2.796875q-1.59375 1.0 -3.828125 1.46875q-1.609375 0.328125 -5.0 0.328125l-9.71875 0l0.25 -0.71875q1.53125 -0.046875 2.078125 -0.296875q0.78125 -0.328125 1.109375 -0.875q0.46875 -0.75 1.25 -3.40625l4.75 -16.03125q0.609375 -2.03125 0.609375 -2.859375q0 -0.71875 -0.546875 -1.140625q-0.53125 -0.421875 -2.03125 -0.421875q-0.328125 0 -0.625 -0.015625zm3.96875 11.0q1.265625 0.03125 1.828125 0.03125q4.0625 0 6.046875 -1.765625q1.984375 -1.765625 1.984375 -4.421875q0 -2.015625 -1.21875 -3.125q-1.203125 -1.125 -3.859375 -1.125q-0.703125 0 -1.796875 0.234375l-2.984375 10.171875zm-3.859375 13.046875q2.109375 0.265625 3.3125 0.265625q3.046875 0 5.390625 -1.828125q2.359375 -1.84375 2.359375 -4.984375q0 -2.40625 -1.453125 -3.75q-1.453125 -1.34375 -4.703125 -1.34375q-0.625 0 -1.515625 0.0625l-3.390625 11.578125z" fill-rule="nonzero"/><path fill="#000000" d="m556.9615 582.8298l21.078125 0l0 1.609375l-21.078125 0l0 -1.609375zm0 6.375l21.078125 0l0 1.59375l-21.078125 0l0 -1.59375zm48.26172 18.828125l0 0.6875q-3.25 -0.453125 -5.296875 -2.65625q-2.046875 -2.1875 -2.046875 -4.875q0 -1.40625 0.453125 -3.265625q0.453125 -1.875 0.453125 -2.90625q0 -1.40625 -1.1875 -2.625q-1.171875 -1.21875 -3.265625 -1.5l0 -0.796875q2.09375 -0.265625 3.265625 -1.46875q1.1875 -1.21875 1.1875 -2.65625q0 -1.03125 -0.453125 -2.875q-0.453125 -1.859375 -0.453125 -3.296875q0 -2.65625 2.046875 -4.859375q2.046875 -2.203125 5.296875 -2.640625l0 0.6875q-2.28125 0.546875 -3.34375 1.796875q-1.0625 1.234375 -1.0625 2.71875q0 1.15625 0.4375 3.046875q0.4375 1.875 0.4375 3.203125q0 1.96875 -1.453125 3.828125q-1.4375 1.859375 -4.3125 2.875q2.8125 1.03125 4.28125 2.921875q1.484375 1.890625 1.484375 3.875q0 1.328125 -0.4375 3.203125q-0.4375 1.890625 -0.4375 3.046875q0 1.484375 1.0625 2.71875q1.0625 1.25 3.34375 1.8125zm146.23047 -35.046875l0 -0.6875q3.265625 0.4375 5.296875 2.640625q2.046875 2.1875 2.046875 4.890625q0 1.40625 -0.453125 3.265625q-0.4375 1.84375 -0.4375 2.875q0 1.40625 1.171875 2.640625q1.1875 1.21875 3.28125 1.484375l0 0.796875q-2.09375 0.28125 -3.28125 1.5q-1.171875 1.21875 -1.171875 2.625q0 1.03125 0.4375 2.90625q0.453125 1.859375 0.453125 3.265625q0 2.65625 -2.046875 4.859375q-2.03125 2.21875 -5.296875 2.671875l0 -0.6875q2.296875 -0.5625 3.359375 -1.796875q1.0625 -1.234375 1.0625 -2.734375q0 -1.15625 -0.453125 -3.046875q-0.453125 -1.875 -0.453125 -3.1875q0 -2.0 1.453125 -3.84375q1.46875 -1.859375 4.328125 -2.875q-2.8125 -1.03125 -4.296875 -2.921875q-1.484375 -1.90625 -1.484375 -3.875q0 -1.328125 0.453125 -3.203125q0.453125 -1.890625 0.453125 -3.046875q0 -1.484375 -1.0625 -2.71875q-1.0625 -1.25 -3.359375 -1.796875z" fill-rule="nonzero"/><path fill="#ff00ff" d="m621.14417 585.84485l10.623535 0l0 -10.623535l10.00061 0l0 10.623535l10.623535 0l0 10.00061l-10.623535 0l0 10.623535l-10.00061 0l0 -10.623535l-10.623535 0z" fill-rule="evenodd"/><path fill="#9900ff" d="m658.0277 590.84515l15.292664 -5.967224l5.967224 -15.292603l5.967163 15.292603l15.292664 5.967224l-15.292664 5.967163l-5.967163 15.292664l-5.967224 -15.292664z" fill-rule="evenodd"/><path fill="#ff9900" d="m705.4268 605.69556l17.181091 -29.700806l17.181091 29.700806z" fill-rule="evenodd"/><path fill="#000000" fill-opacity="0.0" d="m323.30716 601.2808l320.78738 0l0 100.188965l-320.78738 0z" fill-rule="evenodd"/><path fill="#000000" d="m393.67548 638.6816l-2.015625 22.03125q-0.15625 1.546875 -0.15625 2.03125q0 0.78125 0.296875 1.1875q0.375 0.578125 1.0 0.859375q0.640625 0.265625 2.140625 0.265625l-0.21875 0.71875l-10.421875 0l0.21875 -0.71875l0.4375 0q1.28125 0 2.078125 -0.546875q0.5625 -0.375 0.875 -1.234375q0.21875 -0.609375 0.40625 -2.859375l0.3125 -3.359375l-7.578125 0l-2.6875 3.65625q-0.921875 1.234375 -1.15625 1.78125q-0.234375 0.53125 -0.234375 1.0q0 0.625 0.5 1.078125q0.515625 0.4375 1.6875 0.484375l-0.21875 0.71875l-7.828125 0l0.21875 -0.71875q1.4375 -0.0625 2.546875 -0.96875q1.109375 -0.90625 3.296875 -3.875l15.8125 -21.53125l0.6875 0zm-3.875 6.5l-7.671875 10.453125l6.65625 0l1.015625 -10.453125zm13.605469 20.59375l-2.15625 0l0 -10.9375q0 -4.84375 0.125 -6.140625q0.234375 -2.3125 0.859375 -3.796875q0.625 -1.484375 1.984375 -2.921875q1.375 -1.4375 3.390625 -2.328125q2.015625 -0.90625 4.28125 -0.90625q2.1875 0 4.171875 0.859375q2.0 0.859375 3.46875 2.34375q1.46875 1.46875 2.09375 3.125q0.625 1.65625 0.8125 4.140625q0.078125 0.96875 0.078125 5.625l0 10.9375l-2.125 0l0 -11.0625q0 -4.25 -0.109375 -5.484375q-0.21875 -2.171875 -0.71875 -3.4375q-0.5 -1.28125 -1.5625 -2.40625q-1.0625 -1.125 -2.71875 -1.84375q-1.640625 -0.734375 -3.40625 -0.734375q-1.4375 0 -2.796875 0.5q-1.359375 0.5 -2.328125 1.234375q-0.96875 0.734375 -1.5625 1.515625q-0.59375 0.765625 -0.875 1.4375q-0.484375 1.171875 -0.703125 2.875q-0.203125 1.6875 -0.203125 6.34375l0 11.0625zm28.902344 -25.765625l0.265625 -0.71875l9.453125 0q2.390625 0 4.25 0.75q1.875 0.734375 2.796875 2.0625q0.921875 1.328125 0.921875 2.8125q0 2.28125 -1.65625 4.125q-1.640625 1.84375 -5.375 2.734375q2.40625 0.890625 3.53125 2.375q1.140625 1.484375 1.140625 3.265625q0 1.96875 -1.015625 3.765625q-1.015625 1.796875 -2.609375 2.796875q-1.59375 1.0 -3.828125 1.46875q-1.609375 0.328125 -5.0 0.328125l-9.71875 0l0.25 -0.71875q1.53125 -0.046875 2.078125 -0.296875q0.78125 -0.328125 1.109375 -0.875q0.46875 -0.75 1.25 -3.40625l4.75 -16.03125q0.609375 -2.03125 0.609375 -2.859375q0 -0.71875 -0.546875 -1.140625q-0.53125 -0.421875 -2.03125 -0.421875q-0.328125 0 -0.625 -0.015625zm3.96875 11.0q1.265625 0.03125 1.828125 0.03125q4.0625 0 6.046875 -1.765625q1.984375 -1.765625 1.984375 -4.421875q0 -2.015625 -1.21875 -3.125q-1.203125 -1.125 -3.859375 -1.125q-0.703125 0 -1.796875 0.234375l-2.984375 10.171875zm-3.859375 13.046875q2.109375 0.265625 3.3125 0.265625q3.046875 0 5.390625 -1.828125q2.359375 -1.84375 2.359375 -4.984375q0 -2.40625 -1.453125 -3.75q-1.453125 -1.34375 -4.703125 -1.34375q-0.625 0 -1.515625 0.0625l-3.390625 11.578125z" fill-rule="nonzero"/><path fill="#000000" d="m461.53876 648.5253l21.078125 0l0 1.609375l-21.078125 0l0 -1.609375zm0 6.375l21.078125 0l0 1.59375l-21.078125 0l0 -1.59375zm48.26172 18.828125l0 0.6875q-3.25 -0.453125 -5.296875 -2.65625q-2.046875 -2.1875 -2.046875 -4.875q0 -1.40625 0.453125 -3.265625q0.453125 -1.875 0.453125 -2.90625q0 -1.40625 -1.1875 -2.625q-1.171875 -1.21875 -3.265625 -1.5l0 -0.796875q2.09375 -0.265625 3.265625 -1.46875q1.1875 -1.21875 1.1875 -2.65625q0 -1.03125 -0.453125 -2.875q-0.453125 -1.859375 -0.453125 -3.296875q0 -2.65625 2.046875 -4.859375q2.046875 -2.203125 5.296875 -2.640625l0 0.6875q-2.28125 0.546875 -3.34375 1.796875q-1.0625 1.234375 -1.0625 2.71875q0 1.15625 0.4375 3.046875q0.4375 1.875 0.4375 3.203125q0 1.96875 -1.453125 3.828125q-1.4375 1.859375 -4.3125 2.875q2.8125 1.03125 4.28125 2.921875q1.484375 1.890625 1.484375 3.875q0 1.328125 -0.4375 3.203125q-0.4375 1.890625 -0.4375 3.046875q0 1.484375 1.0625 2.71875q1.0625 1.25 3.34375 1.8125zm6.2304688 -35.046875l0 -0.6875q3.265625 0.4375 5.296875 2.640625q2.046875 2.1875 2.046875 4.890625q0 1.40625 -0.453125 3.265625q-0.4375 1.84375 -0.4375 2.875q0 1.40625 1.171875 2.640625q1.1875 1.21875 3.28125 1.484375l0 0.796875q-2.09375 0.28125 -3.28125 1.5q-1.171875 1.21875 -1.171875 2.625q0 1.03125 0.4375 2.90625q0.453125 1.859375 0.453125 3.265625q0 2.65625 -2.046875 4.859375q-2.03125 2.21875 -5.296875 2.671875l0 -0.6875q2.296875 -0.5625 3.359375 -1.796875q1.0625 -1.234375 1.0625 -2.734375q0 -1.15625 -0.453125 -3.046875q-0.453125 -1.875 -0.453125 -3.1875q0 -2.0 1.453125 -3.84375q1.46875 -1.859375 4.328125 -2.875q-2.8125 -1.03125 -4.296875 -2.921875q-1.484375 -1.90625 -1.484375 -3.875q0 -1.328125 0.453125 -3.203125q0.453125 -1.890625 0.453125 -3.046875q0 -1.484375 -1.0625 -2.71875q-1.0625 -1.25 -3.359375 -1.796875zm26.464844 9.84375l21.078125 0l0 1.609375l-21.078125 0l0 -1.609375zm0 6.375l21.078125 0l0 1.59375l-21.078125 0l0 -1.59375z" fill-rule="nonzero"/><path fill="#000000" d="m589.4919 645.9316q-1.875 -2.1875 -5.15625 -2.1875q-3.28125 0 -5.46875 2.1875q-2.1875 2.1875 -2.1875 5.46875q0 2.34375 1.71875 4.6875l11.09375 -10.15625zm-5.15625 13.125q3.28125 0 5.46875 -2.1875q2.1875 -2.1875 2.1875 -5.46875q0 -2.65625 -1.5625 -4.6875l-11.25 10.3125q2.1875 2.03125 5.15625 2.03125zm0 1.09375q-3.28125 0 -5.9375 -2.34375l-2.34375 2.03125l-0.9375 -0.9375l2.34375 -2.03125q-1.875 -2.1875 -1.875 -5.46875q0 -3.75 2.34375 -6.09375q2.65625 -2.65625 6.40625 -2.65625q3.59375 0 5.9375 2.34375l2.5 -2.1875l0.9375 0.9375l-2.5 2.1875q1.875 2.34375 1.875 5.46875q0 3.75 -2.1875 5.9375q-2.8125 2.8125 -6.5625 2.8125z" fill-rule="nonzero"/></g></svg>