<svg width="169" height="90" viewBox="0 0 169 90" fill="none" xmlns="http://www.w3.org/2000/svg">
<g clip-path="url(#clip0_1156_1443)">
<path d="M84.3951 52.2579C88.122 57.522 91.1555 57.6946 92.8022 57.6946H106.236C112.043 57.6946 108.837 53.2934 108.23 52.6894L74.7745 7.383C73.7256 6.24209 72.4347 5.3481 70.9954 4.76594C69.5562 4.18378 68.0049 3.92807 66.454 4.01738H55.5334C51.5465 4.01738 49.7263 6.86521 51.9798 9.10895L84.3951 52.2579Z" fill="#FF6319"/>
<path d="M55.3838 54.2808C54.9504 54.7986 52.697 57.7327 46.1099 57.7327H35.8826C31.2024 57.7327 31.9824 54.4534 33.7158 52.7275L55.5571 30.2037C57.3773 28.3915 59.7174 29.8586 60.0641 30.3763L65.8711 37.6254C66.3044 38.1431 67.8645 40.8184 65.8711 42.7169L55.3838 54.2808Z" fill="#FF6319"/>
<path d="M95.1662 19.3309C96.7148 18.1306 98.4898 17.2523 100.386 16.7483C102.282 16.2443 104.26 16.1248 106.204 16.397C108.147 16.6691 110.016 17.3273 111.699 18.3324C113.382 19.3376 114.845 20.6692 116.001 22.2483C117.157 23.8273 117.982 25.6215 118.428 27.5244C118.874 29.4273 118.932 31.4 118.597 33.3254C118.263 35.2508 117.543 37.0897 116.481 38.7328C115.418 40.3758 114.035 41.7896 112.414 42.8902C112.152 43.1549 112.006 43.5113 112.006 43.8826C112.006 44.2539 112.152 44.6103 112.414 44.8751C113.107 45.8243 119.261 54.3678 120.041 55.2308C120.388 55.5852 120.855 55.7991 121.351 55.8309C121.847 55.8628 122.338 55.7105 122.728 55.4034C129.302 50.5054 133.653 43.2078 134.823 35.1158C135.993 27.0238 133.887 18.8003 128.968 12.2545C124.049 5.70862 116.72 1.37657 108.593 0.211324C100.466 -0.953922 92.2065 1.14309 85.6323 6.04104C85.3319 6.30708 85.1397 6.67331 85.0918 7.07071C85.0439 7.46812 85.1437 7.86924 85.3723 8.19848C85.6323 8.62997 92.826 18.4679 93.0861 18.7268C93.3461 18.9857 94.0395 20.1939 95.1662 19.3309Z" fill="#FF6319"/>
<path d="M14.561 72.0588H2.08023C1.30019 72.0588 0.000109239 72.3177 0.000109239 74.3026V86.298C-0.0177048 86.5746 0.0238917 86.8518 0.122127 87.1111C0.220362 87.3704 0.372979 87.6059 0.569808 87.8019C0.766637 87.9979 1.00316 88.1498 1.2636 88.2477C1.52405 88.3455 1.80245 88.3869 2.08023 88.3691C2.34918 88.3997 2.62159 88.3689 2.87685 88.2792C3.13211 88.1895 3.36355 88.0432 3.55365 87.8513C3.73225 87.67 3.87077 87.4535 3.96033 87.2157C4.04989 86.9779 4.0885 86.7241 4.07368 86.4706V82.242H8.58062C8.86221 82.2638 9.14533 82.2292 9.41328 82.1403C9.68123 82.0513 9.92857 81.9099 10.1407 81.7242C10.3201 81.5258 10.4584 81.2941 10.5476 81.0423C10.6369 80.7906 10.6753 80.5237 10.6607 80.2571C10.6607 78.9627 9.96737 78.2723 8.58062 78.186H3.98701V76.6326C3.98701 76.0285 4.24703 76.0285 4.42037 76.0285H14.561C15.0061 76.0453 15.4406 75.8908 15.7744 75.5971C16.1119 75.1489 16.2944 74.6039 16.2944 74.0437C16.2944 73.4835 16.1119 72.9385 15.7744 72.4903C15.4406 72.1966 15.0061 72.0421 14.561 72.0588Z" fill="#FF6319"/>
<path d="M22.7086 72.1454C22.4359 72.1173 22.1604 72.1487 21.9011 72.2373C21.6418 72.3259 21.405 72.4696 21.2071 72.6584C21.0092 72.8473 20.855 73.0767 20.755 73.3309C20.6551 73.585 20.6119 73.8578 20.6284 74.1302V86.3845C20.6284 87.679 21.3218 88.3694 22.7086 88.4557C22.977 88.4779 23.247 88.4432 23.501 88.3539C23.755 88.2647 23.987 88.1229 24.182 87.9379C24.3614 87.7395 24.4997 87.5077 24.5889 87.256C24.6782 87.0042 24.7166 86.7374 24.702 86.4708V74.2165C24.7166 73.9499 24.6782 73.6831 24.5889 73.4314C24.4997 73.1796 24.3614 72.9479 24.182 72.7495C24.0118 72.5283 23.7858 72.3559 23.527 72.2498C23.2682 72.1437 22.9859 72.1077 22.7086 72.1454Z" fill="#FF6319"/>
<path d="M66.9115 72.1448H57.1176C54.3441 72.1448 52.3506 72.9215 51.3106 74.3886C50.7699 75.2386 50.4982 76.2308 50.5305 77.2364C50.4914 77.9703 50.6374 78.7023 50.9554 79.3655C51.2733 80.0288 51.753 80.6022 52.3506 81.0335C53.3639 81.8247 54.6165 82.2506 55.9042 82.2417H62.8379C63.5313 82.2417 63.878 82.4143 64.0513 82.6732L64.138 83.2772L64.0513 83.8813L63.5313 84.1402C62.8776 84.2867 62.2071 84.3448 61.5379 84.3128H52.264C51.1372 84.3128 50.4439 85.0895 50.4439 86.384C50.422 86.6643 50.4567 86.9462 50.546 87.213C50.6353 87.4798 50.7774 87.7261 50.9639 87.9373C51.1403 88.119 51.3597 88.2538 51.602 88.3292C51.8443 88.4045 52.1017 88.4182 52.3506 88.3688H61.4512C64.3113 88.3688 66.3048 87.5921 67.3449 86.1251C67.8855 85.275 68.1573 84.2829 68.1249 83.2772C68.1641 82.5433 68.018 81.8114 67.7001 81.1481C67.3821 80.4849 66.9025 79.9114 66.3048 79.4801C65.2916 78.689 64.0389 78.2631 62.7513 78.272H55.7308C55.0375 78.272 54.6908 78.0994 54.5174 77.8405L54.4308 77.2364L54.5174 76.6323L55.0375 76.3734L57.0309 76.1145H66.9982C67.4433 76.1313 67.8778 75.9768 68.2116 75.683C68.3981 75.4718 68.5401 75.2255 68.6294 74.9588C68.7188 74.692 68.7535 74.4101 68.7316 74.1297C68.7623 73.8619 68.7314 73.5907 68.6413 73.3365C68.5512 73.0823 68.4043 72.8519 68.2116 72.6626C68.0593 72.4706 67.8591 72.3217 67.631 72.2309C67.4029 72.14 67.1548 72.1103 66.9115 72.1448Z" fill="#FF6319"/>
<path d="M73.1509 72.5765C72.8133 73.0246 72.6309 73.5697 72.6309 74.1298C72.6309 74.69 72.8133 75.2351 73.1509 75.6832C73.3218 75.8468 73.5271 75.9704 73.752 76.0451C73.9769 76.1197 74.2157 76.1435 74.451 76.1147H79.998C80.258 76.1147 80.518 76.2873 80.6047 76.8914V86.7293C80.5686 86.9771 80.5888 87.2297 80.6638 87.4687C80.7388 87.7077 80.8667 87.9268 81.038 88.1101C81.2502 88.2957 81.4975 88.4372 81.7655 88.5261C82.0334 88.6151 82.3165 88.6497 82.5981 88.6279C82.8669 88.6564 83.1388 88.6247 83.3937 88.5351C83.6486 88.4454 83.8801 88.3001 84.0712 88.1098C84.2624 87.9194 84.4083 87.6889 84.4984 87.4351C84.5884 87.1813 84.6203 86.9107 84.5916 86.643V76.8051C84.5916 76.1147 84.8516 76.1147 85.1116 76.1147H89.8786C90.1601 76.1365 90.4433 76.1019 90.7112 76.013C90.9792 75.924 91.2265 75.7826 91.4386 75.5969C91.618 75.3985 91.7563 75.1667 91.8456 74.915C91.9348 74.6632 91.9732 74.3964 91.9587 74.1298C91.9765 73.8532 91.9349 73.5761 91.8367 73.3167C91.7384 73.0574 91.5858 72.8219 91.389 72.6259C91.1921 72.4299 90.9556 72.278 90.6952 72.1802C90.4347 72.0824 90.1563 72.0409 89.8786 72.0587H74.451C74.21 72.0502 73.9699 72.0919 73.7461 72.1811C73.5222 72.2702 73.3195 72.4049 73.1509 72.5765Z" fill="#FF6319"/>
<path d="M36.3162 71.8861H30.8558C30.5974 71.8702 30.3387 71.9122 30.0987 72.0089C29.8587 72.1056 29.6435 72.2546 29.4689 72.445C29.2944 72.6354 29.1648 72.8623 29.0899 73.109C29.0149 73.3558 28.9964 73.6161 29.0357 73.8709C29.0138 74.1513 29.0486 74.4332 29.1379 74.7C29.2272 74.9668 29.3693 75.2131 29.5558 75.4243C29.8966 75.7059 30.3263 75.8587 30.7692 75.8558H39.0897C39.7645 75.8191 40.4403 75.9069 41.0831 76.1147L41.6032 76.3736L41.6898 76.9777L41.6032 77.5818C41.4298 77.8406 41.0831 78.0132 40.3897 78.0132H34.5827C34.3101 77.9852 34.0345 78.0166 33.7753 78.1052C33.516 78.1938 33.2792 78.3375 33.0813 78.5263C32.8834 78.7151 32.7291 78.9446 32.6292 79.1988C32.5293 79.4529 32.4861 79.7257 32.5026 79.9981V80.1707C32.5716 80.772 32.8123 81.341 33.196 81.8103L42.7299 89.3182C43.0782 89.6953 43.5544 89.9304 44.0667 89.9782C44.5789 90.026 45.0908 89.8831 45.5034 89.5771C45.9353 89.2598 46.242 88.8018 46.3701 88.2827V88.1101C46.3522 87.6317 46.1684 87.1743 45.8501 86.8156C45.7634 86.7293 41.3431 83.6226 39.0897 82.0692H40.3897C41.6803 82.0967 42.9391 81.6687 43.9433 80.8611C44.541 80.4298 45.0206 79.8564 45.3386 79.1931C45.6565 78.5298 45.8025 77.7979 45.7634 77.064C45.7962 76.0853 45.5237 75.1206 44.9834 74.3024C43.9433 72.8354 41.9498 72.0587 39.1763 71.9724C39.1763 71.8861 36.3162 71.8861 36.3162 71.8861Z" fill="#FF6319"/>
<path d="M104.005 72.0587C103.735 72.0251 103.461 72.0532 103.204 72.1411C102.947 72.2289 102.713 72.3741 102.521 72.5656C102.329 72.7571 102.183 72.9898 102.095 73.2459C102.006 73.502 101.978 73.7749 102.012 74.0435V85.5212C102.012 86.9882 102.792 87.8512 104.179 87.8512H115.966C116.435 87.8537 116.892 87.7021 117.266 87.4197C117.446 87.2213 117.584 86.9895 117.673 86.7378C117.762 86.486 117.801 86.2192 117.786 85.9526C117.786 84.7445 117.179 83.9678 116.053 83.9678H106.692C106.345 83.9678 106.259 83.8815 106.259 83.7952C106.159 83.6763 106.085 83.5385 106.04 83.3902C105.996 83.2419 105.981 83.0861 105.999 82.9322V74.0435C106.014 73.5212 105.862 73.0075 105.565 72.5765C105.122 72.2277 104.57 72.0445 104.005 72.0587Z" fill="#FF6319"/>
<path d="M123.941 72.0587C123.671 72.0251 123.397 72.0532 123.14 72.1411C122.883 72.2289 122.649 72.3741 122.457 72.5656C122.264 72.7571 122.118 72.9898 122.03 73.2459C121.942 73.502 121.914 73.7749 121.947 74.0435V85.8663C121.92 86.1336 121.953 86.4036 122.044 86.6567C122.135 86.9097 122.281 87.1395 122.471 87.3295C122.662 87.5195 122.893 87.6649 123.147 87.7551C123.401 87.8453 123.672 87.8781 123.941 87.8512C124.209 87.8657 124.477 87.8274 124.729 87.7386C124.982 87.6497 125.215 87.512 125.414 87.3334C125.595 87.1385 125.728 86.9047 125.803 86.6503C125.878 86.3958 125.893 86.1276 125.848 85.8663V74.0435C125.863 73.5212 125.711 73.0075 125.414 72.5765C125.215 72.3979 124.982 72.2602 124.729 72.1713C124.477 72.0825 124.209 72.0442 123.941 72.0587Z" fill="#FF6319"/>
<path d="M166.843 71.9727H154.882C154.102 71.9727 152.889 72.2316 152.889 74.2165V85.5215C152.889 86.9886 153.582 87.7653 154.969 87.7653H166.843C167.314 87.7828 167.776 87.6295 168.143 87.3338C168.322 87.1354 168.461 86.9036 168.55 86.6519C168.639 86.4001 168.678 86.1333 168.663 85.8667C168.663 84.6585 168.056 83.8819 166.93 83.8819H157.222L156.962 83.7956C156.897 83.631 156.867 83.4545 156.876 83.2778V81.897H161.209C161.491 81.9188 161.774 81.8842 162.042 81.7953C162.31 81.7063 162.557 81.5649 162.769 81.3792C162.948 81.1979 163.086 80.9814 163.176 80.7436C163.266 80.5058 163.304 80.252 163.289 79.9985C163.323 79.7298 163.295 79.4569 163.207 79.2008C163.118 78.9447 162.972 78.712 162.78 78.5205C162.588 78.329 162.354 78.1838 162.097 78.096C161.84 78.0081 161.566 77.98 161.296 78.0136H156.876V76.5465C156.876 76.0287 157.136 75.9424 157.309 75.9424H167.016C167.461 75.9592 167.896 75.8047 168.23 75.511C168.409 75.3125 168.547 75.0808 168.637 74.8291C168.726 74.5773 168.764 74.3105 168.75 74.0439C168.772 73.7767 168.737 73.5078 168.647 73.2549C168.558 73.002 168.415 72.7709 168.23 72.5768C168.054 72.3843 167.84 72.2309 167.601 72.1268C167.362 72.0226 167.104 71.9702 166.843 71.9727Z" fill="#FF6319"/>
<path d="M130.354 72.4037C130.174 72.6021 130.036 72.8338 129.947 73.0856C129.858 73.3373 129.819 73.6041 129.834 73.8707C129.803 74.1385 129.834 74.4098 129.924 74.6639C130.014 74.9181 130.161 75.1485 130.354 75.3378C130.688 75.6315 131.122 75.786 131.567 75.7693H136.941C137.201 75.7693 137.461 75.9419 137.461 76.4597V85.9524C137.432 86.1999 137.456 86.4506 137.531 86.6884C137.606 86.9262 137.729 87.1459 137.894 87.3332C138.106 87.5189 138.354 87.6603 138.622 87.7493C138.89 87.8382 139.173 87.8728 139.454 87.851C139.722 87.8655 139.99 87.8272 140.243 87.7384C140.496 87.6495 140.729 87.5118 140.928 87.3332C141.114 87.1391 141.256 86.908 141.346 86.6551C141.435 86.4023 141.47 86.1334 141.448 85.8661V76.3734C141.448 75.7693 141.708 75.7693 141.881 75.7693H146.475C146.756 75.7911 147.039 75.7565 147.307 75.6676C147.575 75.5786 147.823 75.4372 148.035 75.2515C148.213 75.0702 148.352 74.8537 148.442 74.6159C148.531 74.3781 148.57 74.1243 148.555 73.8707C148.579 73.5964 148.542 73.3201 148.444 73.0623C148.347 72.8045 148.193 72.5717 147.993 72.3811C147.794 72.1906 147.554 72.0472 147.291 71.9614C147.028 71.8757 146.749 71.8499 146.475 71.8859H131.654C131.185 71.9516 130.739 72.1293 130.354 72.4037Z" fill="#FF6319"/>
</g>
<defs>
<clipPath id="clip0_1156_1443">
<rect width="168.75" height="90" fill="white"/>
</clipPath>
</defs>
</svg>
