<svg width="457" height="182" viewBox="0 0 457 182" fill="none" xmlns="http://www.w3.org/2000/svg">
<path d="M51.0391 10.6909L1.53906 89.6909H51.0391M51.0391 10.6909V89.6909M51.0391 10.6909L100.539 89.6909H51.0391" stroke="#AAE683"/>
<path d="M1.53906 89.6909L51.0391 10.6909V89.6909H1.53906Z" fill="#AAE683"/>
<path d="M51.0391 10.6909L1.53906 89.6909H51.0391M51.0391 10.6909V89.6909M51.0391 10.6909L100.539 89.6909H51.0391" stroke="#43800F"/>
<path d="M54.9746 132.725H47.1036V131.241H50.1306V121.495H47.1036V120.166C47.5136 120.166 47.9526 120.134 48.4216 120.069C48.8906 119.997 49.2456 119.896 49.4866 119.766C49.7856 119.603 50.0196 119.398 50.1896 119.151C50.3646 118.897 50.4656 118.558 50.4916 118.135H52.0056V131.241H54.9746V132.725Z" fill="#202020"/>
<path d="M55.9611 158.539H46.1171V156.498C46.8011 155.912 47.484 155.326 48.168 154.74C48.858 154.154 49.499 153.572 50.092 152.992C51.342 151.781 52.198 150.821 52.66 150.111C53.122 149.395 53.3531 148.624 53.3531 147.797C53.3531 147.042 53.1031 146.452 52.6021 146.029C52.1071 145.6 51.4131 145.385 50.5211 145.385C49.9291 145.385 49.2881 145.489 48.5981 145.697C47.9071 145.906 47.234 146.225 46.576 146.654H46.4781V144.603C46.9411 144.376 47.556 144.167 48.324 143.978C49.099 143.79 49.8481 143.695 50.5701 143.695C52.0611 143.695 53.23 144.057 54.076 144.779C54.922 145.495 55.3461 146.469 55.3461 147.699C55.3461 148.253 55.274 148.77 55.131 149.252C54.994 149.727 54.7891 150.18 54.5161 150.609C54.2621 151.013 53.9621 151.41 53.6171 151.801C53.2791 152.191 52.8651 152.624 52.3771 153.1C51.6801 153.783 50.9611 154.447 50.2191 155.092C49.4771 155.73 48.783 156.322 48.139 156.869H55.9611V158.539Z" fill="#202020"/>
<path d="M43.5391 138.229H58.5391" stroke="#202020"/>
<path d="M28.8667 174.363C28.8667 175.696 28.5249 176.749 27.8413 177.52C27.1577 178.292 26.2422 178.677 25.0947 178.677C23.9375 178.677 23.0171 178.292 22.3335 177.52C21.6548 176.749 21.3154 175.696 21.3154 174.363C21.3154 173.03 21.6548 171.978 22.3335 171.207C23.0171 170.43 23.9375 170.042 25.0947 170.042C26.2422 170.042 27.1577 170.43 27.8413 171.207C28.5249 171.978 28.8667 173.03 28.8667 174.363ZM27.4458 174.363C27.4458 173.304 27.2383 172.518 26.8232 172.005C26.4082 171.487 25.832 171.229 25.0947 171.229C24.3477 171.229 23.7666 171.487 23.3516 172.005C22.9414 172.518 22.7363 173.304 22.7363 174.363C22.7363 175.389 22.9438 176.167 23.3589 176.7C23.7739 177.227 24.3525 177.491 25.0947 177.491C25.8271 177.491 26.4009 177.229 26.8159 176.707C27.2358 176.18 27.4458 175.398 27.4458 174.363ZM37.8462 178.45H36.4692V173.792C36.4692 173.416 36.4473 173.064 36.4033 172.737C36.3594 172.405 36.2788 172.146 36.1616 171.961C36.0396 171.756 35.8638 171.604 35.6343 171.507C35.4048 171.404 35.1069 171.353 34.7407 171.353C34.3647 171.353 33.9717 171.446 33.5615 171.631C33.1514 171.817 32.7583 172.054 32.3823 172.342V178.45H31.0054V170.269H32.3823V171.177C32.812 170.821 33.2563 170.542 33.7153 170.342C34.1743 170.142 34.6455 170.042 35.1289 170.042C36.0127 170.042 36.6865 170.308 37.1504 170.84C37.6143 171.373 37.8462 172.139 37.8462 173.14V178.45ZM47.3457 174.502H41.3179C41.3179 175.005 41.3936 175.445 41.5449 175.821C41.6963 176.192 41.9038 176.497 42.1675 176.736C42.4214 176.971 42.7217 177.146 43.0684 177.264C43.4199 177.381 43.8057 177.439 44.2256 177.439C44.7822 177.439 45.3413 177.33 45.9028 177.11C46.4692 176.885 46.8721 176.666 47.1113 176.451H47.1846V177.952C46.7207 178.147 46.2471 178.311 45.7637 178.443C45.2803 178.575 44.7725 178.641 44.2402 178.641C42.8828 178.641 41.8232 178.274 41.0615 177.542C40.2998 176.805 39.9189 175.76 39.9189 174.407C39.9189 173.069 40.2827 172.007 41.0103 171.221C41.7427 170.435 42.7046 170.042 43.896 170.042C44.9995 170.042 45.8491 170.364 46.4448 171.009C47.0454 171.653 47.3457 172.569 47.3457 173.755V174.502ZM46.0054 173.448C46.0005 172.725 45.8174 172.166 45.4561 171.771C45.0996 171.375 44.5552 171.177 43.8228 171.177C43.0854 171.177 42.4971 171.395 42.0576 171.829C41.623 172.264 41.3765 172.803 41.3179 173.448H46.0054ZM61.5474 178.45H60.1704V173.792C60.1704 173.416 60.1484 173.064 60.1045 172.737C60.0605 172.405 59.98 172.146 59.8628 171.961C59.7407 171.756 59.5649 171.604 59.3354 171.507C59.106 171.404 58.8081 171.353 58.4419 171.353C58.0659 171.353 57.6729 171.446 57.2627 171.631C56.8525 171.817 56.4595 172.054 56.0835 172.342V178.45H54.7065V167.054H56.0835V171.177C56.5132 170.821 56.9575 170.542 57.4165 170.342C57.8755 170.142 58.3467 170.042 58.8301 170.042C59.7139 170.042 60.3877 170.308 60.8516 170.84C61.3154 171.373 61.5474 172.139 61.5474 173.14V178.45ZM70.5562 178.45H69.1865V177.579C69.0645 177.662 68.8984 177.779 68.6885 177.93C68.4834 178.077 68.2832 178.194 68.0879 178.282C67.8584 178.394 67.5947 178.487 67.2969 178.56C66.999 178.638 66.6499 178.677 66.2495 178.677C65.5122 178.677 64.8872 178.433 64.3745 177.945C63.8618 177.457 63.6055 176.834 63.6055 176.077C63.6055 175.457 63.7373 174.957 64.001 174.576C64.2695 174.19 64.6504 173.887 65.1436 173.667C65.6416 173.448 66.2397 173.299 66.938 173.221C67.6362 173.143 68.3857 173.084 69.1865 173.045V172.833C69.1865 172.52 69.1304 172.261 69.0181 172.056C68.9106 171.851 68.7544 171.69 68.5493 171.573C68.354 171.46 68.1196 171.385 67.8462 171.346C67.5728 171.307 67.2871 171.287 66.9893 171.287C66.6279 171.287 66.2251 171.336 65.7808 171.434C65.3364 171.526 64.8774 171.663 64.4038 171.844H64.3306V170.445C64.5991 170.372 64.9873 170.291 65.4951 170.203C66.0029 170.115 66.5034 170.071 66.9966 170.071C67.5728 170.071 68.0732 170.12 68.498 170.218C68.9277 170.311 69.2988 170.472 69.6113 170.701C69.9189 170.926 70.1533 171.216 70.3145 171.573C70.4756 171.929 70.5562 172.371 70.5562 172.898V178.45ZM69.1865 176.436V174.158C68.7666 174.183 68.271 174.219 67.6997 174.268C67.1333 174.317 66.6841 174.388 66.3521 174.48C65.9565 174.593 65.6367 174.769 65.3926 175.008C65.1484 175.242 65.0264 175.567 65.0264 175.982C65.0264 176.451 65.168 176.805 65.4512 177.044C65.7344 177.278 66.1665 177.396 66.7476 177.396C67.231 177.396 67.6729 177.303 68.0732 177.117C68.4736 176.927 68.8447 176.7 69.1865 176.436ZM74.5991 178.45H73.2222V167.054H74.5991V178.45ZM81.7256 168.387H81.6523C81.501 168.343 81.3032 168.299 81.0591 168.255C80.8149 168.206 80.6001 168.182 80.4146 168.182C79.8237 168.182 79.394 168.313 79.1255 168.577C78.8618 168.836 78.73 169.307 78.73 169.991V170.269H81.2129V171.426H78.7739V178.45H77.397V171.426H76.4668V170.269H77.397V169.998C77.397 169.026 77.6387 168.282 78.1221 167.764C78.6055 167.242 79.3037 166.98 80.2168 166.98C80.5244 166.98 80.8003 166.995 81.0444 167.024C81.2935 167.054 81.5205 167.088 81.7256 167.127V168.387Z" fill="#202020"/>
<path d="M228.47 99.9409C255.808 99.9409 277.97 77.779 277.97 50.4409C277.97 23.1028 255.808 0.940918 228.47 0.940918C201.132 0.940918 178.97 23.1028 178.97 50.4409C178.97 77.779 201.132 99.9409 228.47 99.9409Z" stroke="#43800F"/>
<path d="M228.47 99.9409C255.808 99.9409 277.97 77.779 277.97 50.4409C277.97 23.1028 255.808 0.940918 228.47 0.940918C201.132 0.940918 178.97 23.1028 178.97 50.4409C178.97 77.779 201.132 99.9409 228.47 99.9409Z" stroke="#8E47C9"/>
<path d="M228.473 99.9409C255.811 99.9409 277.973 77.779 277.973 50.4409C277.973 23.1028 255.811 0.940918 228.473 0.940918L228.473 49.9392L185.446 74.9302C193.967 89.8694 210.044 99.9409 228.473 99.9409Z" fill="#D6B0FF" stroke="#8E47C9"/>
<path d="M228.47 49.9409V0.440918" stroke="#8E47C9"/>
<path d="M228.47 49.9409L271.771 74.9409" stroke="#8E47C9"/>
<path d="M185.168 74.9409L228.47 49.9409" stroke="#8E47C9"/>
<path d="M196.074 178.377C195.816 178.445 195.532 178.501 195.225 178.545C194.922 178.589 194.651 178.611 194.412 178.611C193.577 178.611 192.942 178.387 192.508 177.938C192.073 177.488 191.856 176.768 191.856 175.777V171.426H190.926V170.269H191.856V167.918H193.233V170.269H196.074V171.426H193.233V175.154C193.233 175.584 193.242 175.921 193.262 176.165C193.281 176.404 193.35 176.629 193.467 176.839C193.574 177.034 193.721 177.178 193.906 177.271C194.097 177.359 194.385 177.403 194.771 177.403C194.995 177.403 195.23 177.371 195.474 177.308C195.718 177.239 195.894 177.183 196.001 177.139H196.074V178.377ZM208.035 170.269L205.904 178.45H204.629L202.527 172.144L200.44 178.45H199.173L197.019 170.269H198.455L199.956 176.604L202 170.269H203.135L205.23 176.604L206.651 170.269H208.035ZM216.992 174.363C216.992 175.696 216.651 176.749 215.967 177.52C215.283 178.292 214.368 178.677 213.22 178.677C212.063 178.677 211.143 178.292 210.459 177.52C209.781 176.749 209.441 175.696 209.441 174.363C209.441 173.03 209.781 171.978 210.459 171.207C211.143 170.43 212.063 170.042 213.22 170.042C214.368 170.042 215.283 170.43 215.967 171.207C216.651 171.978 216.992 173.03 216.992 174.363ZM215.572 174.363C215.572 173.304 215.364 172.518 214.949 172.005C214.534 171.487 213.958 171.229 213.22 171.229C212.473 171.229 211.892 171.487 211.477 172.005C211.067 172.518 210.862 173.304 210.862 174.363C210.862 175.389 211.07 176.167 211.485 176.7C211.9 177.227 212.478 177.491 213.22 177.491C213.953 177.491 214.527 177.229 214.942 176.707C215.362 176.18 215.572 175.398 215.572 174.363ZM228.653 178.377C228.394 178.445 228.111 178.501 227.803 178.545C227.5 178.589 227.229 178.611 226.99 178.611C226.155 178.611 225.52 178.387 225.086 177.938C224.651 177.488 224.434 176.768 224.434 175.777V171.426H223.504V170.269H224.434V167.918H225.811V170.269H228.653V171.426H225.811V175.154C225.811 175.584 225.821 175.921 225.84 176.165C225.86 176.404 225.928 176.629 226.045 176.839C226.153 177.034 226.299 177.178 226.485 177.271C226.675 177.359 226.963 177.403 227.349 177.403C227.573 177.403 227.808 177.371 228.052 177.308C228.296 177.239 228.472 177.183 228.579 177.139H228.653V178.377ZM237.163 178.45H235.786V173.792C235.786 173.416 235.764 173.064 235.72 172.737C235.677 172.405 235.596 172.146 235.479 171.961C235.357 171.756 235.181 171.604 234.951 171.507C234.722 171.404 234.424 171.353 234.058 171.353C233.682 171.353 233.289 171.446 232.879 171.631C232.469 171.817 232.075 172.054 231.699 172.342V178.45H230.323V167.054H231.699V171.177C232.129 170.821 232.573 170.542 233.032 170.342C233.491 170.142 233.963 170.042 234.446 170.042C235.33 170.042 236.004 170.308 236.468 170.84C236.931 171.373 237.163 172.139 237.163 173.14V178.45ZM241.294 168.899H239.741V167.471H241.294V168.899ZM241.206 178.45H239.829V170.269H241.206V178.45ZM249.036 171.771H248.963C248.758 171.722 248.557 171.688 248.362 171.668C248.172 171.644 247.945 171.631 247.681 171.631C247.256 171.631 246.846 171.727 246.45 171.917C246.055 172.103 245.674 172.344 245.308 172.642V178.45H243.931V170.269H245.308V171.478C245.855 171.038 246.336 170.728 246.751 170.547C247.171 170.362 247.598 170.269 248.032 170.269C248.272 170.269 248.445 170.276 248.552 170.291C248.66 170.301 248.821 170.323 249.036 170.357V171.771ZM256.968 178.45H255.591V177.593C255.196 177.935 254.783 178.201 254.353 178.392C253.924 178.582 253.457 178.677 252.954 178.677C251.978 178.677 251.201 178.301 250.625 177.549C250.054 176.797 249.768 175.755 249.768 174.422C249.768 173.729 249.866 173.111 250.061 172.569C250.261 172.027 250.53 171.565 250.867 171.185C251.199 170.813 251.585 170.53 252.024 170.335C252.469 170.14 252.927 170.042 253.401 170.042C253.831 170.042 254.212 170.088 254.544 170.181C254.876 170.269 255.225 170.408 255.591 170.599V167.054H256.968V178.45ZM255.591 176.436V171.741C255.22 171.575 254.888 171.46 254.595 171.397C254.302 171.333 253.982 171.302 253.635 171.302C252.864 171.302 252.263 171.57 251.834 172.107C251.404 172.645 251.189 173.406 251.189 174.393C251.189 175.364 251.355 176.104 251.687 176.612C252.019 177.115 252.552 177.366 253.284 177.366C253.675 177.366 254.07 177.281 254.47 177.11C254.871 176.934 255.244 176.709 255.591 176.436ZM265.523 176.092C265.523 176.839 265.213 177.452 264.593 177.93C263.977 178.409 263.135 178.648 262.066 178.648C261.46 178.648 260.904 178.577 260.396 178.436C259.893 178.289 259.47 178.13 259.129 177.959V176.414H259.202C259.636 176.741 260.12 177.002 260.652 177.198C261.184 177.388 261.695 177.483 262.183 177.483C262.788 177.483 263.262 177.386 263.604 177.19C263.946 176.995 264.116 176.688 264.116 176.268C264.116 175.945 264.024 175.701 263.838 175.535C263.653 175.369 263.296 175.228 262.769 175.11C262.573 175.066 262.317 175.015 262 174.957C261.687 174.898 261.402 174.834 261.143 174.766C260.425 174.576 259.915 174.297 259.612 173.931C259.314 173.56 259.165 173.106 259.165 172.569C259.165 172.232 259.234 171.915 259.37 171.617C259.512 171.319 259.724 171.053 260.008 170.818C260.281 170.589 260.628 170.408 261.048 170.276C261.472 170.14 261.946 170.071 262.469 170.071C262.957 170.071 263.45 170.132 263.948 170.254C264.451 170.372 264.868 170.516 265.2 170.687V172.159H265.127C264.776 171.9 264.348 171.683 263.845 171.507C263.343 171.326 262.849 171.236 262.366 171.236C261.863 171.236 261.438 171.333 261.092 171.529C260.745 171.719 260.572 172.005 260.572 172.386C260.572 172.723 260.677 172.977 260.886 173.147C261.092 173.318 261.424 173.458 261.883 173.565C262.136 173.624 262.42 173.682 262.732 173.741C263.05 173.799 263.313 173.853 263.523 173.902C264.163 174.048 264.656 174.3 265.003 174.656C265.349 175.018 265.523 175.496 265.523 176.092Z" fill="#202020"/>
<path d="M220.971 138.237H235.971" stroke="#202020"/>
<path d="M233.393 132.74H223.549V130.699C224.233 130.113 224.916 129.527 225.6 128.941C226.29 128.355 226.931 127.773 227.524 127.193C228.774 125.982 229.63 125.022 230.092 124.312C230.554 123.596 230.785 122.825 230.785 121.998C230.785 121.243 230.535 120.653 230.034 120.23C229.539 119.801 228.845 119.586 227.953 119.586C227.361 119.586 226.72 119.69 226.03 119.898C225.339 120.107 224.666 120.426 224.008 120.855H223.91V118.804C224.373 118.577 224.988 118.368 225.756 118.179C226.531 117.991 227.28 117.896 228.002 117.896C229.493 117.896 230.662 118.258 231.508 118.98C232.354 119.696 232.778 120.67 232.778 121.9C232.778 122.454 232.706 122.971 232.563 123.453C232.426 123.928 232.221 124.381 231.948 124.81C231.694 125.214 231.394 125.611 231.049 126.002C230.711 126.392 230.297 126.825 229.809 127.301C229.112 127.984 228.393 128.648 227.651 129.293C226.909 129.931 226.215 130.523 225.571 131.07H233.393V132.74Z" fill="#202020"/>
<path d="M232.108 151.579C232.421 151.859 232.678 152.21 232.88 152.633C233.081 153.056 233.182 153.603 233.182 154.274C233.182 154.938 233.062 155.547 232.821 156.1C232.58 156.653 232.242 157.135 231.805 157.545C231.317 158.001 230.741 158.34 230.077 158.561C229.419 158.776 228.697 158.883 227.909 158.883C227.102 158.883 226.307 158.786 225.526 158.59C224.745 158.402 224.104 158.193 223.602 157.965V155.924H223.749C224.302 156.289 224.953 156.592 225.702 156.833C226.451 157.073 227.173 157.194 227.87 157.194C228.28 157.194 228.716 157.125 229.178 156.989C229.641 156.852 230.015 156.65 230.302 156.383C230.601 156.097 230.822 155.781 230.966 155.436C231.115 155.091 231.19 154.655 231.19 154.127C231.19 153.607 231.106 153.177 230.936 152.838C230.774 152.493 230.546 152.223 230.253 152.028C229.96 151.826 229.605 151.689 229.188 151.618C228.772 151.54 228.322 151.5 227.841 151.5H226.962V149.879H227.645C228.635 149.879 229.423 149.674 230.009 149.264C230.601 148.847 230.897 148.242 230.897 147.448C230.897 147.096 230.822 146.79 230.673 146.53C230.523 146.263 230.315 146.045 230.048 145.875C229.768 145.706 229.468 145.589 229.149 145.524C228.83 145.459 228.469 145.426 228.065 145.426C227.447 145.426 226.789 145.537 226.093 145.758C225.396 145.98 224.738 146.292 224.12 146.696H224.022V144.655C224.484 144.427 225.1 144.219 225.868 144.03C226.643 143.834 227.391 143.737 228.114 143.737C228.824 143.737 229.449 143.802 229.989 143.932C230.529 144.062 231.018 144.271 231.454 144.557C231.923 144.87 232.277 145.247 232.518 145.69C232.759 146.133 232.88 146.65 232.88 147.243C232.88 148.05 232.593 148.756 232.02 149.362C231.454 149.961 230.783 150.338 230.009 150.495V150.631C230.321 150.683 230.679 150.794 231.083 150.963C231.486 151.126 231.828 151.331 232.108 151.579Z" fill="#202020"/>
<path d="M436.404 88.8254L436.404 11.5566L356.405 11.5566L356.405 88.8254L436.404 88.8254Z" fill="#FFAC73"/>
<path d="M456.404 88.8254L456.404 11.5566L356.404 11.5566L356.404 88.8254L456.404 88.8254Z" stroke="#C04802"/>
<path d="M456.404 88.8254L456.404 11.5566L436.404 11.5566L436.404 88.8254L456.404 88.8254Z" stroke="#C04802" stroke-width="0.5"/>
<path d="M436.404 88.8254L436.404 11.5566L416.404 11.5566L416.404 88.8254L436.404 88.8254Z" stroke="#C04802" stroke-width="0.5"/>
<path d="M416.404 88.8254L416.404 11.5566L396.404 11.5566L396.404 88.8254L416.404 88.8254Z" stroke="#C04802" stroke-width="0.5"/>
<path d="M396.404 88.8254L396.404 11.5566L376.404 11.5566L376.404 88.8254L396.404 88.8254Z" stroke="#C04802" stroke-width="0.5"/>
<path d="M376.404 88.8254L376.404 11.5566L356.404 11.5566L356.404 88.8254L376.404 88.8254Z" stroke="#C04802" stroke-width="0.5"/>
<path d="M375.161 168.387H375.088C374.936 168.343 374.738 168.299 374.494 168.255C374.25 168.206 374.035 168.182 373.85 168.182C373.259 168.182 372.829 168.313 372.561 168.577C372.297 168.836 372.165 169.307 372.165 169.991V170.269H374.648V171.426H372.209V178.45H370.832V171.426H369.902V170.269H370.832V169.998C370.832 169.026 371.074 168.282 371.557 167.764C372.041 167.242 372.739 166.98 373.652 166.98C373.96 166.98 374.235 166.995 374.48 167.024C374.729 167.054 374.956 167.088 375.161 167.127V168.387ZM383.005 174.363C383.005 175.696 382.663 176.749 381.98 177.52C381.296 178.292 380.38 178.677 379.233 178.677C378.076 178.677 377.155 178.292 376.472 177.52C375.793 176.749 375.454 175.696 375.454 174.363C375.454 173.03 375.793 171.978 376.472 171.207C377.155 170.43 378.076 170.042 379.233 170.042C380.38 170.042 381.296 170.43 381.98 171.207C382.663 171.978 383.005 173.03 383.005 174.363ZM381.584 174.363C381.584 173.304 381.377 172.518 380.962 172.005C380.547 171.487 379.97 171.229 379.233 171.229C378.486 171.229 377.905 171.487 377.49 172.005C377.08 172.518 376.875 173.304 376.875 174.363C376.875 175.389 377.082 176.167 377.497 176.7C377.912 177.227 378.491 177.491 379.233 177.491C379.965 177.491 380.539 177.229 380.954 176.707C381.374 176.18 381.584 175.398 381.584 174.363ZM391.926 178.45H390.549V177.542C390.085 177.908 389.641 178.189 389.216 178.384C388.791 178.58 388.322 178.677 387.81 178.677C386.95 178.677 386.281 178.416 385.803 177.894C385.324 177.366 385.085 176.595 385.085 175.579V170.269H386.462V174.927C386.462 175.342 386.482 175.699 386.521 175.997C386.56 176.29 386.643 176.541 386.77 176.751C386.901 176.966 387.072 177.122 387.282 177.22C387.492 177.317 387.797 177.366 388.198 177.366C388.554 177.366 388.943 177.273 389.362 177.088C389.787 176.902 390.183 176.666 390.549 176.377V170.269H391.926V178.45ZM399.741 171.771H399.668C399.463 171.722 399.262 171.688 399.067 171.668C398.877 171.644 398.65 171.631 398.386 171.631C397.961 171.631 397.551 171.727 397.155 171.917C396.76 172.103 396.379 172.344 396.013 172.642V178.45H394.636V170.269H396.013V171.478C396.56 171.038 397.041 170.728 397.456 170.547C397.876 170.362 398.303 170.269 398.737 170.269C398.977 170.269 399.15 170.276 399.257 170.291C399.365 170.301 399.526 170.323 399.741 170.357V171.771ZM410.713 168.387H410.639C410.488 168.343 410.29 168.299 410.046 168.255C409.802 168.206 409.587 168.182 409.401 168.182C408.811 168.182 408.381 168.313 408.112 168.577C407.849 168.836 407.717 169.307 407.717 169.991V170.269H410.2V171.426H407.761V178.45H406.384V171.426H405.454V170.269H406.384V169.998C406.384 169.026 406.626 168.282 407.109 167.764C407.592 167.242 408.291 166.98 409.204 166.98C409.511 166.98 409.787 166.995 410.031 167.024C410.28 167.054 410.507 167.088 410.713 167.127V168.387ZM413.064 168.899H411.511V167.471H413.064V168.899ZM412.976 178.45H411.599V170.269H412.976V178.45ZM420.102 168.387H420.029C419.878 168.343 419.68 168.299 419.436 168.255C419.192 168.206 418.977 168.182 418.791 168.182C418.2 168.182 417.771 168.313 417.502 168.577C417.238 168.836 417.107 169.307 417.107 169.991V170.269H419.589V171.426H417.151V178.45H415.774V171.426H414.843V170.269H415.774V169.998C415.774 169.026 416.015 168.282 416.499 167.764C416.982 167.242 417.68 166.98 418.593 166.98C418.901 166.98 419.177 166.995 419.421 167.024C419.67 167.054 419.897 167.088 420.102 167.127V168.387ZM425.222 178.377C424.963 178.445 424.68 178.501 424.372 178.545C424.069 178.589 423.798 178.611 423.559 178.611C422.724 178.611 422.089 178.387 421.655 177.938C421.22 177.488 421.003 176.768 421.003 175.777V171.426H420.073V170.269H421.003V167.918H422.38V170.269H425.222V171.426H422.38V175.154C422.38 175.584 422.39 175.921 422.409 176.165C422.429 176.404 422.497 176.629 422.614 176.839C422.722 177.034 422.868 177.178 423.054 177.271C423.244 177.359 423.532 177.403 423.918 177.403C424.143 177.403 424.377 177.371 424.621 177.308C424.865 177.239 425.041 177.183 425.149 177.139H425.222V178.377ZM433.733 178.45H432.356V173.792C432.356 173.416 432.334 173.064 432.29 172.737C432.246 172.405 432.165 172.146 432.048 171.961C431.926 171.756 431.75 171.604 431.521 171.507C431.291 171.404 430.993 171.353 430.627 171.353C430.251 171.353 429.858 171.446 429.448 171.631C429.038 171.817 428.645 172.054 428.269 172.342V178.45H426.892V167.054H428.269V171.177C428.698 170.821 429.143 170.542 429.602 170.342C430.061 170.142 430.532 170.042 431.015 170.042C431.899 170.042 432.573 170.308 433.037 170.84C433.501 171.373 433.733 172.139 433.733 173.14V178.45ZM442.229 176.092C442.229 176.839 441.919 177.452 441.298 177.93C440.683 178.409 439.841 178.648 438.772 178.648C438.166 178.648 437.609 178.577 437.102 178.436C436.599 178.289 436.176 178.13 435.835 177.959V176.414H435.908C436.342 176.741 436.826 177.002 437.358 177.198C437.89 177.388 438.401 177.483 438.889 177.483C439.494 177.483 439.968 177.386 440.31 177.19C440.651 176.995 440.822 176.688 440.822 176.268C440.822 175.945 440.73 175.701 440.544 175.535C440.359 175.369 440.002 175.228 439.475 175.11C439.279 175.066 439.023 175.015 438.706 174.957C438.393 174.898 438.108 174.834 437.849 174.766C437.131 174.576 436.621 174.297 436.318 173.931C436.02 173.56 435.871 173.106 435.871 172.569C435.871 172.232 435.94 171.915 436.076 171.617C436.218 171.319 436.43 171.053 436.714 170.818C436.987 170.589 437.334 170.408 437.754 170.276C438.178 170.14 438.652 170.071 439.174 170.071C439.663 170.071 440.156 170.132 440.654 170.254C441.157 170.372 441.574 170.516 441.906 170.687V172.159H441.833C441.482 171.9 441.054 171.683 440.551 171.507C440.048 171.326 439.555 171.236 439.072 171.236C438.569 171.236 438.144 171.333 437.797 171.529C437.451 171.719 437.277 172.005 437.277 172.386C437.277 172.723 437.382 172.977 437.592 173.147C437.797 173.318 438.13 173.458 438.589 173.565C438.842 173.624 439.126 173.682 439.438 173.741C439.755 173.799 440.019 173.853 440.229 173.902C440.869 174.048 441.362 174.3 441.709 174.656C442.055 175.018 442.229 175.496 442.229 176.092Z" fill="#202020"/>
<path d="M411.902 128.667H409.744V132.759H407.869V128.667H400.906V126.421L407.947 118.218H409.744V127.104H411.902V128.667ZM407.869 127.104V120.542L402.234 127.104H407.869Z" fill="#202020"/>
<path d="M411.14 153.689C411.14 154.367 411.016 155.014 410.769 155.633C410.522 156.251 410.183 156.772 409.753 157.195C409.285 157.651 408.725 158.003 408.074 158.25C407.429 158.491 406.681 158.611 405.828 158.611C405.033 158.611 404.268 158.527 403.533 158.357C402.797 158.195 402.175 157.996 401.667 157.762V155.701H401.804C402.338 156.04 402.963 156.329 403.679 156.57C404.395 156.805 405.098 156.922 405.789 156.922C406.251 156.922 406.697 156.857 407.126 156.727C407.563 156.596 407.95 156.368 408.289 156.043C408.575 155.763 408.79 155.428 408.933 155.037C409.083 154.646 409.158 154.194 409.158 153.68C409.158 153.178 409.07 152.755 408.894 152.41C408.725 152.065 408.487 151.788 408.181 151.58C407.843 151.333 407.429 151.16 406.941 151.062C406.459 150.958 405.919 150.906 405.32 150.906C404.747 150.906 404.194 150.945 403.66 151.023C403.132 151.102 402.677 151.18 402.292 151.258V143.768H411.042V145.477H404.177V149.344C404.457 149.318 404.744 149.298 405.037 149.285C405.33 149.272 405.583 149.266 405.798 149.266C406.586 149.266 407.276 149.334 407.869 149.471C408.461 149.601 409.005 149.835 409.5 150.174C410.02 150.532 410.424 150.994 410.71 151.561C410.997 152.127 411.14 152.837 411.14 153.689Z" fill="#202020"/>
<path d="M398.904 138.26H413.904" stroke="#202020" stroke-miterlimit="10"/>
</svg>
