<svg xmlns="http://www.w3.org/2000/svg" xmlns:xlink="http://www.w3.org/1999/xlink" viewBox="0 0 981.11011 643.91827"><defs><style>.cls-1,.cls-2,.cls-3{fill:#1e1e1e;}.cls-2,.cls-3{stroke:#1e1e1e;stroke-linecap:round;stroke-linejoin:round;}.cls-2{stroke-width:24.65171px;}.cls-3{stroke-width:19.72137px;}.cls-4{fill:#f9e300;}.cls-5{fill:url(#linear-gradient);}.cls-6{fill:url(#linear-gradient-2);}.cls-10,.cls-7{stroke:#fcee36;}.cls-7{stroke-width:1.26908px;fill:url(#linear-gradient-3);}.cls-8{fill:url(#linear-gradient-4);}.cls-9{fill:url(#linear-gradient-5);}.cls-10{stroke-width:1.11634px;fill:url(#linear-gradient-6);}.cls-11{fill:url(#linear-gradient-7);}.cls-12{fill:url(#linear-gradient-8);}.cls-13{fill:url(#linear-gradient-9);}.cls-14{fill:url(#linear-gradient-10);}.cls-15{fill:url(#linear-gradient-11);}.cls-16{fill:url(#linear-gradient-12);}.cls-17{fill:url(#linear-gradient-13);}</style><linearGradient id="linear-gradient" x1="681.33085" y1="497.02533" x2="680.98705" y2="338.80633" gradientTransform="translate(-2.66686 3.68429) rotate(-0.37815)" gradientUnits="userSpaceOnUse"><stop offset="0" stop-color="#fcee36"/><stop offset="0.19444" stop-color="#fdf04a"/><stop offset="0.4" stop-color="#fdf586"/><stop offset="0.57222" stop-color="#fff"/><stop offset="0.71111" stop-color="#fff"/><stop offset="0.85393" stop-color="#fdf586"/><stop offset="1" stop-color="#fcee36"/></linearGradient><linearGradient id="linear-gradient-2" x1="322.09877" y1="249.60995" x2="322.03309" y2="219.38004" xlink:href="#linear-gradient"/><linearGradient id="linear-gradient-3" x1="294.9078" y1="279.28587" x2="345.91523" y2="227.53884" xlink:href="#linear-gradient"/><linearGradient id="linear-gradient-4" x1="284.68036" y1="278.64736" x2="284.33116" y2="117.94459" xlink:href="#linear-gradient"/><linearGradient id="linear-gradient-5" x1="305.11758" y1="453.87773" x2="305.0598" y2="427.2851" xlink:href="#linear-gradient"/><linearGradient id="linear-gradient-6" x1="280.74944" y1="478.86848" x2="325.61092" y2="433.35651" xlink:href="#linear-gradient"/><linearGradient id="linear-gradient-7" x1="272.19825" y1="479.46787" x2="271.89092" y2="338.03032" xlink:href="#linear-gradient"/><linearGradient id="linear-gradient-8" x1="464.88037" y1="238.53886" x2="562.21576" y2="238.53886" gradientTransform="matrix(1, 0, 0, 1, 0, 0)" xlink:href="#linear-gradient"/><linearGradient id="linear-gradient-9" x1="488.00691" y1="278.90137" x2="487.65707" y2="117.90286" xlink:href="#linear-gradient"/><linearGradient id="linear-gradient-10" x1="721.09775" y1="281.38353" x2="720.8618" y2="172.79565" gradientTransform="translate(-2.29568 3.24633) rotate(-0.29794)" xlink:href="#linear-gradient"/><linearGradient id="linear-gradient-11" x1="694.50987" y1="278.89608" x2="694.16007" y2="117.91801" xlink:href="#linear-gradient"/><linearGradient id="linear-gradient-12" x1="475.45224" y1="483.28597" x2="475.24471" y2="387.7792" gradientTransform="translate(-2.29568 3.24633) rotate(-0.29794)" xlink:href="#linear-gradient"/><linearGradient id="linear-gradient-13" x1="451.77822" y1="480.80842" x2="451.47052" y2="339.2044" xlink:href="#linear-gradient"/></defs><g id="Layer_2" data-name="Layer 2"><g id="Layer_1-2" data-name="Layer 1"><g id="GooGone_Logo"><path class="cls-1" d="M981.11011,643.91827l-7.17139-446.02661c-4.4635-148.63275-101.2583-181.96252-101.2583-181.96252C799.682-21.90466,676.34,19.53235,676.34,19.53235,479.99945,69.0766,285.3371,167.26434,285.3371,167.26434c-132.57178,68.46112-190.022,133.0152-190.022,133.0152C41.221,362.13122,23.90979,437.09381,23.90979,437.09381,7.744,483.55975,1.77423,591.8338,0,643.91827Z"/><path class="cls-2" d="M498.9246,325.09928h.36356a97.42866,97.42866,0,0,0,96.4652-98.04309v-.337A97.477,97.477,0,0,0,497.67172,130.266h-.40278a97.44573,97.44573,0,0,0-96.35486,98.04973v.428A97.40315,97.40315,0,0,0,498.9246,325.09928Zm-46.48722-97.10792a45.9155,45.9155,0,0,1,45.42909-46.18214h.15553A45.90082,45.90082,0,0,1,544.21019,227.225v.1562a45.87861,45.87861,0,0,1-45.41579,46.1622h-.1556a45.902,45.902,0,0,1-46.20142-45.38323Zm252.21817,95.0568.29178-.03855a97.44228,97.44228,0,0,0,96.44659-98.06236v-.31837a97.46241,97.46241,0,0,0-98.0823-96.43994h-.402a97.39027,97.39027,0,0,0-96.33566,98.06236v.39613A97.41615,97.41615,0,0,0,704.65555,323.04816Zm-.14955-49.56324v0Zm-.993-93.75274h.17547A45.90808,45.90808,0,0,1,749.85733,225.142a1.74143,1.74143,0,0,1-.0133.1881,45.88642,45.88642,0,0,1-45.38322,46.15555h-.1621a45.8544,45.8544,0,0,1-46.17557-45.4025v-.17547A45.85986,45.85986,0,0,1,703.513,179.73218ZM294.75093,327.17632h.31172a97.43526,97.43526,0,0,0,96.44592-98.05571l-.01928-.331a89.53368,89.53368,0,0,0-.49317-9.47l-.20132-1.79789-106.21507.96708h0l-1.73275.01262-2.26508.0133h0l.00665,2.00526.01256,1.00628.00665.98635h0l.40876,38.01687,47.62311-.51311a45.81544,45.81544,0,0,1-34.09009,15.62335h-.17481a45.8979,45.8979,0,0,1-46.16884-45.4025v-.16284A45.8813,45.8813,0,0,1,293.615,183.89291h.1562c14.74667-.10369,28.0012,7.276,36.50345,18.12245l.59752.79825,56.6511-.8049-.85009-2.57686a97.46,97.46,0,0,0-93.23963-67.08218h-.37686a97.40655,97.40655,0,0,0-96.3841,98.0823v.38882A97.42669,97.42669,0,0,0,294.75093,327.17632ZM461.319,349.47566a3.04683,3.04683,0,0,1-.497-.03976,85.78157,85.78157,0,0,0-85.15278,85.83269v.50222a85.67808,85.67808,0,0,0,85.7865,85.06152h.43966a85.7,85.7,0,0,0,85.15916-85.77539v-.50807A85.59308,85.59308,0,0,0,461.319,349.47566Zm40.40135,85.64442a40.313,40.313,0,0,1-40.07576,40.36108h-.2742a40.35073,40.35073,0,0,1-40.36107-40.04711v-.16546a40.41876,40.41876,0,0,1,40.15-40.49262h.16552a40.378,40.378,0,0,1,40.39551,40.06991Zm152.92573,8.05023-55.63423-90.89645-38.67139.06256-.54783-.00585-2.9864-.02865-.01117,1.15939-.0117.59928-.0111.0228.017,1.73587.1602,161.40511,43.00433-.0573-.10816-91.47936,55.65119,91.47936,40.464-.06314-.16546-164.89906-41.20065.0573Zm57.05614-87.44226h0l.16546,161.37588,91.86173-.10816-.05145-40.04711-48.88546.08536-.02281-22.96967,48.88021-.0801-.04035-41.811-48.87377.07426-.02338-20.61758,48.89715-.0912-.03975-39.442-91.86758.1029Zm-345.04848,69.6568-93.41752-.03975h-.26251l-3.24308-.04561v3.51734h0l.0169,33.41819,41.88295-.02865a40.36085,40.36085,0,0,1-29.88682,13.46889c-.06022.0117-.15728.0117-.29994.0345a40.39775,40.39775,0,0,1-40.29851-40.167v-.1947a40.29662,40.29662,0,0,1,40.09564-40.34353h.16551a40.617,40.617,0,0,1,32.14825,16.21506l.525.70218,49.839-.25141-.73083-2.28954a85.66,85.66,0,0,0-81.76109-59.7222h-.50568a85.62527,85.62527,0,0,0-85.13582,85.71283v.49638a85.823,85.823,0,0,0,85.78942,85.19306l.45142-.02865a85.76415,85.76415,0,0,0,85.17605-85.76369,80.94893,80.94893,0,0,0-.3888-8.30748Z"/><path class="cls-3" d="M849.21212,492.52409c-.01111-4.77319-3.21448-6.33716-8.58688-6.2746l-7.80526.03975.11979,20.89178,4.46507-.05729-.0456-8.7758H839.443l4.89363,8.72434,5.29245.01754-5.40119-9.164C847.00268,497.76034,849.25773,496.37235,849.21212,492.52409Zm-7.92453,2.30124-3.92835-.0228-.0456-5.0246h3.11742c1.68442,0,4.00261.10875,4.00261,2.25563C844.44478,494.35117,843.286,494.75692,841.28759,494.82533Zm-.86822-17.47734c-10.30586.00584-19.43538,7.24573-19.30383,19.52132.0684,12.2756,9.295,19.28162,19.58973,19.253,10.28247-.13155,19.42369-7.28549,19.33833-19.57278C859.91205,484.29671,850.70243,477.20533,840.41937,477.348Zm.25725,34.30337V511.583c-7.7082.09121-13.94883-5.84078-13.9717-14.75924-.05671-8.93541,6.08634-14.9247,13.79455-14.98785,7.4679-.03976,13.87991,5.87528,13.943,14.79959C854.48812,505.565,848.1674,511.60576,840.67662,511.65136Z"/><path class="cls-4" d="M849.21212,492.52409c-.01111-4.77319-3.21448-6.33716-8.58688-6.2746l-7.80526.03975.11979,20.89178,4.46507-.05729-.0456-8.7758H839.443l4.89363,8.72434,5.29245.01754-5.40119-9.164C847.00268,497.76034,849.25773,496.37235,849.21212,492.52409Zm-7.92453,2.30124-3.92835-.0228-.0456-5.0246h3.11742c1.68442,0,4.00261.10875,4.00261,2.25563C844.44478,494.35117,843.286,494.75692,841.28759,494.82533Zm-.86822-17.47734c-10.30586.00584-19.43538,7.24573-19.30383,19.52132.0684,12.2756,9.295,19.28162,19.58973,19.253,10.28247-.13155,19.42369-7.28549,19.33833-19.57278C859.91205,484.29671,850.70243,477.20533,840.41937,477.348Zm.25725,34.30337V511.583c-7.7082.09121-13.94883-5.84078-13.9717-14.75924-.05671-8.93541,6.08634-14.9247,13.79455-14.98785,7.4679-.03976,13.87991,5.87528,13.943,14.79959C854.48812,505.565,848.1674,511.60576,840.67662,511.65136Z"/><path class="cls-4" d="M498.9246,325.09928h.36356a97.42866,97.42866,0,0,0,96.4652-98.04309v-.337A97.477,97.477,0,0,0,497.67172,130.266h-.40278a97.44573,97.44573,0,0,0-96.35486,98.04973v.428A97.40315,97.40315,0,0,0,498.9246,325.09928Zm-46.48722-97.10792a45.9155,45.9155,0,0,1,45.42909-46.18214h.15553A45.90082,45.90082,0,0,1,544.21019,227.225v.1562a45.87861,45.87861,0,0,1-45.41579,46.1622h-.1556a45.902,45.902,0,0,1-46.20142-45.38323Zm252.21817,95.0568.29178-.03855a97.44228,97.44228,0,0,0,96.44659-98.06236v-.31837a97.46241,97.46241,0,0,0-98.0823-96.43994h-.402a97.39027,97.39027,0,0,0-96.33566,98.06236v.39613A97.41615,97.41615,0,0,0,704.65555,323.04816Zm-.14955-49.56324v0Zm-.993-93.75274h.17547A45.90808,45.90808,0,0,1,749.85733,225.142a1.74143,1.74143,0,0,1-.0133.1881,45.88642,45.88642,0,0,1-45.38322,46.15555h-.1621a45.8544,45.8544,0,0,1-46.17557-45.4025v-.17547A45.85986,45.85986,0,0,1,703.513,179.73218ZM294.75093,327.17632h.31172a97.43526,97.43526,0,0,0,96.44592-98.05571l-.01928-.331a89.53368,89.53368,0,0,0-.49317-9.47l-.20132-1.79789-106.21507.96708h0l-1.73275.01262-2.26508.0133h0l.00665,2.00526.01256,1.00628.00665.98635h0l.40876,38.01687,47.62311-.51311a45.81544,45.81544,0,0,1-34.09009,15.62335h-.17481a45.8979,45.8979,0,0,1-46.16884-45.4025v-.16284A45.8813,45.8813,0,0,1,293.615,183.89291h.1562c14.74667-.10369,28.0012,7.276,36.50345,18.12245l.59752.79825,56.6511-.8049-.85009-2.57686a97.46,97.46,0,0,0-93.23963-67.08218h-.37686a97.40655,97.40655,0,0,0-96.3841,98.0823v.38882A97.42669,97.42669,0,0,0,294.75093,327.17632ZM461.319,349.47566a3.04683,3.04683,0,0,1-.497-.03976,85.78157,85.78157,0,0,0-85.15278,85.83269v.50222a85.67808,85.67808,0,0,0,85.7865,85.06152h.43966a85.7,85.7,0,0,0,85.15916-85.77539v-.50807A85.59308,85.59308,0,0,0,461.319,349.47566Zm40.40135,85.64442a40.313,40.313,0,0,1-40.07576,40.36108h-.2742a40.35073,40.35073,0,0,1-40.36107-40.04711v-.16546a40.41876,40.41876,0,0,1,40.15-40.49262h.16552a40.378,40.378,0,0,1,40.39551,40.06991Zm152.92573,8.05023-55.63423-90.89645-38.67139.06256-.54783-.00585-2.9864-.02865-.01117,1.15939-.0117.59928-.0111.0228.017,1.73587.1602,161.40511,43.00433-.0573-.10816-91.47936,55.65119,91.47936,40.464-.06314-.16546-164.89906-41.20065.0573Zm57.05614-87.44226h0l.16546,161.37588,91.86173-.10816-.05145-40.04711-48.88546.08536-.02281-22.96967,48.88021-.0801-.04035-41.811-48.87377.07426-.02338-20.61758,48.89715-.0912-.03975-39.442-91.86758.1029Zm-345.04848,69.6568-93.41752-.03975h-.26251l-3.24308-.04561v3.51734h0l.0169,33.41819,41.88295-.02865a40.36085,40.36085,0,0,1-29.88682,13.46889c-.06022.0117-.15728.0117-.29994.0345a40.39775,40.39775,0,0,1-40.29851-40.167v-.1947a40.29662,40.29662,0,0,1,40.09564-40.34353h.16551a40.617,40.617,0,0,1,32.14825,16.21506l.525.70218,49.839-.25141-.73083-2.28954a85.66,85.66,0,0,0-81.76109-59.7222h-.50568a85.62527,85.62527,0,0,0-85.13582,85.71283v.49638a85.823,85.823,0,0,0,85.78942,85.19306l.45142-.02865a85.76415,85.76415,0,0,0,85.17605-85.76369,80.94893,80.94893,0,0,0-.3888-8.30748Z"/><path class="cls-5" d="M565.95906,362.68788l.94774,142.60293,4.88136-.04561-.91909-137.78412,26.2128-.11986-3.12854-4.8644Zm121.93975-2.02118-25.73338.21107,1.15939,94.63128,4.202,7.62811-1.14711-97.46282L687.962,365.52Zm-84.07928,55.52607L661.555,502.33358h1.64407l-59.44273-88.69871Zm152.23466,5.732.03456,4.865,34.34313-.23971-.02871-4.84745Zm-36.65547-60.23612.94774,142.60293,4.88778-.06256-.91383-137.76717,71.59847-.49638-.0456-4.83634Zm34.76,129.39713,41.40067-.2859-.02287-4.85855-41.40053.29116Z"/><path class="cls-6" d="M352.59641,228.03656l-.02585-2.90786-63.38212.4287.18211,27.48809,5.49736-.03922-.12961-21.95152,57.87805-.38949a.28138.28138,0,0,1,.00665-.07776C352.61635,229.653,352.6097,228.82218,352.59641,228.03656Z"/><path class="cls-7" d="M336.98635,266.99391c-9.5411,10.41114-23.237,17.35677-40.68412,17.46046-14.71411.04519-26.56023-4.30364-35.66659-11.333,9.684,10.2164,23.60711,17.071,41.9695,17.01913,17.45979-.12363,31.13577-7.07524,40.68412-17.44118a55.5147,55.5147,0,0,0,9.73585-14.8703l-9.26859.07178A54.48309,54.48309,0,0,1,336.98635,266.99391Z"/><path class="cls-8" d="M358.74379,170.65832a88.59639,88.59639,0,0,0-64.75854-27.93008c-23.451.15619-45.26021,8.66576-61.38344,24.06778-16.3239,15.55223-25.20966,36.97137-25.0734,60.098a84.43225,84.43225,0,0,0,25.44029,60.32531c.779.76568,1.58387,1.51208,2.39209,2.20665a84.37936,84.37936,0,0,1-22.25727-57.07981c-.17148-23.09406,8.73688-44.50655,25.06742-60.09135,16.104-15.38275,37.92581-23.89231,61.37015-24.04784A89.13572,89.13572,0,0,1,358.74379,170.65832Z"/><path class="cls-9" d="M333.17245,435.20544l-.034-2.569-55.74878.38237.16307,24.16882,4.85563-.0228-.13091-19.30442,50.9008-.37068a.2942.2942,0,0,1,.0169-.069C333.1783,436.61565,333.1783,435.88482,333.17245,435.20544Z"/><path class="cls-10" d="M318.99022,468.36112c-8.42208,9.13537-20.45212,15.25036-35.79661,15.35327-12.94912.03975-23.36958-3.79681-31.36538-9.96325,8.50685,8.98686,20.73152,15.0048,36.901,14.965,15.36437-.1257,27.38861-6.21205,35.78783-15.34157a49.30231,49.30231,0,0,0,8.553-13.08652l-8.14787.07425A48.63489,48.63489,0,0,1,318.99022,468.36112Z"/><path class="cls-11" d="M338.55656,384.76711a78.17843,78.17843,0,0,0-56.93335-24.62544c-20.63453.131-39.81851,7.64506-53.9925,21.19932a71.59826,71.59826,0,0,0-22.05643,52.86,74.2329,74.2329,0,0,0,22.37629,53.06464c.68225.68523,1.37566,1.336,2.09538,1.98727a74.56363,74.56363,0,0,1-19.58388-50.2448A71.56367,71.56367,0,0,1,232.5296,386.12c14.15412-13.52619,33.36967-20.9713,53.97847-21.097A77.96876,77.96876,0,0,1,338.55656,384.76711Z"/><path class="cls-12" d="M540.498,189.01407c.04519.05184.123.117.18145.18809a55.48706,55.48706,0,0,1,.59686,75.728c-9.58032,10.39186-23.27551,17.32354-40.716,17.43387-14.72142.06514-26.57352-4.28369-35.67994-11.31972,9.70394,10.23567,23.59388,17.06432,41.98219,17.01913,17.46045-.117,31.1038-7.062,40.65155-17.46046a56.269,56.269,0,0,0,14.70155-37.78291,56.84368,56.84368,0,0,0-15.22722-37.93844A50.94747,50.94747,0,0,0,540.498,189.01407Z"/><path class="cls-13" d="M502.34491,146.88233a86.59376,86.59376,0,0,1,58.88433,21.94554c-1.06477-1.18109-2.16145-2.32363-3.35583-3.42031-15.519-15.07834-37.0817-24.17213-61.0777-24.01594-42.9692.27251-69.44495,28.16338-78.93428,52.03641a91.91979,91.91979,0,0,0-6.14672,34.86841c.143,20.71859,8.85319,41.29427,23.88566,56.54077,1.17518,1.201,2.42134,2.38212,3.68019,3.51136-13.86395-15.02583-21.87376-34.69293-22.00336-54.56741a91.16889,91.16889,0,0,1,6.14671-34.82321C432.91318,175.03972,459.389,147.18142,502.34491,146.88233Z"/><path class="cls-14" d="M747.00131,187.68343a2.41882,2.41882,0,0,0,.18145.17547,55.51421,55.51421,0,0,1,.5716,75.72135c-9.56769,10.39784-23.23024,17.34946-40.67149,17.44716-14.7274.05783-26.612-4.32291-35.7052-11.32038,9.67071,10.223,23.57394,17.03175,41.95627,16.99985,17.46643-.10435,31.15564-7.07524,40.69675-17.42789a55.45805,55.45805,0,0,0-.545-75.74727A52.46028,52.46028,0,0,0,747.00131,187.68343Z"/><path class="cls-15" d="M708.81628,145.53906a86.54325,86.54325,0,0,1,58.91625,21.94554c-1.07076-1.1884-2.18073-2.32429-3.33582-3.44689-15.54567-15.03913-37.12757-24.1389-61.13028-23.99667-42.96256.30508-69.41844,28.15075-78.90837,52.04306a90.79408,90.79408,0,0,0-6.14007,34.8817c.12363,20.72457,8.81471,41.28763,23.87968,56.51485,1.15517,1.21366,2.41469,2.39541,3.67354,3.49874-13.864-15.00656-21.86711-34.6936-21.95816-54.54216a91.78905,91.78905,0,0,1,6.08158-34.82254C639.40383,173.67652,665.867,145.83084,708.81628,145.53906Z"/><path class="cls-16" d="M499.20219,402.09011c.05145.05145.09706.09705.17716.18826a48.82635,48.82635,0,0,1,.46246,66.58556c-8.41038,9.11783-20.42346,15.23867-35.78783,15.32988-12.94386.02865-23.34678-3.80791-31.3859-9.986,8.51328,9.03305,20.76023,15.0048,36.92974,14.97674,15.35326-.0801,27.38908-6.23544,35.77082-15.35911a48.77759,48.77759,0,0,0-.46247-66.60837A43.37465,43.37465,0,0,0,499.20219,402.09011Z"/><path class="cls-17" d="M465.61269,364.98327a76.478,76.478,0,0,1,51.80878,19.28688c-.94774-1.04479-1.91243-2.027-2.92916-2.95723-13.67411-13.29817-32.62422-21.28584-53.75571-21.15429-37.80317.23387-61.06985,24.77979-69.44574,45.84229a81.09327,81.09327,0,0,0-5.39,30.59778,72.48141,72.48141,0,0,0,21.01105,49.77064c1.03369,1.02784,2.12408,2.044,3.24319,3.04318a72.10255,72.10255,0,0,1-19.367-47.97222,80.86872,80.86872,0,0,1,5.407-30.64865C404.554,389.76306,427.82648,365.28554,465.61269,364.98327Z"/></g></g></g></svg>