<svg version="1.1" viewBox="0.0 0.0 960.0 720.0" fill="none" stroke="none" stroke-linecap="square" stroke-miterlimit="10" xmlns:xlink="http://www.w3.org/1999/xlink" xmlns="http://www.w3.org/2000/svg"><clipPath id="p.0"><path d="m0 0l960.0 0l0 720.0l-960.0 0l0 -720.0z" clip-rule="nonzero"/></clipPath><g clip-path="url(#p.0)"><path fill="#000000" fill-opacity="0.0" d="m0 0l960.0 0l0 720.0l-960.0 0z" fill-rule="evenodd"/><defs><linearGradient id="p.1" gradientUnits="userSpaceOnUse" gradientTransform="matrix(16.086489012070444 0.0 0.0 16.086489012070444 0.0 0.0)" spreadMethod="pad" x1="7.820323363746857E-10" y1="-2.1603163113578574E-4" x2="-5.8232148763994166E-5" y2="16.08627298033391"><stop offset="0.0" stop-color="#031a2f"/><stop offset="0.32" stop-color="#031a2f"/><stop offset="0.63" stop-color="#a64d79"/><stop offset="1.0" stop-color="#f6b26b"/></linearGradient></defs><path fill="url(#p.1)" d="m0 0l960.0 0l0 258.77167l-960.0 0z" fill-rule="evenodd"/><defs><linearGradient id="p.2" gradientUnits="userSpaceOnUse" gradientTransform="matrix(17.922062835739045 0.0 0.0 17.922062835739045 0.0 0.0)" spreadMethod="pad" x1="-7.3893877105514925" y1="9.439335676729769" x2="-7.389452354147408" y2="27.361398512352228"><stop offset="0.0" stop-color="#8c8c8c"/><stop offset="1.0" stop-color="#404040"/></linearGradient></defs><path fill="url(#p.2)" d="m-132.43307 490.3727l505.5565 -321.19684l456.1443 321.19684z" fill-rule="evenodd"/><defs><linearGradient id="p.3" gradientUnits="userSpaceOnUse" gradientTransform="matrix(17.922077423448265 0.0 0.0 17.922077423448265 0.0 0.0)" spreadMethod="pad" x1="10.98104560963523" y1="9.438713021802958" x2="10.980980394025176" y2="27.360790445132572"><stop offset="0.0" stop-color="#8c8c8c"/><stop offset="1.0" stop-color="#404040"/></linearGradient></defs><path fill="url(#p.3)" d="m196.80315 490.3622l630.1128 -321.19684l475.11554 321.19684z" fill-rule="evenodd"/><defs><linearGradient id="p.4" gradientUnits="userSpaceOnUse" gradientTransform="matrix(16.575392706493155 0.0 0.0 16.575392706493155 0.0 0.0)" spreadMethod="pad" x1="-25.381836690743786" y1="13.008353115352785" x2="-25.38189607105446" y2="29.583745821739573"><stop offset="0.0" stop-color="#8c8c8c"/><stop offset="1.0" stop-color="#404040"/></linearGradient></defs><path fill="url(#p.4)" d="m-420.7139 490.3622l467.752 -274.74017l493.94876 274.74017z" fill-rule="evenodd"/><defs><linearGradient id="p.5" gradientUnits="userSpaceOnUse" gradientTransform="matrix(15.153919663555158 0.0 0.0 15.153919663555158 0.0 0.0)" spreadMethod="pad" x1="8.320749107375494E-10" y1="32.35871341480351" x2="-5.4856208839128626E-5" y2="47.51263307825938"><stop offset="0.0" stop-color="#51ab2a"/><stop offset="1.0" stop-color="#203e13"/></linearGradient></defs><path fill="url(#p.5)" d="m0 490.36484l960.0 0l0 229.63779l-960.0 0z" fill-rule="evenodd"/><defs><linearGradient id="p.6" gradientUnits="userSpaceOnUse" gradientTransform="matrix(-14.900199766630802 0.0 0.0 -14.900199766630802 0.0 0.0)" spreadMethod="pad" x1="-51.432899846063755" y1="-41.34619466103129" x2="-51.432954892974976" y2="-26.445994894502167"><stop offset="0.0" stop-color="#7f6000"/><stop offset="1.0" stop-color="#703d08"/></linearGradient></defs><path fill="url(#p.6)" d="m766.3605 616.06635l-55.18109 0l0 -222.01575l55.18109 0z" fill-rule="evenodd"/><defs><linearGradient id="p.7" gradientUnits="userSpaceOnUse" gradientTransform="matrix(-16.6889164149265 0.0 0.0 -16.6889164149265 0.0 0.0)" spreadMethod="pad" x1="-53.83790575231754" y1="-34.91846311931597" x2="-53.83796964340186" y2="-18.229546704511773"><stop offset="0.0" stop-color="#7f6000"/><stop offset="1.0" stop-color="#703d08"/></linearGradient></defs><path fill="url(#p.7)" d="m898.49634 582.75104l-69.22833 0l0 -278.51965l69.22833 0z" fill-rule="evenodd"/><defs><linearGradient id="p.8" gradientUnits="userSpaceOnUse" gradientTransform="matrix(14.500642012259316 0.0 0.0 14.500642012259316 0.0 0.0)" spreadMethod="pad" x1="51.191353878786124" y1="12.503027047910017" x2="51.191302971455556" y2="27.003669060079975"><stop offset="0.0" stop-color="#51ab2a"/><stop offset="1.0" stop-color="#203e13"/></linearGradient></defs><path fill="url(#p.8)" d="m742.3075 391.57053l121.57483 -210.26773l121.57477 210.26773z" fill-rule="evenodd"/><defs><linearGradient id="p.9" gradientUnits="userSpaceOnUse" gradientTransform="matrix(13.539123145986892 0.0 0.0 13.539123145986892 0.0 0.0)" spreadMethod="pad" x1="55.97817636018718" y1="8.180051746495794" x2="55.97812789560258" y2="21.719174892395948"><stop offset="0.0" stop-color="#51ab2a"/><stop offset="1.0" stop-color="#203e13"/></linearGradient></defs><path fill="url(#p.9)" d="m757.89545 294.0586l105.98425 -183.3071l105.98425 183.3071z" fill-rule="evenodd"/><defs><linearGradient id="p.10" gradientUnits="userSpaceOnUse" gradientTransform="matrix(12.945705441234468 0.0 0.0 12.945705441234468 0.0 0.0)" spreadMethod="pad" x1="49.581281473458596" y1="22.87073804286064" x2="49.58123395519216" y2="35.8164434840079"><stop offset="0.0" stop-color="#51ab2a"/><stop offset="1.0" stop-color="#203e13"/></linearGradient></defs><path fill="url(#p.10)" d="m641.8646 463.6691l96.91339 -167.59055l96.91339 167.59055z" fill-rule="evenodd"/><defs><linearGradient id="p.11" gradientUnits="userSpaceOnUse" gradientTransform="matrix(12.08763131774278 0.0 0.0 12.08763131774278 0.0 0.0)" spreadMethod="pad" x1="54.12884939424296" y1="19.84199028884449" x2="54.128805288291275" y2="31.929621606506803"><stop offset="0.0" stop-color="#51ab2a"/><stop offset="1.0" stop-color="#203e13"/></linearGradient></defs><path fill="url(#p.11)" d="m654.28955 385.9535l84.47247 -146.11023l84.47241 146.11023z" fill-rule="evenodd"/><defs><linearGradient id="p.12" gradientUnits="userSpaceOnUse" gradientTransform="matrix(-11.885283570535385 0.0 0.0 -11.885283570535385 0.0 0.0)" spreadMethod="pad" x1="-39.787015552800966" y1="-43.337711942509905" x2="-39.78705695913186" y2="-31.452428372046647"><stop offset="0.0" stop-color="#7f6000"/><stop offset="1.0" stop-color="#703d08"/></linearGradient></defs><path fill="url(#p.12)" d="m472.87994 515.0809l-35.118103 0l0 -141.25986l35.118103 0z" fill-rule="evenodd"/><defs><linearGradient id="p.13" gradientUnits="userSpaceOnUse" gradientTransform="matrix(10.325434801468239 0.0 0.0 10.325434801468239 0.0 0.0)" spreadMethod="pad" x1="38.12713599564679" y1="30.169426535147533" x2="38.127096277708056" y2="40.49486133653938"><stop offset="0.0" stop-color="#51ab2a"/><stop offset="1.0" stop-color="#203e13"/></linearGradient></defs><path fill="url(#p.13)" d="m393.67923 418.12704l61.653534 -106.61417l61.653564 106.61417z" fill-rule="evenodd"/><defs><linearGradient id="p.14" gradientUnits="userSpaceOnUse" gradientTransform="matrix(9.640812802364444 0.0 0.0 9.640812802364444 0.0 0.0)" spreadMethod="pad" x1="41.65453978199165" y1="28.60101807184126" x2="41.65450149740966" y2="38.24183087412969"><stop offset="0.0" stop-color="#51ab2a"/><stop offset="1.0" stop-color="#203e13"/></linearGradient></defs><path fill="url(#p.14)" d="m401.58362 368.68234l53.73227 -92.944885l53.7323 92.944885z" fill-rule="evenodd"/><defs><linearGradient id="p.15" gradientUnits="userSpaceOnUse" gradientTransform="matrix(-16.29647352080649 0.0 0.0 -16.29647352080649 0.0 0.0)" spreadMethod="pad" x1="-13.88960517846118" y1="-32.87075640833569" x2="-13.889664316821262" y2="-16.574282887636503"><stop offset="0.0" stop-color="#7f6000"/><stop offset="1.0" stop-color="#703d08"/></linearGradient></defs><path fill="url(#p.15)" d="m226.3516 535.6772l-66.01575 0l0 -265.57483l66.01575 0z" fill-rule="evenodd"/><defs><linearGradient id="p.16" gradientUnits="userSpaceOnUse" gradientTransform="matrix(14.15885913179629 0.0 0.0 14.15885913179629 0.0 0.0)" spreadMethod="pad" x1="5.468692461269113" y1="10.79945935479261" x2="5.46864104919241" y2="24.95831848649556"><stop offset="0.0" stop-color="#51ab2a"/><stop offset="1.0" stop-color="#203e13"/></linearGradient></defs><path fill="url(#p.16)" d="m77.43044 353.38132l115.90551 -200.47244l115.9055 200.47244z" fill-rule="evenodd"/><defs><linearGradient id="p.17" gradientUnits="userSpaceOnUse" gradientTransform="matrix(13.220150778532261 0.0 0.0 13.220150778532261 0.0 0.0)" spreadMethod="pad" x1="6.9812419557361025" y1="6.477965971758038" x2="6.9811938728707625" y2="19.698116750202857"><stop offset="0.0" stop-color="#51ab2a"/><stop offset="1.0" stop-color="#203e13"/></linearGradient></defs><path fill="url(#p.17)" d="m92.29307 260.41208l101.05512 -174.77167l101.05513 174.77167z" fill-rule="evenodd"/><defs><linearGradient id="p.18" gradientUnits="userSpaceOnUse" gradientTransform="matrix(-16.688916414917458 0.0 0.0 -16.688916414917458 0.0 0.0)" spreadMethod="pad" x1="-34.93314578198157" y1="-34.918463119334895" x2="-34.9332047583671" y2="-18.22954670452165"><stop offset="0.0" stop-color="#7f6000"/><stop offset="1.0" stop-color="#703d08"/></linearGradient></defs><path fill="url(#p.18)" d="m582.99634 582.75104l-69.22833 0l0 -278.51965l69.22833 0z" fill-rule="evenodd"/><defs><linearGradient id="p.19" gradientUnits="userSpaceOnUse" gradientTransform="matrix(14.500642012264422 0.0 0.0 14.500642012264422 0.0 0.0)" spreadMethod="pad" x1="29.433696546551033" y1="12.503027047905617" x2="29.433642811035433" y2="27.00366906007047"><stop offset="0.0" stop-color="#51ab2a"/><stop offset="1.0" stop-color="#203e13"/></linearGradient></defs><path fill="url(#p.19)" d="m426.8075 391.57053l121.57483 -210.26773l121.57477 210.26773z" fill-rule="evenodd"/><defs><linearGradient id="p.20" gradientUnits="userSpaceOnUse" gradientTransform="matrix(13.539123145986892 0.0 0.0 13.539123145986892 0.0 0.0)" spreadMethod="pad" x1="32.675337867761115" y1="8.180051746495794" x2="32.67528940317652" y2="21.719174892395948"><stop offset="0.0" stop-color="#51ab2a"/><stop offset="1.0" stop-color="#203e13"/></linearGradient></defs><path fill="url(#p.20)" d="m442.39545 294.0586l105.98425 -183.3071l105.98425 183.3071z" fill-rule="evenodd"/><defs><linearGradient id="p.21" gradientUnits="userSpaceOnUse" gradientTransform="matrix(-14.90019976662584 0.0 0.0 -14.90019976662584 0.0 0.0)" spreadMethod="pad" x1="-26.26756858881942" y1="-40.67237643015077" x2="-26.267620883385078" y2="-25.772176663616694"><stop offset="0.0" stop-color="#7f6000"/><stop offset="1.0" stop-color="#703d08"/></linearGradient></defs><path fill="url(#p.21)" d="m391.392 606.0263l-55.18109 0l0 -222.01572l55.18109 0z" fill-rule="evenodd"/><defs><linearGradient id="p.22" gradientUnits="userSpaceOnUse" gradientTransform="matrix(12.945705441234468 0.0 0.0 12.945705441234468 0.0 0.0)" spreadMethod="pad" x1="20.616579191367133" y1="22.095189248529216" x2="20.616531673100702" y2="35.04089468967648"><stop offset="0.0" stop-color="#51ab2a"/><stop offset="1.0" stop-color="#203e13"/></linearGradient></defs><path fill="url(#p.22)" d="m266.89615 453.62906l96.91339 -167.59055l96.91336 167.59055z" fill-rule="evenodd"/><defs><linearGradient id="p.23" gradientUnits="userSpaceOnUse" gradientTransform="matrix(12.087632165931096 0.0 0.0 12.087632165931096 0.0 0.0)" spreadMethod="pad" x1="23.108005551450365" y1="19.01138397621937" x2="23.107963141884408" y2="31.099016142076067"><stop offset="0.0" stop-color="#51ab2a"/><stop offset="1.0" stop-color="#203e13"/></linearGradient></defs><path fill="url(#p.23)" d="m279.32108 375.91348l84.47244 -146.11024l84.47244 146.11024z" fill-rule="evenodd"/><defs><linearGradient id="p.24" gradientUnits="userSpaceOnUse" gradientTransform="matrix(-14.90019976662829 0.0 0.0 -14.90019976662829 0.0 0.0)" spreadMethod="pad" x1="-6.919238480816859" y1="-42.38887123465313" x2="-6.919292151555302" y2="-27.4886714681215"><stop offset="0.0" stop-color="#7f6000"/><stop offset="1.0" stop-color="#703d08"/></linearGradient></defs><path fill="url(#p.24)" d="m103.09803 631.6024l-55.1811 0l0 -222.01572l55.1811 0z" fill-rule="evenodd"/><defs><linearGradient id="p.25" gradientUnits="userSpaceOnUse" gradientTransform="matrix(12.945703857291075 0.0 0.0 12.945703857291075 0.0 0.0)" spreadMethod="pad" x1="-1.652889738311931" y1="24.070836981942243" x2="-1.6529366626057747" y2="37.01654083914827"><stop offset="0.0" stop-color="#51ab2a"/><stop offset="1.0" stop-color="#203e13"/></linearGradient></defs><path fill="url(#p.25)" d="m-21.397821 479.20517l96.91338 -167.59055l96.91339 167.59055z" fill-rule="evenodd"/><defs><linearGradient id="p.26" gradientUnits="userSpaceOnUse" gradientTransform="matrix(12.087632165933455 0.0 0.0 12.087632165933455 0.0 0.0)" spreadMethod="pad" x1="-0.7423198136116779" y1="21.127275255373327" x2="-0.7423635484765703" y2="33.214907421227664"><stop offset="0.0" stop-color="#51ab2a"/><stop offset="1.0" stop-color="#203e13"/></linearGradient></defs><path fill="url(#p.26)" d="m-8.972889 401.4896l84.47244 -146.11024l84.47245 146.11024z" fill-rule="evenodd"/><defs><linearGradient id="p.27" gradientUnits="userSpaceOnUse" gradientTransform="matrix(-14.90019976662829 0.0 0.0 -14.90019976662829 0.0 0.0)" spreadMethod="pad" x1="-20.156127016117207" y1="-43.22540813512144" x2="-20.15618068685565" y2="-28.32520836858981"><stop offset="0.0" stop-color="#7f6000"/><stop offset="1.0" stop-color="#703d08"/></linearGradient></defs><path fill="url(#p.27)" d="m300.33032 644.067l-55.181107 0l0 -222.01575l55.181107 0z" fill-rule="evenodd"/><defs><linearGradient id="p.28" gradientUnits="userSpaceOnUse" gradientTransform="matrix(12.945705441234468 0.0 0.0 12.945705441234468 0.0 0.0)" spreadMethod="pad" x1="13.582454963171179" y1="25.033668158572354" x2="13.582407444904746" y2="37.979373599719615"><stop offset="0.0" stop-color="#51ab2a"/><stop offset="1.0" stop-color="#203e13"/></linearGradient></defs><path fill="url(#p.28)" d="m175.83446 491.66974l96.913376 -167.59055l96.91339 167.59055z" fill-rule="evenodd"/><defs><linearGradient id="p.29" gradientUnits="userSpaceOnUse" gradientTransform="matrix(12.08763216593413 0.0 0.0 12.08763216593413 0.0 0.0)" spreadMethod="pad" x1="15.574546678774686" y1="22.158458762449904" x2="15.574502572826091" y2="34.246090928303566"><stop offset="0.0" stop-color="#51ab2a"/><stop offset="1.0" stop-color="#203e13"/></linearGradient></defs><path fill="url(#p.29)" d="m188.2594 413.95416l84.47244 -146.11026l84.47244 146.11026z" fill-rule="evenodd"/><defs><linearGradient id="p.30" gradientUnits="userSpaceOnUse" gradientTransform="matrix(-15.58214858934395 0.0 0.0 -15.58214858934395 0.0 0.0)" spreadMethod="pad" x1="-12.384880111512128" y1="-42.50137851518676" x2="-12.384936697143868" y2="-26.91922992594555"><stop offset="0.0" stop-color="#7f6000"/><stop offset="1.0" stop-color="#703d08"/></linearGradient></defs><path fill="url(#p.30)" d="m192.98303 662.2626l-60.34645 0l0 -242.80313l60.34645 0z" fill-rule="evenodd"/><defs><linearGradient id="p.31" gradientUnits="userSpaceOnUse" gradientTransform="matrix(13.537960324651907 0.0 0.0 13.537960324651907 0.0 0.0)" spreadMethod="pad" x1="4.1981701589666685" y1="23.07023313917606" x2="4.1981213115572" y2="36.608193463739845"><stop offset="0.0" stop-color="#51ab2a"/><stop offset="1.0" stop-color="#203e13"/></linearGradient></defs><path fill="url(#p.31)" d="m56.834663 495.60025l105.984245 -183.27557l105.98425 183.27557z" fill-rule="evenodd"/><defs><linearGradient id="p.32" gradientUnits="userSpaceOnUse" gradientTransform="matrix(12.640418653196743 0.0 0.0 12.640418653196743 0.0 0.0)" spreadMethod="pad" x1="5.571219067399632" y1="19.843109641875653" x2="5.571173240334101" y2="32.48352829498933"><stop offset="0.0" stop-color="#51ab2a"/><stop offset="1.0" stop-color="#203e13"/></linearGradient></defs><path fill="url(#p.32)" d="m70.42254 410.6054l92.37795 -159.77953l92.37796 159.77953z" fill-rule="evenodd"/><defs><linearGradient id="p.33" gradientUnits="userSpaceOnUse" gradientTransform="matrix(-14.106462704293232 0.0 0.0 -14.106462704293232 0.0 0.0)" spreadMethod="pad" x1="-38.375462290365704" y1="-45.46717352023391" x2="-38.37551462020855" y2="-31.360710816037734"><stop offset="0.0" stop-color="#7f6000"/><stop offset="1.0" stop-color="#703d08"/></linearGradient></defs><path fill="url(#p.33)" d="m541.34204 641.3808l-49.480316 0l0 -198.99213l49.480316 0z" fill-rule="evenodd"/><defs><linearGradient id="p.34" gradientUnits="userSpaceOnUse" gradientTransform="matrix(12.25454379016349 0.0 0.0 12.25454379016349 0.0 0.0)" spreadMethod="pad" x1="35.07079350829231" y1="28.938269195964878" x2="35.07074665652929" y2="41.1928129860388"><stop offset="0.0" stop-color="#51ab2a"/><stop offset="1.0" stop-color="#203e13"/></linearGradient></defs><path fill="url(#p.34)" d="m429.77658 504.79913l86.85037 -150.17322l86.8504 150.17322z" fill-rule="evenodd"/><defs><linearGradient id="p.35" gradientUnits="userSpaceOnUse" gradientTransform="matrix(11.442451114196519 0.0 0.0 11.442451114196519 0.0 0.0)" spreadMethod="pad" x1="38.53291596507802" y1="26.587878459923566" x2="38.53287654035327" y2="38.03032957405217"><stop offset="0.0" stop-color="#51ab2a"/><stop offset="1.0" stop-color="#203e13"/></linearGradient></defs><path fill="url(#p.35)" d="m440.91104 435.1602l75.68503 -130.92914l75.68506 130.92914z" fill-rule="evenodd"/><defs><linearGradient id="p.36" gradientUnits="userSpaceOnUse" gradientTransform="matrix(-16.68986001041031 0.0 0.0 -16.68986001041031 0.0 0.0)" spreadMethod="pad" x1="-41.083092030870155" y1="-41.60840677026722" x2="-41.08315100392133" y2="-24.918546759961103"><stop offset="0.0" stop-color="#7f6000"/><stop offset="1.0" stop-color="#703d08"/></linearGradient></defs><path fill="url(#p.36)" d="m685.6711 694.43823l-69.25989 0l0 -278.55118l69.25989 0z" fill-rule="evenodd"/><defs><linearGradient id="p.37" gradientUnits="userSpaceOnUse" gradientTransform="matrix(14.49847051060785 0.0 0.0 14.49847051060785 0.0 0.0)" spreadMethod="pad" x1="36.52106824082594" y1="20.21128122775478" x2="36.52101732587075" y2="34.709751738273226"><stop offset="0.0" stop-color="#51ab2a"/><stop offset="1.0" stop-color="#203e13"/></linearGradient></defs><path fill="url(#p.37)" d="m529.49963 503.23828l121.57483 -210.20471l121.57477 210.20471z" fill-rule="evenodd"/><defs><linearGradient id="p.38" gradientUnits="userSpaceOnUse" gradientTransform="matrix(13.537959567327029 0.0 0.0 13.537959567327029 0.0 0.0)" spreadMethod="pad" x1="40.263514768450186" y1="16.43446721912658" x2="40.26346629970009" y2="29.972426786366846"><stop offset="0.0" stop-color="#51ab2a"/><stop offset="1.0" stop-color="#203e13"/></linearGradient></defs><path fill="url(#p.38)" d="m545.0859 405.7655l105.9527 -183.27559l105.95276 183.27559z" fill-rule="evenodd"/><path fill="#000000" fill-opacity="0.0" d="m-0.8503937 256.3727l961.7008 0" fill-rule="evenodd"/><path stroke="#0000ff" stroke-width="4.0" stroke-linejoin="round" stroke-linecap="butt" stroke-dasharray="16.0,12.0" d="m-0.8503937 256.3727l961.7008 0" fill-rule="evenodd"/><path fill="#000000" fill-opacity="0.0" d="m-0.9160105 491.62204l961.7008 0" fill-rule="evenodd"/><path stroke="#000000" stroke-width="4.0" stroke-linejoin="round" stroke-linecap="butt" stroke-dasharray="16.0,12.0" d="m-0.9160105 491.62204l961.7008 0" fill-rule="evenodd"/><path fill="#000000" fill-opacity="0.0" d="m-0.8503937 208.3727l961.7008 0" fill-rule="evenodd"/><path stroke="#ff0000" stroke-width="4.0" stroke-linejoin="round" stroke-linecap="butt" stroke-dasharray="16.0,12.0" d="m-0.8503937 208.3727l961.7008 0" fill-rule="evenodd"/><path fill="#666666" d="m682.3622 0l277.63782 0l0 277.6378l-277.63782 0z" fill-rule="evenodd"/><path stroke="#000000" stroke-width="4.0" stroke-linejoin="round" stroke-linecap="butt" d="m682.3622 0l277.63782 0l0 277.6378l-277.63782 0z" fill-rule="evenodd"/><path fill="#ffffff" d="m751.18115 197.84625l0 0c0 -38.659943 31.340088 -70.00001 70.0 -70.00001l0 0c18.565186 0 36.369934 7.374977 49.497498 20.502525c13.127563 13.127548 20.502502 30.932327 20.502502 49.497482l0 0c0 38.659927 -31.340027 70.0 -70.0 70.0l0 0c-38.659912 0 -70.0 -31.340073 -70.0 -70.0z" fill-rule="evenodd"/><path fill="#0000ff" d="m808.66113 129.10414l0 -13.842522l0 0c0 -7.645012 5.6052856 -13.842514 12.519714 -13.842514c6.9144287 0 12.519653 6.197502 12.519653 13.842514l0 13.842522z" fill-rule="evenodd"/><path fill="#0000ff" d="m808.66144 98.15985l0 0c0 -6.9144363 5.6052246 -12.519691 12.519653 -12.519691l0 0c3.3204346 0 6.504883 1.3190384 8.852783 3.6669312c2.3479004 2.3479004 3.6669312 5.5323334 3.6669312 8.85276l0 0c0 6.9144287 -5.6052856 12.519684 -12.519714 12.519684l0 0c-6.9144287 0 -12.519653 -5.605255 -12.519653 -12.519684z" fill-rule="evenodd"/><path fill="#000000" fill-opacity="0.0" d="m808.66144 98.15985l-124.81891 160.59842" fill-rule="evenodd"/><path stroke="#000000" stroke-width="3.0" stroke-linejoin="round" stroke-linecap="butt" stroke-dasharray="12.0,9.0" d="m808.66144 98.15985l-124.81891 160.59842" fill-rule="evenodd"/><path fill="#b45f06" d="m868.02734 119.31237l10.834656 8.251976l-17.385803 22.803146l-10.834656 -8.251968z" fill-rule="evenodd"/><path fill="#38761d" d="m853.24023 125.117676l27.968506 -11.685036l-3.779541 30.078743z" fill-rule="evenodd"/><path fill="#38761d" d="m858.1747 119.04301l27.968506 -11.685043l-3.779541 30.078743z" fill-rule="evenodd"/><path fill="#000000" fill-opacity="0.0" d="m833.7008 98.15985l123.30707 19.338577" fill-rule="evenodd"/><path stroke="#0000ff" stroke-width="3.0" stroke-linejoin="round" stroke-linecap="butt" stroke-dasharray="12.0,9.0" d="m833.7008 98.15985l123.30707 19.338577" fill-rule="evenodd"/><path fill="#000000" fill-opacity="0.0" d="m686.7402 98.15985l121.921265 0" fill-rule="evenodd"/><path stroke="#ff0000" stroke-width="3.0" stroke-linejoin="round" stroke-linecap="butt" stroke-dasharray="12.0,9.0" d="m686.7402 98.15985l121.921265 0" fill-rule="evenodd"/><path fill="#000000" fill-opacity="0.0" d="m819.98206 75.85971l146.33069 24.283463l-2.9606323 17.79528l-146.33069 -24.28347z" fill-rule="evenodd"/><path fill="#000000" d="m851.3321 94.584595l-1.6108398 -8.978592l1.8497314 0.30696106l1.098877 6.628708l3.1245728 -5.927826l1.8189087 0.30184174l-4.4469604 7.9733047l-1.8342896 -0.30439758zm6.6677246 -6.052582l0.25128174 -1.5104904l1.6339111 0.27114868l-0.25134277 1.5104828l-1.6338501 -0.27114105zm-1.1591187 6.966736l1.0206299 -6.13443l1.6339111 0.27114868l-1.0206299 6.13443l-1.6339111 -0.27114868zm3.0110474 -1.3059311l1.6749268 0.024536133q0.028381348 0.49571228 0.2956543 0.7934799q0.2826538 0.30033112 0.8529663 0.39497375q0.63201904 0.10487366 0.97875977 -0.075164795q0.24401855 -0.13372803 0.28759766 -0.39575195q0.030761719 -0.18495941 -0.056640625 -0.32617188q-0.1027832 -0.14376831 -0.50354004 -0.3053131q-1.9012451 -0.7589874 -2.366333 -1.2004623q-0.63983154 -0.62885284 -0.49371338 -1.5074081q0.13336182 -0.80148315 0.83966064 -1.2386246q0.7217407 -0.43457794 2.0473633 -0.21459198q1.263977 0.20975494 1.8112793 0.7282257q0.54992676 0.5030594 0.6477661 1.3429108l-1.5875244 0.021644592q-0.0335083 -0.36985016 -0.2802124 -0.60085297q-0.24414062 -0.24641418 -0.7528076 -0.3308258q-0.631958 -0.10488129 -0.94018555 0.03403473q-0.20550537 0.09260559 -0.23883057 0.29297638q-0.030761719 0.18495941 0.10284424 0.33384705q0.19018555 0.1899414 1.4362183 0.69766235q1.2614746 0.5102768 1.6983643 1.0262604q0.43688965 0.51597595 0.3086548 1.2866364q-0.14105225 0.8477249 -0.9526367 1.3465805q-0.79364014 0.4860077 -2.1809692 0.2557907q-1.2485352 -0.2071991 -1.9038086 -0.8386154q-0.63983154 -0.6288605 -0.7248535 -1.5457764zm8.020813 -4.022423l0.25134277 -1.5104904l1.6339111 0.27114868l-0.25134277 1.5104828l-1.6339111 -0.27114105zm-1.1590576 6.966736l1.0206299 -6.13443l1.6339111 0.27114868l-1.0206299 6.13443l-1.6339111 -0.27114868zm3.227356 0.53557587l1.4104004 -8.477226l1.6184692 0.2685852l-0.50775146 3.0518036q0.8963623 -0.7223816 1.9290771 -0.5509949q1.1098633 0.18417358 1.7138062 1.123848q0.6065674 0.92427063 0.35266113 2.4501724q-0.26153564 1.5721359 -1.157898 2.2945175q-0.89630127 0.7223892 -1.9598999 0.5458832q-0.52404785 -0.08696747 -0.98913574 -0.43340302q-0.4650879 -0.34643555 -0.74786377 -0.93187714l-0.15124512 0.90937805l-1.5106201 -0.25068665zm2.1364746 -2.9399033q-0.15899658 0.9556198 0.07232666 1.4691696q0.3085327 0.7164154 1.0175781 0.83408356q0.52404785 0.0869751 0.9863281 -0.31147003q0.46228027 -0.39844513 0.6264038 -1.3848877q0.17437744 -1.0480957 -0.1340332 -1.57444q-0.30584717 -0.5417557 -0.90704346 -0.64151764q-0.5703125 -0.09464264 -1.0479736 0.30124664q-0.4597168 0.38302612 -0.6135864 1.3078156zm5.156372 4.1501465l1.4103394 -8.477226l1.6339111 0.27114105l-1.4103394 8.477234l-1.6339111 -0.27114868zm7.175354 -0.82077026l1.5723267 0.54602814q-0.45703125 0.8427963 -1.2121582 1.1926422q-0.755188 0.3498459 -1.7570801 0.18357849q-1.6030884 -0.26602936 -2.1994019 -1.4420242q-0.47808838 -0.93463135 -0.2652588 -2.2139206q0.2538452 -1.5259018 1.1989746 -2.2560196q0.9451294 -0.7301254 2.1629028 -0.52804565q1.3718262 0.22766113 2.0066528 1.2674942q0.65283203 1.0269775 0.29632568 2.8842926l-4.069397 -0.6753006q-0.089660645 0.72953033 0.21362305 1.1916656q0.30322266 0.4621277 0.8735962 0.55677795q0.36993408 0.06138611 0.6652832 -0.09549713q0.29797363 -0.17229462 0.51361084 -0.61167145zm0.36431885 -1.6184464q0.10253906 -0.7115631 -0.19049072 -1.1403122q-0.27752686 -0.4261856 -0.78619385 -0.5105972q-0.5241089 -0.0869751 -0.942749 0.23951721q-0.40576172 0.34446716 -0.51605225 1.0072327l2.4354858 0.40415955zm5.637512 4.6259613l1.4104004 -8.477226l1.7109375 0.28393555l-0.5563965 3.3446503l3.3602905 0.5576401l0.5564575 -3.3446503l1.7109375 0.28393555l-1.4103394 8.477226l-1.7109985 -0.28393555l0.6154175 -3.69915l-3.3602905 -0.5576401l-0.6154175 3.69915l-1.7109985 -0.28393555zm8.689453 -1.804924q0.13336182 -0.80148315 0.659729 -1.4902191q0.5289917 -0.70414734 1.3175659 -0.96925354q0.7911377 -0.28051758 1.7006226 -0.12960052q1.3872681 0.23021698 2.130005 1.2879562q0.7453003 1.0423279 0.51446533 2.429512q-0.23077393 1.3871841 -1.2940674 2.161049q-1.0452881 0.7610092 -2.4017944 0.53591156q-0.8477783 -0.14068604 -1.5543823 -0.6539154q-0.6911621 -0.5106735 -0.9713745 -1.3015976q-0.27770996 -0.80633545 -0.10076904 -1.8698425zm1.649353 0.36873627q-0.15130615 0.90937805 0.19824219 1.4742203q0.35211182 0.54943085 0.9840698 0.65431213q0.6473999 0.107429504 1.1430664 -0.30130768q0.5136719 -0.42160034 0.6675415 -1.3463898q0.14874268 -0.89395905 -0.20336914 -1.4433899q-0.33416748 -0.5622864 -0.9815674 -0.6697235q-0.631958 -0.10487366 -1.1456299 0.31671906q-0.51104736 0.40618896 -0.6623535 1.3155594zm6.98291 4.3107147l-1.6184692 -0.2685852l1.0205688 -6.13443l1.5106201 0.25067902l-0.14361572 0.8631363q0.48791504 -0.5525818 0.82696533 -0.6863785q0.34161377 -0.14920807 0.72698975 -0.085258484q0.55493164 0.09208679 1.02771 0.48731995l-0.7420044 1.3181839q-0.37261963 -0.33109283 -0.71173096 -0.38736725q-0.3544922 -0.05883026 -0.6190796 0.1031723q-0.2619629 0.14658356 -0.48272705 0.61678314q-0.21826172 0.4547882 -0.47979736 2.0269241l-0.3154297 1.8958206zm4.2091675 -6.460579l0.25128174 -1.5104904l1.6339111 0.27114105l-0.25128174 1.5104904l-1.6339111 -0.27114105zm-1.1590576 6.966736l1.0205688 -6.13443l1.6339111 0.27114868l-1.0205688 6.13443l-1.6339111 -0.27114868zm2.6416016 0.43837738l0.21026611 -1.2638779l2.737793 -2.269928q0.6779785 -0.55270386 0.9836426 -0.77124023q-0.2800293 -0.030632019 -0.74243164 -0.10736847l-2.1759644 -0.34526825l0.2230835 -1.3409424l5.08667 0.84413147l-0.1897583 1.1405716l-2.8096924 2.32135l-0.96569824 0.7583847q0.6859131 0.0663147 0.8400879 0.09189606l2.5125122 0.4169464l-0.23846436 1.4334183l-5.472046 -0.9080734zm6.722168 -2.1313934q0.13336182 -0.80148315 0.65979004 -1.4902191q0.5289917 -0.70414734 1.3175659 -0.96925354q0.7911377 -0.28051758 1.7005615 -0.12960052q1.3872681 0.23022461 2.130005 1.2879562q0.7453003 1.0423279 0.51452637 2.429512q-0.23083496 1.3871841 -1.2941284 2.161049q-1.0452881 0.76101685 -2.4017334 0.53591156q-0.8477783 -0.14068604 -1.5543823 -0.6539154q-0.69122314 -0.5106659 -0.97143555 -1.3015976q-0.27770996 -0.80633545 -0.10076904 -1.8698425zm1.649353 0.3687439q-0.15130615 0.9093704 0.19824219 1.4742126q0.35211182 0.54943085 0.9840698 0.65431213q0.6473999 0.107437134 1.1430664 -0.30130768q0.5136719 -0.42160034 0.6675415 -1.3463898q0.14874268 -0.89395905 -0.20336914 -1.4433899q-0.33410645 -0.5622864 -0.98150635 -0.6697235q-0.63201904 -0.10487366 -1.1456299 0.31672668q-0.5111084 0.40618134 -0.66241455 1.3155594zm11.0060425 4.97834l-1.6184692 -0.26859283l0.5205078 -3.1288605q0.16668701 -1.0018616 0.107543945 -1.3126144q-0.043762207 -0.30819702 -0.2647705 -0.50325775q-0.20300293 -0.20790863 -0.5267334 -0.2616272q-0.4315796 -0.071624756 -0.80914307 0.10329437q-0.36218262 0.1774826 -0.54956055 0.54234314q-0.18743896 0.36486816 -0.35925293 1.3975449l-0.46154785 2.7743683l-1.6339111 -0.27114105l1.0205688 -6.1344376l1.5106201 0.25068665l-0.14874268 0.89395905q0.97332764 -0.89966583 2.206482 -0.6950302q0.52404785 0.0869751 0.93774414 0.3615265q0.41625977 0.25914 0.5961914 0.6057739q0.18249512 0.3312149 0.19543457 0.729332q0.030944824 0.38526917 -0.08703613 1.0942688l-0.6359253 3.822464z" fill-rule="nonzero"/><path fill="#000000" fill-opacity="0.0" d="m671.4465 81.341545l148.34644 -0.06299591l0 18.047241l-148.34644 0.06299591z" fill-rule="evenodd"/><path fill="#000000" d="m697.9186 94.193924l-1.671875 7.095337E-4l-0.671875 -1.7340927l-3.046875 0.0012969971l-0.625 1.734642l-1.640625 6.942749E-4l2.96875 -7.626259l1.625 -6.942749E-4l3.0625 7.623703zm-2.84375 -3.0144196l-1.046875 -2.8276825l-1.03125 2.8285675l2.078125 -8.8500977E-4zm3.1331177 1.4361725l1.46875 -0.21937561q0.09375 0.42183685 0.375 0.6404648q0.296875 0.21862793 0.796875 0.2184143q0.578125 -2.4414062E-4 0.859375 -0.20349121q0.1875 -0.1407013 0.1875 -0.3907013q0 -0.171875 -0.09375 -0.28121185q-0.109375 -0.09370422 -0.5 -0.18728638q-1.765625 -0.38987732 -2.234375 -0.70217896q-0.65625 -0.4528427 -0.65625 -1.2497177q0 -0.71875 0.5625 -1.2033691q0.578125 -0.50024414 1.765625 -0.5007477q1.125 -4.8065186E-4 1.671875 0.37429047q0.5625 0.3747635 0.765625 1.0934219l-1.375 0.25058746q-0.09375 -0.31246185 -0.34375 -0.48423004q-0.234375 -0.17177582 -0.703125 -0.17157745q-0.5625 2.3651123E-4 -0.8125 0.15659332q-0.171875 0.109451294 -0.171875 0.2969513q0 0.15625 0.140625 0.26556396q0.203125 0.14054108 1.359375 0.40567017q1.171875 0.2651291 1.640625 0.6555557q0.453125 0.39043427 0.453125 1.0779343q0 0.765625 -0.640625 1.3127747q-0.625 0.5471344 -1.875 0.54766846q-1.125 4.8065186E-4 -1.78125 -0.4523697q-0.65625 -0.4684677 -0.859375 -1.2496338zm8.973328 -3.9569397l0 1.171875l-1.0 4.272461E-4l0 2.21875q0 0.6875 0.03125 0.79685974q0.03125 0.10936737 0.125 0.1874466q0.109375 0.062454224 0.25 0.06239319q0.203125 -8.392334E-5 0.59375 -0.14087677l0.125 1.1405716q-0.515625 0.21897125 -1.15625 0.21924591q-0.390625 1.6784668E-4 -0.71875 -0.124694824q-0.3125 -0.1404953 -0.46875 -0.34355164q-0.140625 -0.21868896 -0.203125 -0.5780411q-0.046875 -0.24997711 -0.046875 -1.0312271l0 -2.40625l-0.671875 2.822876E-4l0 -1.171875l0.671875 -2.822876E-4l0 -1.09375l1.46875 -0.8600006l0 1.953125l1.0 -4.272461E-4zm2.423645 5.5302277l-1.46875 6.1798096E-4l0 -5.53125l1.359375 -5.722046E-4l0 0.796875q0.34375 -0.5626526 0.625 -0.734642q0.28125 -0.18762207 0.625 -0.18776703q0.5 -2.1362305E-4 0.96875 0.280838l-0.453125 1.2814407q-0.375 -0.24983978 -0.6875 -0.24970245q-0.3125 1.296997E-4 -0.53125 0.17209625q-0.203125 0.17195892 -0.328125 0.6251373q-0.109375 0.4375534 -0.109375 1.8438034l0 1.703125zm2.3969727 -2.8447723q0 -0.71875 0.359375 -1.4064026q0.359375 -0.6876526 1.015625 -1.0473022q0.671875 -0.35966492 1.46875 -0.3600006q1.265625 -5.41687E-4 2.0625 0.8272476q0.796875 0.8121643 0.796875 2.0465393q0 1.25 -0.8125 2.0784683q-0.796875 0.8284607 -2.03125 0.8289871q-0.75 3.2043457E-4 -1.453125 -0.34313202q-0.6875 -0.34346008 -1.046875 -0.9995575q-0.359375 -0.6717224 -0.359375 -1.6248474zm1.5 0.07749176q0 0.828125 0.390625 1.2654572q0.390625 0.43733215 0.96875 0.437088q0.5625 -2.3651123E-4 0.953125 -0.43790436q0.390625 -0.43766785 0.390625 -1.2657928q0 -0.8125 -0.390625 -1.2498322q-0.390625 -0.43733215 -0.953125 -0.43709564q-0.578125 2.4414062E-4 -0.96875 0.437912q-0.390625 0.43766785 -0.390625 1.2501678zm10.384277 2.7612152l-1.46875 6.1798096E-4l0 -2.8125q0 -0.90625 -0.09375 -1.1562042q-0.09375 -0.26558685 -0.3125 -0.4061203q-0.203125 -0.15616608 -0.5 -0.15603638q-0.375 1.6021729E-4 -0.6875 0.21903992q-0.296875 0.2032547 -0.40625 0.5470505q-0.109375 0.34379578 -0.109375 1.2656708l0 2.5l-1.46875 6.2561035E-4l0 -5.53125l1.359375 -5.79834E-4l0 0.8125q0.71875 -0.9378052 1.828125 -0.9382782q0.484375 -2.0599365E-4 0.875 0.18712616q0.40625 0.17170715 0.609375 0.43724823q0.203125 0.26553345 0.28125 0.6092529q0.09375 0.34371185 0.09375 0.98433685l0 3.4375zm1.1342773 -2.8442307q0 -0.71875 0.359375 -1.4064026q0.359375 -0.6876526 1.015625 -1.0473099q0.671875 -0.3596573 1.46875 -0.3600006q1.265625 -5.340576E-4 2.0625 0.8272476q0.796875 0.8121643 0.796875 2.0465393q0 1.25 -0.8125 2.0784683q-0.796875 0.8284683 -2.03125 0.8289871q-0.75 3.2043457E-4 -1.453125 -0.34313202q-0.6875 -0.34345245 -1.046875 -0.99954987q-0.359375 -0.6717224 -0.359375 -1.6248474zm1.5 0.07748413q0 0.828125 0.390625 1.2654572q0.390625 0.43733978 0.96875 0.437088q0.5625 -2.3651123E-4 0.953125 -0.43790436q0.390625 -0.43766022 0.390625 -1.2657852q0 -0.8125 -0.390625 -1.2498398q-0.390625 -0.43733215 -0.953125 -0.43709564q-0.578125 2.5177002E-4 -0.96875 0.437912q-0.390625 0.43766785 -0.390625 1.2501678zm5.2435913 -2.7678528l1.34375 -5.722046E-4l0 0.765625q0.71875 -0.8909302 1.71875 -0.8913498q0.53125 -2.2888184E-4 0.921875 0.21835327q0.390625 0.21858978 0.640625 0.671608q0.375 -0.45328522 0.796875 -0.6722183q0.421875 -0.21892548 0.890625 -0.21912384q0.609375 -2.593994E-4 1.03125 0.2495575q0.421875 0.24982452 0.625 0.7341156q0.15625 0.34368134 0.15625 1.1405563l0 3.53125l-1.453125 6.1798096E-4l0 -3.15625q0 -0.828125 -0.15625 -1.0624313q-0.203125 -0.31241608 -0.625 -0.3122406q-0.3125 1.373291E-4 -0.578125 0.18775177q-0.265625 0.18760681 -0.390625 0.5470352q-0.125 0.3594284 -0.125 1.1406784l0 2.65625l-1.453125 6.1798096E-4l0 -3.03125q0 -0.796875 -0.078125 -1.0312195q-0.078125 -0.23433685 -0.25 -0.3436432q-0.15625 -0.124931335 -0.4375 -0.124809265q-0.34375 1.449585E-4 -0.609375 0.1877594q-0.265625 0.17198181 -0.390625 0.5157852q-0.109375 0.34379578 -0.109375 1.1406708l0 2.6875l-1.46875 6.2561035E-4l0 -5.53125zm9.584534 -0.75406647l0 -1.34375l1.46875 -6.2561035E-4l0 1.34375l-1.46875 6.2561035E-4zm0 6.28125l0 -5.53125l1.46875 -6.2561035E-4l0 5.53125l-1.46875 6.2561035E-4zm7.7731323 -3.8939285l-1.4375 0.26623535q-0.078125 -0.43746948 -0.34375 -0.65610504q-0.25 -0.21864319 -0.65625 -0.21846771q-0.546875 2.2888184E-4 -0.875 0.3753662q-0.3125 0.37513733 -0.3125 1.2657623q0 0.984375 0.328125 1.3904877q0.328125 0.40610504 0.875 0.40587616q0.421875 -1.8310547E-4 0.6875 -0.23466492q0.265625 -0.25011444 0.375 -0.8282852l1.4375 0.24938965q-0.21875 0.98446655 -0.859375 1.5003662q-0.640625 0.500267 -1.703125 0.50071716q-1.203125 5.1116943E-4 -1.9375 -0.764801q-0.71875 -0.7653198 -0.71875 -2.1090698q0 -1.375 0.71875 -2.1409302q0.734375 -0.7659378 1.96875 -0.7664566q1.0 -4.272461E-4 1.59375 0.43682098q0.609375 0.4372406 0.859375 1.3277588zm2.2077637 0.045936584l-1.328125 -0.23381042q0.21875 -0.79696655 0.765625 -1.1878204q0.546875 -0.3908615 1.625 -0.39131927q0.984375 -4.196167E-4 1.453125 0.23375702q0.484375 0.234169 0.671875 0.5934677q0.203125 0.35929108 0.203125 1.3124161l-0.015625 1.703125q0 0.71875 0.0625 1.0781021q0.078125 0.34371948 0.265625 0.73426056l-1.4375 6.1035156E-4q-0.0625 -0.14059448 -0.140625 -0.43743896q-0.046875 -0.12497711 -0.0625 -0.17185211q-0.375 0.37516022 -0.796875 0.5628433q-0.421875 0.17205048 -0.90625 0.17225647q-0.859375 3.6621094E-4 -1.359375 -0.45254517q-0.484375 -0.468544 -0.484375 -1.187294q0 -0.46875 0.21875 -0.82821655q0.234375 -0.35947418 0.640625 -0.54714966q0.40625 -0.20330048 1.15625 -0.35986328q1.03125 -0.1879425 1.421875 -0.35997772l0 -0.140625q0 -0.421875 -0.21875 -0.59365845q-0.203125 -0.18741608 -0.78125 -0.18717194q-0.375 1.6021729E-4 -0.59375 0.15650177q-0.21875 0.15634155 -0.359375 0.5314026zm1.953125 1.186676q-0.28125 0.09386444 -0.890625 0.23474884q-0.609375 0.1252594 -0.796875 0.2503357q-0.28125 0.20324707 -0.28125 0.5157471q0 0.296875 0.21875 0.53115845q0.234375 0.21865082 0.59375 0.21849823q0.390625 -1.6784668E-4 0.75 -0.26594543q0.265625 -0.18761444 0.34375 -0.48451996q0.0625 -0.18752289 0.0625 -0.7031479l0 -0.296875zm2.8795776 2.6550217l0 -7.625l1.46875 -6.2561035E-4l0 7.6250076l-1.46875 6.1798096E-4zm5.9369507 -0.0025177002l0 -7.625l1.546875 -6.5612793E-4l0 3.0l3.015625 -0.0012817383l0 -3.0l1.53125 -6.4849854E-4l0 7.625l-1.53125 6.4849854E-4l0 -3.328125l-3.015625 0.0012817383l0 3.328125l-1.546875 6.5612793E-4zm7.3362427 -2.8468628q0 -0.71875 0.359375 -1.4064026q0.359375 -0.6876526 1.015625 -1.0473099q0.671875 -0.3596573 1.46875 -0.3600006q1.265625 -5.340576E-4 2.0625 0.8272476q0.796875 0.8121643 0.796875 2.0465393q0 1.25 -0.8125 2.0784683q-0.796875 0.8284683 -2.03125 0.8289871q-0.75 3.2043457E-4 -1.453125 -0.34313202q-0.6875 -0.34345245 -1.046875 -0.99954987q-0.359375 -0.6717224 -0.359375 -1.6248474zm1.5 0.07748413q0 0.828125 0.390625 1.2654572q0.390625 0.43733978 0.96875 0.437088q0.5625 -2.3651123E-4 0.953125 -0.43790436q0.390625 -0.43766022 0.390625 -1.2657852q0 -0.8125 -0.390625 -1.2498398q-0.390625 -0.43733215 -0.953125 -0.43709564q-0.578125 2.5177002E-4 -0.96875 0.437912q-0.390625 0.43766785 -0.390625 1.2501678zm6.7592163 2.7627563l-1.46875 6.2561035E-4l0 -5.53125l1.359375 -5.79834E-4l0 0.796875q0.34375 -0.56264496 0.625 -0.734642q0.28125 -0.18762207 0.625 -0.18776703q0.5 -2.0599365E-4 0.96875 0.280838l-0.453125 1.2814484q-0.375 -0.24983978 -0.6875 -0.24971008q-0.3125 1.296997E-4 -0.53125 0.17209625q-0.203125 0.17196655 -0.328125 0.62514496q-0.109375 0.43754578 -0.109375 1.8437958l0 1.703125zm2.7407837 -6.2824173l0 -1.34375l1.46875 -6.1798096E-4l0 1.34375l-1.46875 6.1798096E-4zm0 6.28125l0 -5.53125l1.46875 -6.1798096E-4l0 5.53125l-1.46875 6.1798096E-4zm2.3668823 -9.994507E-4l0 -1.140625l2.078125 -2.375885q0.5 -0.5783386 0.75 -0.82844543q-0.25 0.015731812 -0.671875 0.015914917l-1.953125 0.016448975l0 -1.21875l4.578125 -0.0019454956l0 1.046875l-2.125 2.422783l-0.734375 0.8128128q0.609375 -0.0315094 0.75 -0.031570435l2.265625 -9.613037E-4l0 1.28125l-4.9375 0.0020980835zm5.578125 -2.8461227q0 -0.71875 0.359375 -1.4064026q0.359375 -0.6876526 1.015625 -1.0473022q0.671875 -0.35966492 1.46875 -0.3600006q1.265625 -5.41687E-4 2.0625 0.8272476q0.796875 0.8121643 0.796875 2.0465393q0 1.25 -0.8125 2.0784683q-0.796875 0.8284607 -2.03125 0.8289871q-0.75 3.2043457E-4 -1.453125 -0.34313202q-0.6875 -0.34346008 -1.046875 -0.9995575q-0.359375 -0.6717224 -0.359375 -1.6248474zm1.5 0.07749176q0 0.828125 0.390625 1.2654572q0.390625 0.43733215 0.96875 0.437088q0.5625 -2.3651123E-4 0.953125 -0.43790436q0.390625 -0.43766785 0.390625 -1.2657928q0 -0.8125 -0.390625 -1.2498322q-0.390625 -0.43733215 -0.953125 -0.43709564q-0.578125 2.4414062E-4 -0.96875 0.437912q-0.390625 0.43766785 -0.390625 1.2501678zm10.384277 2.7612152l-1.46875 6.1798096E-4l0 -2.8125q0 -0.90625 -0.09375 -1.1562042q-0.09375 -0.26558685 -0.3125 -0.4061203q-0.203125 -0.15616608 -0.5 -0.15603638q-0.375 1.6021729E-4 -0.6875 0.21903992q-0.296875 0.2032547 -0.40625 0.5470505q-0.109375 0.34379578 -0.109375 1.2656708l0 2.5l-1.46875 6.2561035E-4l0 -5.53125l1.359375 -5.79834E-4l0 0.8125q0.71875 -0.9378052 1.828125 -0.9382782q0.484375 -2.0599365E-4 0.875 0.18712616q0.40625 0.17170715 0.609375 0.43724823q0.203125 0.26553345 0.28125 0.6092529q0.09375 0.34371185 0.09375 0.98433685l0 3.4375z" fill-rule="nonzero"/><path fill="#000000" fill-opacity="0.0" d="m702.52075 197.16891l91.370056 -116.850395l14.204773 11.118111l-91.37012 116.8504z" fill-rule="evenodd"/><path fill="#000000" d="m737.85565 173.63542l-5.622986 -4.4011536l-1.5688477 2.0063171l-1.1442871 -0.8956299l4.19635 -5.366623l1.1442871 0.89564514l-1.5592041 1.9940186l5.623047 4.4011536l-1.0683594 1.366272zm3.8763428 -4.9573517l-1.0105591 1.2924194l-4.8970947 -3.832962l0.9432373 -1.206253l0.6890259 0.53930664q-0.25152588 -0.6929321 -0.20666504 -1.0546722q0.03253174 -0.37138367 0.27313232 -0.6790924q0.34649658 -0.44311523 0.9197998 -0.66900635l0.802063 1.2825775q-0.46905518 0.16860962 -0.68078613 0.43940735q-0.22137451 0.2830963 -0.20574951 0.592926q0.0032348633 0.30020142 0.31036377 0.7191467q0.2947998 0.40933228 1.5498657 1.3916473l1.5133667 1.184555zm4.4262085 -5.6604767l-0.73828125 -0.5778351q0.19165039 0.5666504 0.07891846 1.192749q-0.11541748 0.6041565 -0.5003662 1.0965118q-0.38500977 0.49235535 -0.90216064 0.72250366q-0.52948 0.22053528 -1.0579224 0.08468628q-0.5285034 -0.13586426 -1.2175293 -0.6751709l-3.100647 -2.4268951l1.0105591 -1.2924194l2.251709 1.7623901q1.0335083 0.80895996 1.3250732 0.9180908q0.2915039 0.10913086 0.571228 0.030426025q0.28936768 -0.09100342 0.51068115 -0.37409973q0.2598877 -0.33233643 0.27746582 -0.73527527q0.027160645 -0.4152527 -0.1665039 -0.7256012q-0.19372559 -0.31033325 -1.239563 -1.1289368l-2.0671387 -1.6179352l1.0106201 -1.2924194l4.8970337 3.832962l-0.94317627 1.2062683zm2.6541748 -6.61586l1.2320557 -1.1190643q0.5211792 0.80474854 0.46679688 1.6352386q-0.05432129 0.8305054 -0.67993164 1.6305695q-1.0009766 1.2801208 -2.3189087 1.2406769q-1.0494385 -0.027694702 -2.0706787 -0.8270416q-1.2180786 -0.9534149 -1.4066772 -2.132782q-0.1885376 -1.1793671 0.5718384 -2.151764q0.8565674 -1.0954742 2.0733643 -1.155014q1.2141724 -0.08148193 2.6740723 1.1207275l-2.5408936 3.2495117q0.5975342 0.4280243 1.1484375 0.38301086q0.5509033 -0.045013428 0.90704346 -0.5004425q0.23095703 -0.29541016 0.23461914 -0.6298523q-0.008605957 -0.3440857 -0.2911377 -0.7437744zm-1.24646 -1.094696q-0.57562256 -0.43069458 -1.0923462 -0.37872314q-0.50701904 0.039657593 -0.824646 0.44584656q-0.32720947 0.4185028 -0.2409668 0.94236755q0.1081543 0.5211792 0.63720703 0.93530273l1.520752 -1.9447937zm6.760071 -2.73497l-6.767334 -5.2967987l1.0683594 -1.366272l2.669983 2.0898285l2.0982056 -2.6833038l-2.670044 -2.0898438l1.0683594 -1.366272l6.767334 5.296814l-1.0683594 1.366272l-2.953003 -2.3113403l-2.0982056 2.683319l2.953003 2.311325l-1.0682983 1.366272zm2.5751343 -8.493286q-0.63983154 -0.50079346 -0.9924927 -1.2927094q-0.36499023 -0.80155945 -0.22021484 -1.6208344q0.13244629 -0.8289032 0.7003174 -1.55513q0.86621094 -1.1077881 2.1503906 -1.253479q1.2718506 -0.15534973 2.3792725 0.7114105q1.1073608 0.866745 1.277771 2.1707916q0.16766357 1.2821198 -0.67926025 2.3652802q-0.5293579 0.6769867 -1.3182373 1.0516663q-0.7791748 0.36236572 -1.607727 0.22975159q-0.84088135 -0.14224243 -1.6898193 -0.80674744zm1.1132812 -1.2715607q0.72595215 0.5682068 1.3891602 0.5317383q0.65093994 -0.0460968 1.0455322 -0.550766q0.40423584 -0.5169678 0.2826538 -1.1478424q-0.12420654 -0.65283203 -0.8624878 -1.2306671q-0.71362305 -0.55856323 -1.364563 -0.51246643q-0.65356445 0.024154663 -1.0578003 0.54112244q-0.39465332 0.5046692 -0.27038574 1.157486q0.11193848 0.6431885 0.8378906 1.2113953zm7.1273193 -4.067108l-1.0105591 1.2924194l-4.8970947 -3.832962l0.9432373 -1.2062683l0.6890259 0.5393219q-0.25152588 -0.6929474 -0.20672607 -1.0546875q0.03253174 -0.3713684 0.27319336 -0.6790924q0.34649658 -0.44311523 0.9197998 -0.66900635l0.802063 1.2825775q-0.46905518 0.16860962 -0.68078613 0.43940735q-0.22137451 0.2830963 -0.20581055 0.592926q0.0032958984 0.30020142 0.3104248 0.719162q0.2947998 0.40931702 1.5498047 1.3916321l1.5134277 1.1845703zm-3.6569824 -6.7886047l-1.2058105 -0.9438019l1.0202026 -1.3047333l1.2058105 0.9438019l-1.0202026 1.3047333zm5.5614624 4.352997l-4.8970337 -3.8329468l1.0202026 -1.3047333l4.8970947 3.832962l-1.0202637 1.304718zm1.6494751 -2.1094055l-1.0089722 -0.78970337l-0.682251 -3.4904633q-0.16064453 -0.85990906 -0.20617676 -1.2328796q-0.1609497 0.23118591 -0.44970703 0.6004486l-1.3447876 1.7451782l-1.0704346 -0.8378601l3.1761475 -4.0618973l0.91052246 0.71266174l0.6929321 3.5782242l0.20355225 1.2109375q0.38659668 -0.57048035 0.4827881 -0.693573l1.5688477 -2.0063171l1.1442871 0.8956299l-3.416748 4.3696136zm1.3467407 -6.922386q-0.6397705 -0.5007858 -0.99243164 -1.2927094q-0.36499023 -0.80155945 -0.22021484 -1.6208344q0.13244629 -0.8289032 0.7003174 -1.5551224q0.86621094 -1.1077881 2.1503906 -1.2534943q1.2718506 -0.15533447 2.3792114 0.71141815q1.1074219 0.866745 1.277771 2.1707993q0.16772461 1.2821121 -0.67926025 2.3652802q-0.5293579 0.67697906 -1.3181763 1.051651q-0.77923584 0.36236572 -1.607727 0.22976685q-0.84088135 -0.14224243 -1.6898804 -0.80675507zm1.1133423 -1.2715607q0.7258911 0.56819916 1.3891602 0.5317383q0.65093994 -0.04610443 1.0455322 -0.55075836q0.40423584 -0.5169678 0.2826538 -1.14785q-0.12420654 -0.6528244 -0.8624878 -1.2306595q-0.71362305 -0.55857086 -1.364563 -0.51247406q-0.6536255 0.024162292 -1.0578613 0.54113007q-0.3945923 0.50465393 -0.2703247 1.1574783q0.11193848 0.6431961 0.8378906 1.2113953zm9.639404 -7.279701l-1.0106201 1.2924194l-2.4977417 -1.9550018q-0.7998047 -0.6259842 -1.1009521 -0.7228012q-0.2915039 -0.10913086 -0.5685425 -0.0084991455q-0.27972412 0.078697205 -0.48187256 0.3371811q-0.2694702 0.34465027 -0.29663086 0.7598953q-0.017578125 0.40294647 0.2130127 0.7421799q0.23065186 0.3392334 1.0549927 0.9844818l2.2147827 1.7334976l-1.0202026 1.3047256l-4.8970947 -3.8329544l0.9432373 -1.2062607l0.71362305 0.55857086q-0.32391357 -1.2853012 0.44610596 -2.2700043q0.32720947 -0.41849518 0.7662964 -0.6502533q0.4267578 -0.24138641 0.8171997 -0.23340607q0.37817383 -0.0016479492 0.7338867 0.17756653q0.35308838 0.15727997 0.9190674 0.6002884l3.0514526 2.3883743z" fill-rule="nonzero"/><path fill="#000000" fill-opacity="0.0" d="m771.5197 157.07611l-11.370117 -9.291336" fill-rule="evenodd"/><path stroke="#000000" stroke-width="3.0" stroke-linejoin="round" stroke-linecap="butt" d="m771.5197 157.07611l-11.370117 -9.291336" fill-rule="evenodd"/></g></svg>