<?xml version="1.0" encoding="UTF-8"?>
<svg xmlns="http://www.w3.org/2000/svg" xmlns:xlink="http://www.w3.org/1999/xlink" width="139.425" height="25" viewBox="0 0 139.425 25">
  <defs>
    <clipPath id="clip-path">
      <rect width="139.424" height="25" fill="none"></rect>
    </clipPath>
  </defs>
  <g id="SW_Logo" data-name="SW Logo" clip-path="url(#clip-path)">
    <path id="Pfad_10" data-name="Pfad 10" d="M303.048,64.049l-4.6,13.634h-2.711l-1.951-5.3q-.227-.637-.6-1.827h-.062a14.265,14.265,0,0,1-.554,1.785l-1.924,5.34h-2.609l-4.93-13.634h3.511l2.4,7.556q.123.369.472,1.745h.062q.185-.739.513-1.745l1.7-5.121-.885-2.435h3.106l2.525,7.31q.246.657.636,1.971h.062q.123-.616.472-1.93l2.177-7.35ZM313.914,77.58h-3.4l-1.283-3.223h-4.4l-1.238,3.223h-3.064l5.318-13.613h2.464Zm-5.626-5.728-.745-2.135a13.5,13.5,0,0,1-.5-1.663h-.021a8.673,8.673,0,0,1-.5,1.616l-.809,2.182Zm17.432,5.728h-3.552q-1.972-3.428-2.2-3.8a3.622,3.622,0,0,0-1.006-1.273h-.944V77.58H314.88V64.049h4.229a5.656,5.656,0,0,1,3.9,1.171,3.562,3.562,0,0,1,1.129,2.772,3.485,3.485,0,0,1-.76,2.176,4.409,4.409,0,0,1-1.643,1.294v.021a6.683,6.683,0,0,1,1.52,1.91Q323.832,74.315,325.721,77.58Zm-4.681-9.251a1.657,1.657,0,0,0-.51-1.238,1.849,1.849,0,0,0-1.346-.5h-1.162v3.676h1.142a1.792,1.792,0,0,0,1.346-.547A1.919,1.919,0,0,0,321.04,68.329ZM334.8,77.58h-8.089V64.049h8.131l-.76,2.546h-4.23v2.813h4.25v2.546h-4.25v3.08H334.8Z" transform="translate(-211.516 -52.785)" fill="#003f72"></path>
    <path id="Pfad_11" data-name="Pfad 11" d="M73.368,73.532a3.625,3.625,0,0,1-1.5,3.018,5.692,5.692,0,0,1-3.614,1.109,7.923,7.923,0,0,1-4.476-1.334l1.191-2.238a5.557,5.557,0,0,0,3.121,1.088,2.67,2.67,0,0,0,1.314-.287,1.04,1.04,0,0,0,.636-.965q0-.883-1.848-1.786a10.8,10.8,0,0,1-3.08-1.992,3.784,3.784,0,0,1,.37-5.154,5.079,5.079,0,0,1,3.552-1.211,7.1,7.1,0,0,1,3.532.842l-.061,2.628a7.635,7.635,0,0,0-3.285-1.006,2.093,2.093,0,0,0-1.17.3.909.909,0,0,0-.452.791q0,.842,1.5,1.622a25.592,25.592,0,0,1,2.772,1.54A3.715,3.715,0,0,1,73.368,73.532Z" transform="translate(-63.78 -52.659)" fill="#0082bb"></path>
    <path id="Pfad_12" data-name="Pfad 12" d="M105.522,77.75H97.432V64.219h8.131l-.76,2.546h-4.23v2.813h4.25v2.546h-4.25V75.2h4.948Z" transform="translate(-86.447 -52.955)" fill="#0082bb"></path>
    <path id="Pfad_13" data-name="Pfad 13" d="M135.433,73.562a6.69,6.69,0,0,0-1.52-1.91v-.021a4.41,4.41,0,0,0,1.643-1.294,3.485,3.485,0,0,0,.76-2.176,3.561,3.561,0,0,0-1.129-2.772,5.657,5.657,0,0,0-3.9-1.171h-4.229V77.75H130.2V72.678h.944a3.625,3.625,0,0,1,1.006,1.273q.225.37,2.2,3.8H137.9Q136.008,74.486,135.433,73.562Zm-2.748-3.668a1.792,1.792,0,0,1-1.346.547H130.2V66.765h1.162a1.85,1.85,0,0,1,1.346.5,1.658,1.658,0,0,1,.51,1.238A1.92,1.92,0,0,1,132.685,69.893Z" transform="translate(-106.401 -52.955)" fill="#0082bb"></path>
    <path id="Pfad_14" data-name="Pfad 14" d="M170.225,64.282l-6.037,13.613h-2.4l-5.605-13.613h3.446l2.585,6.735q.472,1.252.944,2.607h.04q.411-1.253.944-2.508l2.874-6.834Z" transform="translate(-126.019 -52.997)" fill="#0082bb"></path>
    <rect id="Rechteck_2" data-name="Rechteck 2" width="3.142" height="13.531" transform="translate(45.17 11.264)" fill="#0082bb"></rect>
    <path id="Pfad_15" data-name="Pfad 15" d="M228.325,76.2a8.906,8.906,0,0,1-4.8,1.458,6.821,6.821,0,0,1-5.2-2.012,7.129,7.129,0,0,1,.246-9.794,8.995,8.995,0,0,1,9.219-1.376l-.061,2.71a6.5,6.5,0,0,0-3.347-.9,4.09,4.09,0,0,0-4.455,4.312,4.463,4.463,0,0,0,1.139,3.121,3.87,3.87,0,0,0,3.008,1.253,7.019,7.019,0,0,0,3.408-.923Z" transform="translate(-166.647 -52.659)" fill="#0082bb"></path>
    <path id="Pfad_16" data-name="Pfad 16" d="M259.961,72.123h4.25V69.578h-4.25V66.764h4.23l.008-.026-.878-2.519h-6.5V77.75h8.089V75.2h-4.948Z" transform="translate(-193.806 -52.955)" fill="#0082bb"></path>
    <path id="Pfad_17" data-name="Pfad 17" d="M455.324,29.712a6.938,6.938,0,0,0-4.276,12.4V37.411a.9.9,0,1,1,.96,0v5.338a6.881,6.881,0,0,0,1.571.621V37.411a.9.9,0,1,1,.96,0v6.135a6.82,6.82,0,0,0,1.571,0V37.411a.9.9,0,1,1,.96,0V43.37a6.9,6.9,0,0,0,1.571-.621V37.411a.9.9,0,1,1,.959,0v4.7a6.938,6.938,0,0,0-4.275-12.4Z" transform="translate(-322.839 -29.712)" fill="#ff8300"></path>
  </g>
</svg>
