<svg width="81" height="68" viewBox="0 0 81 68" fill="none" xmlns="http://www.w3.org/2000/svg">
<g clip-path="url(#clip0_2058_18876)">
<path d="M37.9679 38.1309H41.2201L39.594 36.436L37.9679 38.1309Z" fill="#B91414"/>
<path d="M33.5688 2.4115H31.8873V0.74707H37.1381V2.4115H35.4667V7.05971H33.5688V2.4115Z" fill="black"/>
<path d="M41.9567 4.64934H39.7114V7.06479H37.8135V0.74707H39.7114V2.97984H41.9567V0.74707H43.8546V7.05971H41.9567V4.64426V4.64934Z" fill="black"/>
<path d="M44.5981 0.74707H49.3505V2.33538H46.4961V3.07118H49.2851V4.65949H46.4961V5.46633H49.3505V7.05464H44.5981V0.74707Z" fill="black"/>
<path d="M2.94437 48.7162L2.76314 50.9135L0.61853 50.7359L1.18237 43.8701L3.32698 44.0477L3.14575 46.2348L9.12649 46.7321L8.92512 49.2135L2.94437 48.7162Z" fill="black"/>
<path d="M1.36401 42.6372L2.09902 40.2218L6.60975 41.6173C7.35986 41.8507 8.07473 41.6426 8.37175 40.6683C8.66878 39.7042 8.19052 39.1308 7.44041 38.8974L2.92968 37.5019L3.66469 35.0864L8.2459 36.5022C10.1841 37.101 11.2614 38.6589 10.4509 41.3128C9.64543 43.9617 7.88343 44.6569 5.95529 44.0581L1.36401 42.6372Z" fill="black"/>
<path d="M7.80253 35.7307C5.63274 34.4417 5.14945 31.8944 6.41809 29.7276C7.53571 27.8196 9.15675 27.5202 10.3751 27.6724L10.1485 30.027C9.49405 29.8798 8.69863 30.1538 8.29589 30.8439C7.72198 31.8182 8.09955 32.9752 9.08124 33.5537C10.0579 34.1373 11.241 33.9089 11.8149 32.9346C12.2176 32.2445 12.0666 31.4123 11.6236 30.9048L13.5467 29.5601C14.2414 30.5293 14.8052 32.1379 13.6876 34.051C12.419 36.2178 9.96727 37.0196 7.80756 35.7357L7.80253 35.7307Z" fill="black"/>
<path d="M15.6405 26.5711L15.7563 27.3272L17.3673 28.9308L15.6305 30.7018L9.82593 24.927L11.5577 23.156L13.7325 25.3177L13.0579 21.6185L15.1774 19.4517L15.711 24.3485L21.0776 25.13L18.9682 27.2866L15.6355 26.5711H15.6405Z" fill="black"/>
<path d="M17.3178 17.9447L22.5988 14.7021L23.666 16.4681L20.4944 18.4167L20.9878 19.2387L24.0889 17.3358L25.1562 19.1017L22.0551 21.0046L22.5937 21.8977L25.7653 19.9492L26.8326 21.7151L21.5516 24.9577L17.3127 17.9397L17.3178 17.9447Z" fill="black"/>
<path d="M29.7965 17.8687L28.9457 18.1478L29.7562 20.6545L27.4102 21.4259L24.8881 13.6112L29.0263 12.2512C30.8386 11.6575 32.2079 12.5557 32.6812 14.0171C33.1141 15.3619 32.5704 16.3362 32.0519 16.8436L34.3525 19.1474L31.6793 20.0253L29.8015 17.8687H29.7965ZM29.2981 14.3368L27.8684 14.8037L28.3114 16.1738L29.7411 15.7069C30.1338 15.575 30.4258 15.1944 30.2848 14.7631C30.1489 14.3419 29.6958 14.2049 29.2981 14.3368Z" fill="black"/>
<path d="M37.4387 14.5648C37.5041 12.0276 39.4776 10.3632 41.9695 10.4291C44.1695 10.485 45.2116 11.7688 45.6697 12.9156L43.5201 13.8595C43.3288 13.215 42.7096 12.6416 41.9142 12.6213C40.7915 12.5909 39.9709 13.484 39.9457 14.6257C39.9155 15.7726 40.6858 16.7012 41.8135 16.7316C42.6089 16.7519 43.2583 16.214 43.4798 15.5797L45.5791 16.62C45.0757 17.7059 43.953 18.9796 41.7531 18.9238C39.2611 18.8578 37.3732 17.0868 37.4387 14.5598V14.5648Z" fill="black"/>
<path d="M51.1367 19.431L48.1312 18.5582L47.5321 19.4869L44.9596 18.7358L50.1097 11.6772L53.095 12.545L53.7243 21.2832L51.1518 20.5322L51.1367 19.426V19.431ZM49.3092 16.7466L51.0964 17.2642L51.0007 14.2196L49.3092 16.7416V16.7466Z" fill="black"/>
<path d="M58.0589 20.9688L57.2937 20.5071L55.9445 22.7652L53.8301 21.4814L58.0287 14.438L61.7591 16.6961C63.3952 17.6857 63.6168 19.3196 62.8314 20.639C62.1065 21.8518 61.0191 22.0751 60.3042 22.0091L60.0877 25.272L57.6763 23.8105L58.0589 20.9638V20.9688ZM60.3797 18.2743L59.0909 17.4928L58.3559 18.7259L59.6447 19.5074C60.0021 19.7256 60.4753 19.6951 60.7069 19.3044C60.9335 18.9238 60.7371 18.4874 60.3797 18.2743Z" fill="black"/>
<path d="M65.8488 19.5835L67.6511 21.2834L63.5482 25.6982L65.8035 27.8295L64.3335 29.4128L60.2759 25.5815L65.8488 19.5835Z" fill="black"/>
<path d="M68.018 29.2657C67.867 30.1081 67.9928 31.1331 68.602 32.0567C68.8587 32.4474 69.2363 32.7265 69.4981 32.5489C69.7649 32.3713 69.7045 31.9958 69.3823 31.2346C68.8386 29.9711 67.9626 28.0681 69.6642 26.9264C70.812 26.1551 72.4985 26.4139 73.7369 28.2914C74.477 29.4078 74.8244 30.6257 74.7086 31.8283L72.5237 31.6964C72.5791 30.8033 72.2921 29.8797 71.9347 29.3368C71.5974 28.8242 71.3356 28.8344 71.1644 28.9511C70.9026 29.1287 70.9933 29.4687 71.3507 30.2755C71.9045 31.534 72.6848 33.4217 71.1141 34.4772C69.6189 35.482 68.013 34.9441 66.7997 33.1071C65.8381 31.6507 65.6066 30.3669 65.7777 29.2048L68.018 29.2556V29.2657Z" fill="black"/>
<path d="M78.0366 36.7861C78.9025 39.1711 77.9611 41.6017 75.6101 42.4745C73.254 43.3423 70.9785 42.094 70.1126 39.709C69.2467 37.324 70.1881 34.8933 72.5391 34.0255C74.8952 33.1578 77.1707 34.4061 78.0366 36.7861ZM75.9927 37.5422C75.5849 36.4207 74.4723 36.0046 73.405 36.4004C72.3378 36.7962 71.7538 37.8365 72.1616 38.9579C72.5694 40.0794 73.6819 40.4955 74.7492 40.0997C75.8165 39.7039 76.4005 38.6636 75.9927 37.5422Z" fill="black"/>
<path d="M76.2389 45.6056L71.8842 46.042L71.6426 43.5656L79.7579 42.7588L80.0096 45.3112L76.2036 48.564L80.2915 48.158L80.5331 50.6344L72.4179 51.4412L72.1863 49.0613L76.2439 45.6106L76.2389 45.6056Z" fill="black"/>
<path d="M32.8229 43.5196H46.3702L45.1569 42.251H34.0361L32.8229 43.5196Z" fill="#B91414"/>
<path d="M29.325 53.0193V47.1735L28.3332 48.2137L27.3163 47.2293L39.5949 34.3858L51.8786 47.2293L50.8617 48.2137L49.8649 47.1735V53.0193H59.3545L55.8759 49.051H58.8058L55.3321 44.9356H57.9399L54.8992 41.3328H57.1646L54.7532 38.4758H56.6511L51.9642 33.8124L50.2274 35.5377L48.0072 32.9091H50.2626L45.0169 27.5353L41.2814 31.3563L36.7103 26.7437L31.7616 31.7369H33.8256L31.6659 34.2995L28.2728 30.8286L23.0271 36.1974H25.2824L22.3323 39.6886H25.1062L21.3909 44.0882H24.5776L20.3287 49.1119H23.2586L19.8353 53.0193H29.325Z" fill="#B91414"/>
<path d="M35.3964 40.8248H43.7986L42.5803 39.5562H36.6096L35.3964 40.8248Z" fill="#B91414"/>
<path d="M30.7391 45.6965V46.2141H36.5588V45.6052H42.6352V46.2141H48.4548V45.6965L47.7299 44.9404H31.4641L30.7391 45.6965Z" fill="#B91414"/>
<path d="M30.739 51.5987H48.4547V50.3301H42.6351V50.8832H36.5587V50.3301H30.739V51.5987Z" fill="#B91414"/>
<path d="M36.5588 47.6353H30.7391V48.9039H36.5588V47.6353Z" fill="#B91414"/>
<path d="M48.4543 47.6353H42.6346V48.9039H48.4543V47.6353Z" fill="#B91414"/>
<path d="M41.2201 47.0264H37.9679V49.4621H41.2201V47.0264Z" fill="#B91414"/>
<path d="M0.633545 58.9309H6.79049V60.9911H3.09028V61.9451H6.70491V64.0053H3.09028V65.0456H6.79049V67.1058H0.633545V58.9258V58.9309Z" fill="black"/>
<path d="M11.0703 62.7164V67.1058H8.61353V58.9258H11.1458L13.97 63.0462V58.9258H16.4268V67.1058H14.0657L11.0753 62.7164H11.0703Z" fill="black"/>
<path d="M18.0262 63.0261C18.0262 60.499 19.9493 58.7939 22.4313 58.7939C24.6212 58.7939 25.6884 60.0423 26.1768 61.1739L24.0624 62.1685C23.856 61.5291 23.2216 60.981 22.4313 60.981C21.3136 60.981 20.5233 61.8894 20.5233 63.0261C20.5233 64.1627 21.3136 65.0711 22.4313 65.0711C23.2216 65.0711 23.856 64.5179 24.0624 63.8836L26.1768 64.863C25.7035 65.954 24.6212 67.2531 22.4313 67.2531C19.9493 67.2531 18.0262 65.5379 18.0262 63.021V63.0261Z" fill="black"/>
<path d="M31.6739 58.7939C34.181 58.7939 36.1141 60.5091 36.1141 63.0261C36.1141 65.543 34.181 67.2582 31.6739 67.2582C29.1668 67.2582 27.2336 65.543 27.2336 63.0261C27.2336 60.5091 29.1668 58.7939 31.6739 58.7939ZM31.6739 60.976C30.4959 60.976 29.7256 61.8843 29.7256 63.021C29.7256 64.1577 30.4908 65.066 31.6739 65.066C32.857 65.066 33.6222 64.1577 33.6222 63.021C33.6222 61.8843 32.857 60.976 31.6739 60.976Z" fill="black"/>
<path d="M37.7206 58.9312H40.2126V63.6656C40.2126 64.4522 40.6153 65.0763 41.6222 65.0763C42.629 65.0763 43.0217 64.4522 43.0217 63.6656V58.9312H45.5137V63.7367C45.5137 65.7715 44.3558 67.2584 41.6222 67.2584C38.8886 67.2584 37.7156 65.7766 37.7156 63.7519V58.9312H37.7206Z" fill="black"/>
<path d="M49.9448 62.7164V67.1058H47.488V58.9258H50.0203L52.8445 63.0462V58.9258H55.3013V67.1058H52.9402L49.9498 62.7164H49.9448Z" fill="black"/>
<path d="M59.1123 61.0878H56.9325V58.9312H63.7338V61.0878H61.5691V67.1061H59.1123V61.0878Z" fill="black"/>
<path d="M65.3794 58.9309H71.5363V60.9911H67.8361V61.9451H71.4508V64.0053H67.8361V65.0456H71.5363V67.1058H65.3794V58.9258V58.9309Z" fill="black"/>
<path d="M76.7021 64.4823H75.8161V67.1058H73.3594V58.9258H77.6889C79.5868 58.9258 80.6088 60.1995 80.6088 61.732C80.6088 63.1427 79.7932 63.8886 79.1488 64.2083L80.6188 67.1008H77.8198L76.7021 64.4773V64.4823ZM77.3113 60.986H75.8161V62.4221H77.3113C77.7241 62.4221 78.1117 62.1531 78.1117 61.6964C78.1117 61.2397 77.7241 60.986 77.3113 60.986Z" fill="black"/>
</g>
<defs>
<clipPath id="clip0_2058_18876">
<rect width="80" height="66.506" fill="white" transform="translate(0.691895 0.74707)"/>
</clipPath>
</defs>
</svg>
