<svg version="1.1" viewBox="0.0 0.0 960.0 960.0" fill="none" stroke="none" stroke-linecap="square" stroke-miterlimit="10" xmlns:xlink="http://www.w3.org/1999/xlink" xmlns="http://www.w3.org/2000/svg"><clipPath id="p.0"><path d="m0 0l960.0 0l0 960.0l-960.0 0l0 -960.0z" clip-rule="nonzero"/></clipPath><g clip-path="url(#p.0)"><path fill="#000000" fill-opacity="0.0" d="m0 0l960.0 0l0 960.0l-960.0 0z" fill-rule="evenodd"/><path fill="#f1c232" d="m3.5695539 661.0696l0 0c0 40.923462 213.30988 74.09845 476.44095 74.09845c263.13104 0 476.44092 -33.174988 476.44092 -74.09845l0 223.04718c0 40.923462 -213.30988 74.09845 -476.44092 74.09845c-263.13107 0 -476.44095 -33.174988 -476.44095 -74.09845z" fill-rule="evenodd"/><path fill="#f6da84" d="m3.5695539 661.0696l0 0c0 -40.923462 213.30988 -74.09845 476.44095 -74.09845c263.13104 0 476.44092 33.174988 476.44092 74.09845l0 0c0 40.923462 -213.30988 74.09845 -476.44092 74.09845c-263.13107 0 -476.44095 -33.174988 -476.44095 -74.09845z" fill-rule="evenodd"/><path fill="#000000" fill-opacity="0.0" d="m956.4514 661.0696l0 0c0 40.923462 -213.30988 74.09845 -476.44092 74.09845c-263.13107 0 -476.44095 -33.174988 -476.44095 -74.09845l0 0c0 -40.923462 213.30988 -74.09845 476.44095 -74.09845c263.13104 0 476.44092 33.174988 476.44092 74.09845l0 223.04718c0 40.923462 -213.30988 74.09845 -476.44092 74.09845c-263.13107 0 -476.44095 -33.174988 -476.44095 -74.09845l0 -223.04718" fill-rule="evenodd"/><path stroke="#bf9000" stroke-width="8.0" stroke-linejoin="round" stroke-linecap="butt" d="m956.4514 661.0696l0 0c0 40.923462 -213.30988 74.09845 -476.44092 74.09845c-263.13107 0 -476.44095 -33.174988 -476.44095 -74.09845l0 0c0 -40.923462 213.30988 -74.09845 476.44095 -74.09845c263.13104 0 476.44092 33.174988 476.44092 74.09845l0 223.04718c0 40.923462 -213.30988 74.09845 -476.44092 74.09845c-263.13107 0 -476.44095 -33.174988 -476.44095 -74.09845l0 -223.04718" fill-rule="evenodd"/><path fill="#666666" d="m3.5695539 369.5604l0 0c0 40.923462 213.30988 74.09848 476.44095 74.09848c263.13104 0 476.44092 -33.17502 476.44092 -74.09848l0 223.04715c0 40.923462 -213.30988 74.09851 -476.44092 74.09851c-263.13107 0 -476.44095 -33.17505 -476.44095 -74.09851z" fill-rule="evenodd"/><path fill="#a3a3a3" d="m3.5695539 369.5604l0 0c0 -40.92343 213.30988 -74.09845 476.44095 -74.09845c263.13104 0 476.44092 33.17502 476.44092 74.09845l0 0c0 40.923462 -213.30988 74.09848 -476.44092 74.09848c-263.13107 0 -476.44095 -33.17502 -476.44095 -74.09848z" fill-rule="evenodd"/><path fill="#000000" fill-opacity="0.0" d="m956.4514 369.5604l0 0c0 40.923462 -213.30988 74.09848 -476.44092 74.09848c-263.13107 0 -476.44095 -33.17502 -476.44095 -74.09848l0 0c0 -40.92343 213.30988 -74.09845 476.44095 -74.09845c263.13104 0 476.44092 33.17502 476.44092 74.09845l0 223.04715c0 40.923462 -213.30988 74.09851 -476.44092 74.09851c-263.13107 0 -476.44095 -33.17505 -476.44095 -74.09851l0 -223.04715" fill-rule="evenodd"/><path stroke="#434343" stroke-width="8.0" stroke-linejoin="round" stroke-linecap="butt" d="m956.4514 369.5604l0 0c0 40.923462 -213.30988 74.09848 -476.44092 74.09848c-263.13107 0 -476.44095 -33.17502 -476.44095 -74.09848l0 0c0 -40.92343 213.30988 -74.09845 476.44095 -74.09845c263.13104 0 476.44092 33.17502 476.44092 74.09845l0 223.04715c0 40.923462 -213.30988 74.09851 -476.44092 74.09851c-263.13107 0 -476.44095 -33.17505 -476.44095 -74.09851l0 -223.04715" fill-rule="evenodd"/><path fill="#e68dbb" d="m3.5695539 78.851746l0 0c0 40.923454 213.30988 74.098465 476.44095 74.098465c263.13104 0 476.44092 -33.17501 476.44092 -74.098465l0 223.04715c0 40.923462 -213.30988 74.09848 -476.44092 74.09848c-263.13107 0 -476.44095 -33.17502 -476.44095 -74.09848z" fill-rule="evenodd"/><path fill="#f0bad6" d="m3.5695539 78.851746l0 0c0 -40.92345 213.30988 -74.098465 476.44095 -74.098465c263.13104 0 476.44092 33.175014 476.44092 74.098465l0 0c0 40.923454 -213.30988 74.098465 -476.44092 74.098465c-263.13107 0 -476.44095 -33.17501 -476.44095 -74.098465z" fill-rule="evenodd"/><path fill="#000000" fill-opacity="0.0" d="m956.4514 78.851746l0 0c0 40.923454 -213.30988 74.098465 -476.44092 74.098465c-263.13107 0 -476.44095 -33.17501 -476.44095 -74.098465l0 0c0 -40.92345 213.30988 -74.098465 476.44095 -74.098465c263.13104 0 476.44092 33.175014 476.44092 74.098465l0 223.04715c0 40.923462 -213.30988 74.09848 -476.44092 74.09848c-263.13107 0 -476.44095 -33.17502 -476.44095 -74.09848l0 -223.04715" fill-rule="evenodd"/><path stroke="#d172a3" stroke-width="8.0" stroke-linejoin="round" stroke-linecap="butt" d="m956.4514 78.851746l0 0c0 40.923454 -213.30988 74.098465 -476.44092 74.098465c-263.13107 0 -476.44095 -33.17501 -476.44095 -74.098465l0 0c0 -40.92345 213.30988 -74.098465 476.44095 -74.098465c263.13104 0 476.44092 33.175014 476.44092 74.098465l0 223.04715c0 40.923462 -213.30988 74.09848 -476.44092 74.09848c-263.13107 0 -476.44095 -33.17502 -476.44095 -74.09848l0 -223.04715" fill-rule="evenodd"/><path fill="#000000" fill-opacity="0.0" d="m550.6142 736.53546l412.97638 0l0 42.015747l-412.97638 0z" fill-rule="evenodd"/></g></svg>