<?xml version="1.0" encoding="UTF-8"?><svg id="a" xmlns="http://www.w3.org/2000/svg" width="291.06" height="215.83" viewBox="0 0 291.06 215.83"><circle cx="100.86" cy="114.97" r="99.86" fill="none" stroke="#545454" stroke-miterlimit="10" stroke-width="2"/><path d="M212.73,105.96c0,9.36-1.31,18.42-3.75,27,.15,0,.3-.02,.46-.02,.56,0,1.08,.06,1.58,.15,2.42-8.64,3.71-17.74,3.71-27.13,0-47.07-32.42-86.71-76.1-97.78,.03,.68-.02,1.36-.16,2.02,42.65,10.96,74.25,49.74,74.25,95.76Z" fill="#3b8700"/><g><path d="M215.7,53.02h-2.9l-.76-2.2h-4.04l-.76,2.2h-2.83l4.03-10.91h3.24l4.03,10.91Zm-4.34-4.2l-1.34-3.91-1.34,3.91h2.68Z" fill="#3b8700"/><path d="M223.08,47.31h-.23c-.11-.04-.29-.07-.54-.09-.25-.02-.46-.03-.62-.03-.38,0-.71,.02-.99,.07s-.6,.13-.93,.25v5.51h-2.64v-8.23h2.64v1.21c.58-.5,1.08-.83,1.51-.99s.82-.25,1.18-.25c.09,0,.2,0,.31,0,.12,0,.22,.01,.31,.02v2.51Z" fill="#3b8700"/><path d="M228.86,53.24c-.72,0-1.37-.09-1.97-.26-.59-.17-1.11-.43-1.55-.79-.43-.36-.77-.81-1.01-1.35-.24-.54-.36-1.18-.36-1.9,0-.77,.13-1.43,.38-1.98,.26-.56,.61-1.02,1.07-1.38,.44-.35,.96-.6,1.54-.76,.58-.16,1.18-.24,1.81-.24,.56,0,1.08,.06,1.55,.18s.92,.28,1.33,.48v2.25h-.37c-.1-.09-.23-.19-.37-.31-.14-.12-.32-.23-.53-.34-.2-.11-.42-.2-.66-.27-.24-.07-.52-.11-.83-.11-.7,0-1.24,.22-1.62,.67-.38,.45-.57,1.05-.57,1.82s.19,1.39,.58,1.8,.94,.62,1.65,.62c.33,0,.63-.04,.9-.11,.27-.08,.49-.16,.66-.27,.17-.1,.31-.2,.44-.31s.24-.21,.35-.31h.37v2.25c-.42,.2-.85,.35-1.3,.47-.45,.11-.95,.17-1.5,.17Z" fill="#3b8700"/><path d="M241.17,53.02h-2.64v-11.4h2.64v11.4Z" fill="#3b8700"/><path d="M251.76,49.39h-6.04c.04,.64,.28,1.14,.74,1.48,.45,.34,1.12,.51,2,.51,.56,0,1.1-.1,1.62-.3s.93-.42,1.24-.64h.29v2.12c-.6,.24-1.16,.41-1.68,.52s-1.11,.16-1.75,.16c-1.65,0-2.92-.37-3.79-1.11s-1.32-1.8-1.32-3.17,.42-2.43,1.25-3.23c.83-.79,1.97-1.19,3.42-1.19,1.34,0,2.34,.34,3.02,1.01s1.01,1.65,1.01,2.92v.92Zm-2.62-1.55c-.01-.55-.15-.97-.41-1.25s-.66-.42-1.21-.42c-.51,0-.93,.13-1.25,.4s-.51,.69-.55,1.27h3.42Z" fill="#3b8700"/><path d="M261.88,53.02h-2.64v-4.08c0-.33-.02-.66-.05-.99-.03-.33-.09-.57-.18-.73-.1-.18-.24-.31-.43-.4-.19-.08-.45-.12-.79-.12-.24,0-.48,.04-.73,.12-.25,.08-.51,.2-.8,.37v5.83h-2.64v-8.23h2.64v.91c.47-.37,.92-.65,1.35-.84s.91-.29,1.44-.29c.89,0,1.58,.26,2.08,.78s.75,1.29,.75,2.32v5.35Z" fill="#3b8700"/><path d="M272.3,52.07c0,.77-.11,1.42-.33,1.95-.22,.53-.53,.94-.92,1.24-.39,.3-.87,.52-1.43,.66-.56,.13-1.19,.2-1.89,.2-.57,0-1.13-.03-1.69-.1-.55-.07-1.03-.15-1.44-.25v-2.06h.32c.32,.13,.71,.24,1.18,.35,.46,.1,.88,.16,1.24,.16,.49,0,.88-.05,1.19-.14,.3-.09,.54-.22,.7-.38,.15-.16,.26-.36,.33-.6,.07-.24,.1-.54,.1-.88v-.15c-.32,.26-.67,.46-1.05,.62-.39,.15-.81,.23-1.29,.23-1.15,0-2.04-.35-2.66-1.04s-.94-1.75-.94-3.16c0-.68,.09-1.26,.29-1.76s.46-.92,.8-1.29c.32-.34,.72-.61,1.19-.8s.95-.29,1.45-.29c.44,0,.85,.05,1.21,.16,.36,.11,.69,.25,.99,.44l.1-.37h2.56v7.28Zm-2.64-1.65v-3.73c-.15-.06-.34-.11-.56-.15-.22-.04-.42-.06-.59-.06-.69,0-1.21,.2-1.56,.6s-.52,.95-.52,1.67c0,.79,.15,1.34,.44,1.66s.73,.47,1.31,.47c.26,0,.52-.04,.78-.12,.25-.08,.48-.19,.69-.33Z" fill="#3b8700"/><path d="M280.05,52.95c-.28,.07-.58,.13-.9,.17-.32,.04-.71,.06-1.17,.06-1.03,0-1.79-.21-2.29-.62-.5-.42-.75-1.13-.75-2.13v-3.85h-1.08v-1.79h1.08v-2.35h2.64v2.35h2.46v1.79h-2.46v2.92c0,.29,0,.54,0,.76,0,.22,.04,.41,.12,.58,.07,.17,.19,.31,.36,.41s.42,.15,.76,.15c.14,0,.32-.03,.54-.09s.38-.11,.46-.16h.22v1.8Z" fill="#3b8700"/><path d="M289.89,53.02h-2.64v-4.08c0-.33-.02-.66-.05-.99-.03-.33-.09-.57-.18-.73-.1-.18-.24-.31-.43-.4-.19-.08-.45-.12-.79-.12-.24,0-.48,.04-.73,.12-.25,.08-.51,.2-.8,.37v5.83h-2.64v-11.4h2.64v4.08c.47-.37,.92-.65,1.35-.84s.91-.29,1.44-.29c.89,0,1.58,.26,2.08,.78s.75,1.29,.75,2.32v5.35Z" fill="#3b8700"/></g><line x1="127.69" y1="18.76" x2="100.86" y2="114.97" fill="none" stroke="#545454" stroke-miterlimit="10" stroke-width="2"/><line x1="100.86" y1="114.97" x2="198.34" y2="136.72" fill="none" stroke="#545454" stroke-miterlimit="10" stroke-width="2"/><circle cx="100.86" cy="114.97" r="3.5" fill="#202020"/><path d="M133.6,8.22c-.35-.32-.19-.9,.27-1l13.14-2.59c.42-.08,.78,.31,.67,.72l-3.19,11.54c-.11,.41-.62,.56-.94,.28l-9.95-8.96Z" fill="#3b8700"/><path d="M209.65,136.32c.14,.45,.74,.55,1.02,.16l7.79-10.89c.25-.35,.05-.84-.38-.91l-11.83-1.88c-.42-.07-.77,.33-.64,.74l4.03,12.77Z" fill="#3b8700"/><line x1="121.67" y1="40.37" x2="124.33" y2="30.83" fill="none" stroke="#545454" stroke-miterlimit="10" stroke-width="2"/><line x1="129.09" y1="13.75" x2="132.85" y2=".27" fill="none" stroke="#3b8700" stroke-miterlimit="10" stroke-width="2"/><line x1="203.35" y1="137.84" x2="217.01" y2="140.89" fill="none" stroke="#3b8700" stroke-miterlimit="10" stroke-width="2"/></svg>